<svg width="80" height="80" viewBox="0 0 80 80" fill="none" xmlns="http://www.w3.org/2000/svg">
<rect width="80" height="80" rx="16" fill="#E4E4E4"/>
<path d="M54 58H26C23.8 58 22 56.2 22 54V26C22 23.8 23.8 22 26 22H54C56.2 22 58 23.8 58 26V54C58 56.2 56.2 58 54 58ZM26 26V54H54V26H26Z" fill="#797979"/>
<path opacity="0.3" d="M54 56H26C24.8 56 24 55.2 24 54V26C24 24.8 24.8 24 26 24H54C55.2 24 56 24.8 56 26V54C56 55.2 55.2 56 54 56Z" fill="#797979"/>
<path d="M47.2 37.8C47.8 37.4 48.4 37 49 36.4C50 35.2 50.4 33.6 50 32.2C49.8 31.8 49.6 31.4 49.4 31C48.8 30.4 47.8 30 46.6 30C45.8 30 45 30.2 44.6 30.4C43.8 30.8 43 31.8 42.6 33C42.2 34 41.8 34.8 41.4 35.8C41.2 36.4 40.6 37 40.2 37C39.8 37 39.4 36.4 39.4 36.2C39.2 35.8 39 35.6 39 35.2C38.8 34.8 38.6 34.4 38.4 34C38 33 37.2 32.4 36.4 32.2C35.4 31.8 34.2 32.2 33.6 33.2C33.2 33.4 33 34.4 33.2 35.4C33.4 36.2 33.8 36.8 34.4 37.2L34.6 37.4C37.4 39.2 37 39.6 37 39.8L36.8 40C36.2 40.4 34 40 33 40C31.8 40 30.8 40 30.2 40.8C30 41.2 30 41.8 30 42.6C30.4 44.2 32.4 44 33 44H33.2C33.4 44 33.6 44 33.8 44C34 44 35.6 43.6 36.6 44.4C37 44.6 36.6 45.2 36.4 45.4L36.2 45.6C35.6 46.2 35.2 46.8 35.2 47.6C35.2 48.4 35.6 49.2 36.2 49.8C36.6 50 37.2 50.2 37.6 50.2C38 50.2 38.4 50.2 38.8 50C39.6 49.8 40.6 49.6 41.2 48.6C41.6 47.8 41.6 47 41.6 46.2C41.6 45.6 41.4 45 41.8 44.6C42.2 44.2 42.8 44.2 43.2 44.4C43.6 44.6 44.2 45 44.6 45.4C44.8 45.6 45 45.6 45 45.8C46 46.6 46.8 47 47.6 46.8C48.2 46.8 49 46.4 49.4 45.6C49.8 45 50 44 49.8 43.2C49.4 41.8 48 40.6 46.6 40.4C46.4 40.4 46.4 40.4 46.2 40.4C45.8 40.4 45.4 40.4 45.2 40.2C45 40 45 39.6 45.2 39.2C45.6 39 46.4 38.4 47.2 37.8Z" fill="#797979"/>
</svg>
