<svg width="80" height="80" viewBox="0 0 80 80" fill="none" xmlns="http://www.w3.org/2000/svg">
<rect width="80" height="80" rx="16" fill="#E4E4E4"/>
<g clip-path="url(#clip0_1326_147)">
<path d="M17.4375 46.3047C16.447 46.1237 16.0661 45.8094 16.009 45.1713C15.9518 44.5047 16.2375 44.1523 17.1232 43.7999C17.1137 42.2951 17.428 40.8285 17.9328 39.4094C18.7804 37.0189 20.009 34.8761 22.1042 33.3618C22.7137 32.9237 23.4375 32.6475 24.1232 32.3428C24.3518 32.238 24.4566 32.1618 24.5042 31.8951C25.009 28.8666 26.1994 26.1523 28.409 23.9713C29.7042 22.6951 31.2375 21.9332 33.1042 22.038C34.7232 22.1332 36.028 22.8951 37.1709 23.9904C38.2661 25.038 39.0661 26.2856 39.7232 27.6285C39.7899 27.7713 39.8661 27.9142 39.9328 28.057C39.9423 28.0856 39.9804 28.0951 40.0375 28.1428C40.1994 27.8189 40.3423 27.4951 40.5137 27.1809C41.5137 25.3047 42.7709 23.638 44.7137 22.6475C46.5709 21.7047 48.428 21.8094 50.1994 22.8951C52.2851 24.1809 53.5709 26.1332 54.4661 28.3523C54.8947 29.4285 55.1518 30.5904 55.4471 31.7142C55.5423 32.057 55.647 32.2666 56.0375 32.3904C57.7613 32.9237 59.0375 34.0856 60.0566 35.5142C61.7518 37.8856 62.7613 40.5237 62.8947 43.4666C62.9042 43.6189 62.9994 43.838 63.1232 43.9047C63.7232 44.2189 64.0375 44.657 63.9709 45.1904C63.8947 45.7904 63.4947 46.1523 62.7709 46.2666C62.7232 46.2761 62.6851 46.2951 62.5994 46.3237C62.5994 47.1332 62.5804 47.9618 62.5994 48.7809C62.628 49.8761 62.4471 50.9237 62.0947 51.9618C61.809 52.7999 61.5518 53.6475 61.2566 54.4856C60.5899 56.3809 58.9804 57.5047 56.9709 57.5047C55.5709 57.5047 54.1804 57.4951 52.7804 57.5047C50.2661 57.5237 48.3613 56.457 47.0375 54.3332C47.009 54.2761 46.9613 54.2285 46.9613 54.2285C46.4566 54.7999 45.9899 55.4285 45.428 55.9428C44.2756 56.9999 42.8756 57.5047 41.3042 57.5047C40.3994 57.5047 39.4947 57.5237 38.5899 57.5047C36.6185 57.4666 35.009 56.638 33.7709 55.1142C33.5328 54.8189 33.3328 54.4951 33.1232 54.1904C32.7804 54.6285 32.4756 55.0856 32.1042 55.4856C30.8471 56.8189 29.2947 57.5047 27.447 57.5142C25.9232 57.5142 24.3994 57.5428 22.8756 57.5047C21.0756 57.4666 19.6756 56.638 18.9899 54.9999C18.3518 53.457 17.8756 51.8285 17.5232 50.1999C17.3042 49.1618 17.447 48.0475 17.4185 46.9713C17.428 46.7428 17.4375 46.5428 17.4375 46.3047ZM19.8661 46.2761C19.8661 46.9618 19.8375 47.5904 19.8756 48.2189C19.9328 49.0856 19.9613 49.9618 20.1518 50.8094C20.3613 51.7523 20.7232 52.657 21.0375 53.5713C21.3804 54.5713 22.0566 55.0761 23.1042 55.0761C24.5328 55.0856 25.9613 55.0951 27.3899 55.0761C29.2661 55.0475 30.7709 53.9142 31.2661 52.1999C31.5423 51.238 31.8566 50.9999 32.8661 50.9999C33.0375 50.9999 33.2185 50.9999 33.3899 50.9999C34.3804 50.9999 34.6851 51.2475 34.9899 52.2094C35.4851 53.7999 36.5804 54.7808 38.2185 54.9904C39.2947 55.1237 40.409 55.1332 41.4947 55.038C43.3518 54.8761 44.5899 53.8666 45.1232 52.038C45.3423 51.2856 45.7232 51.0094 46.5042 50.9999C46.7137 50.9999 46.9137 50.9999 47.1232 50.9999C48.1994 50.9999 48.4661 51.2189 48.7994 52.2285C49.3137 53.8094 50.3899 54.838 52.0375 54.9809C53.7518 55.1237 55.4947 55.0856 57.2185 55.0475C58.0851 55.0285 58.6947 54.4951 58.9804 53.6666C59.3328 52.6475 59.6756 51.6285 59.9709 50.5904C60.3709 49.1809 60.1328 47.7332 60.1899 46.2761C46.7232 46.2761 33.3328 46.2761 19.8661 46.2761ZM47.2375 38.3428C48.5423 35.6189 50.1423 33.2951 53.1518 32.257C52.9328 31.4761 52.7518 30.7047 52.4947 29.9618C51.9518 28.3999 51.1518 26.9809 49.9709 25.8094C49.0756 24.9237 48.0661 24.257 46.7137 24.5047C45.8185 24.6666 45.1232 25.1904 44.4947 25.8094C43.2851 27.0285 42.4661 28.4856 41.9137 30.0856C41.6661 30.7904 41.5042 31.5332 41.3042 32.2475C44.3613 33.2951 45.9328 35.638 47.2375 38.3428ZM26.9042 32.2666C29.9042 33.2951 31.4851 35.6475 32.7709 38.3047C35.1899 34.1047 35.5613 33.7332 38.6471 32.2475C38.3137 30.3428 37.6566 28.5428 36.4851 26.9904C35.9423 26.2666 35.2756 25.5999 34.5613 25.0475C33.4756 24.2189 32.1518 24.2666 31.009 25.0189C30.1042 25.6094 29.409 26.4189 28.828 27.3142C27.847 28.8189 27.1899 30.457 26.9042 32.2666ZM46.1137 43.7809C45.9804 42.9332 45.9232 42.1332 45.7232 41.3618C45.1709 39.1904 44.2185 37.2285 42.5423 35.6761C40.9518 34.1999 39.2756 34.1618 37.6471 35.5713C36.0375 36.9618 35.0947 38.7809 34.4851 40.7809C34.1899 41.7523 33.9899 42.7332 34.0185 43.7809C38.0375 43.7809 41.9994 43.7809 46.1137 43.7809ZM48.4947 43.7618C52.5232 43.7618 56.4947 43.7618 60.5709 43.7618C60.4185 42.857 60.3328 41.9999 60.1137 41.1809C59.5899 39.1523 58.6661 37.3237 57.1709 35.8285C55.4851 34.1523 53.5423 34.1428 51.8375 35.7904C51.7994 35.8189 51.7709 35.857 51.7328 35.8951C50.409 37.1999 49.5804 38.7904 49.0185 40.5237C48.6947 41.5618 48.4471 42.6285 48.4947 43.7618ZM31.5899 43.7713C31.5423 43.257 31.5328 42.7713 31.447 42.2951C31.009 39.7999 30.009 37.5713 28.1804 35.7713C26.5899 34.2094 24.809 34.1428 23.1423 35.5999C21.7042 36.857 20.8185 38.4761 20.209 40.257C19.8185 41.3809 19.5709 42.5332 19.5709 43.7713C23.5709 43.7713 27.5423 43.7713 31.5899 43.7713Z" fill="#797979"/>
<path opacity="0.3" d="M19.8662 46.2761C33.3329 46.2761 46.7234 46.2761 60.1805 46.2761C60.1234 47.7332 60.3615 49.1809 59.9614 50.5904C59.6662 51.6285 59.3138 52.6475 58.971 53.6666C58.6853 54.4951 58.0757 55.0285 57.2091 55.0475C55.4853 55.0856 53.7424 55.1332 52.0281 54.9809C50.371 54.838 49.3043 53.7999 48.79 52.2285C48.4567 51.2094 48.19 50.9999 47.1138 50.9999C46.9043 50.9999 46.7043 50.9999 46.4948 50.9999C45.7138 51.0094 45.3329 51.2856 45.1138 52.038C44.5805 53.857 43.3424 54.8761 41.4853 55.038C40.3995 55.1332 39.2853 55.1237 38.2091 54.9904C36.571 54.7809 35.4757 53.7999 34.9805 52.2094C34.6757 51.2475 34.3805 50.9999 33.3805 50.9999C33.2091 50.9999 33.0281 50.9999 32.8567 50.9999C31.8472 50.9999 31.5329 51.238 31.2567 52.1999C30.7615 53.9142 29.2567 55.0475 27.3805 55.0761C25.9519 55.0951 24.5234 55.0856 23.0948 55.0761C22.0472 55.0666 21.371 54.5713 21.0281 53.5713C20.7138 52.657 20.3519 51.7523 20.1424 50.8094C19.9519 49.9713 19.9234 49.0856 19.8662 48.2189C19.8376 47.5904 19.8662 46.9523 19.8662 46.2761Z" fill="#797979"/>
<path opacity="0.3" d="M47.238 38.3427C45.9237 35.6379 44.3523 33.3046 41.3047 32.257C41.5047 31.5427 41.6666 30.8093 41.9142 30.0951C42.4666 28.4855 43.2856 27.0284 44.4952 25.8189C45.1237 25.1903 45.819 24.676 46.7142 24.5141C48.0666 24.2665 49.0761 24.9236 49.9714 25.8189C51.1523 26.9903 51.9428 28.4189 52.4952 29.9712C52.7523 30.7141 52.9333 31.4855 53.1523 32.2665C50.1523 33.2951 48.5428 35.6189 47.238 38.3427Z" fill="#797979"/>
<path opacity="0.3" d="M26.9043 32.2666C27.19 30.4475 27.8376 28.819 28.8186 27.3142C29.3995 26.419 30.0948 25.619 30.9995 25.019C32.1424 24.2666 33.4662 24.219 34.5519 25.0475C35.2662 25.5999 35.9329 26.2666 36.4757 26.9904C37.6472 28.5428 38.3043 30.3428 38.6376 32.2475C35.5424 33.7237 35.1805 34.1047 32.7614 38.3047C31.4852 35.6475 29.9138 33.2951 26.9043 32.2666Z" fill="#797979"/>
<path opacity="0.3" d="M46.1136 43.7809C41.9993 43.7809 38.0374 43.7809 34.0279 43.7809C33.9898 42.7332 34.1993 41.7523 34.4946 40.7809C35.1041 38.7713 36.047 36.9618 37.6565 35.5713C39.2851 34.1618 40.9612 34.1999 42.5517 35.6761C44.2184 37.2285 45.1803 39.1904 45.7327 41.3618C45.9231 42.1332 45.9803 42.9332 46.1136 43.7809Z" fill="#797979"/>
<path opacity="0.3" d="M48.4942 43.7616C48.4465 42.6283 48.6942 41.5711 49.0275 40.533C49.5894 38.7902 50.418 37.1997 51.7418 35.9045C51.7799 35.8664 51.8084 35.8378 51.8465 35.7997C53.5418 34.1521 55.4942 34.1616 57.1799 35.8378C58.6846 37.333 59.5989 39.1616 60.1227 41.1902C60.3322 42.0092 60.4275 42.8664 60.5799 43.7711C56.4942 43.7616 52.5227 43.7616 48.4942 43.7616Z" fill="#797979"/>
<path opacity="0.3" d="M31.5894 43.7714C27.5417 43.7714 23.5703 43.7714 19.5703 43.7714C19.5703 42.5333 19.8179 41.3809 20.2084 40.2571C20.8179 38.4761 21.7036 36.8571 23.1417 35.5999C24.8084 34.1428 26.5989 34.2095 28.1798 35.7714C30.0084 37.5714 31.0084 39.7999 31.4465 42.2952C31.5322 42.7714 31.5417 43.2571 31.5894 43.7714Z" fill="#797979"/>
</g>
<defs>
<clipPath id="clip0_1326_147">
<rect width="48" height="35.5048" fill="white" transform="translate(16 22)"/>
</clipPath>
</defs>
</svg>
