<svg width="80" height="80" viewBox="0 0 80 80" fill="none" xmlns="http://www.w3.org/2000/svg">
<rect width="80" height="80" rx="16" fill="#E4E4E4"/>
<g clip-path="url(#clip0_1326_146)">
<path d="M62.5 56C62.5 59.5898 59.5899 62.5 56 62.5H55.9375H55.875H55.8125H55.7501H55.6876H55.6251H55.5626H55.5001H55.4376H55.3751H55.3127H55.2502H55.1877H55.1252H55.0627H55.0002H54.9377H54.8753H54.8128H54.7503H54.6878H54.6253H54.5628H54.5003H54.4379H54.3754H54.3129H54.2504H54.1879H54.1254H54.0629H54.0004H53.938H53.8755H53.813H53.7505H53.688H53.6255H53.563H53.5005H53.438H53.3756H53.3131H53.2506H53.1881H53.1256H53.0631H53.0006H52.9381H52.8757H52.8132H52.7507H52.6882H52.6257H52.5632H52.5007H52.4382H52.3757H52.3133H52.2508H52.1883H52.1258H52.0633H52.0008H51.9383H51.8758H51.8133H51.7508H51.6884H51.6259H51.5634H51.5009H51.4384H51.3759H51.3134H51.2509H51.1884H51.1259H51.0634H51.001H50.9385H50.876H50.8135H50.751H50.6885H50.626H50.5635H50.501H50.4385H50.376H50.3135H50.2511H50.1886H50.1261H50.0636H50.0011H49.9386H49.8761H49.8136H49.7511H49.6886H49.6261H49.5636H49.5011H49.4387H49.3762H49.3137H49.2512H49.1887H49.1262H49.0637H49.0012H48.9387H48.8762H48.8137H48.7512H48.6887H48.6262H48.5638H48.5013H48.4388H48.3763H48.3138H48.2513H48.1888H48.1263H48.0638H48.0013H47.9388H47.8763H47.8138H47.7513H47.6888H47.6263H47.5638H47.5014H47.4389H47.3764H47.3139H47.2514H47.1889H47.1264H47.0639H47.0014H46.9389H46.8764H46.8139H46.7514H46.6889H46.6264H46.5639H46.5014H46.4389H46.3764H46.3139H46.2514H46.1889H46.1265H46.064H46.0015H45.939H45.8765H45.814H45.7515H45.689H45.6265H45.564H45.5015H45.439H45.3765H45.314H45.2515H45.189H45.1265H45.064H45.0015H44.939H44.8765H44.814H44.7515H44.689H44.6265H44.564H44.5015H44.439H44.3765H44.314H44.2515H44.189H44.1265H44.064H44.0016H43.9391H43.8766H43.8141H43.7516H43.6891H43.6266H43.5641H43.5016H43.4391H43.3766H43.3141H43.2516H43.1891H43.1266H43.0641H43.0016H42.9391H42.8766H42.8141H42.7516H42.6891H42.6266H42.5641H42.5016H42.4391H42.3766H42.3141H42.2516H42.1891H42.1266H42.0641H42.0016H41.9391H41.8766H41.8141H41.7516H41.6891H41.6266H41.5641H41.5016H41.4391H41.3766H41.3141H41.2516H41.1891H41.1266H41.0641H41.0016H40.9391H40.8766H40.8141H40.7516H40.6891H40.6266H40.5641H40.5016H40.4391H40.3766H40.3141H40.2516H40.1891H40.1266H40.0641H40.0016H39.9391H39.8766H39.8141H39.7516H39.6891H39.6266H39.5641H39.5016H39.4391H39.3766H39.314H39.2515H39.189H39.1265H39.064H39.0015H38.939H38.8765H38.814H38.7515H38.689H38.6265H38.564H38.5015H38.439H38.3765H38.314H38.2515H38.189H38.1265H38.064H38.0015H37.939H37.8765H37.814H37.7515H37.689H37.6265H37.564H37.5015H37.439H37.3765H37.314H37.2515H37.189H37.1265H37.064H37.0014H36.9389H36.8764H36.8139H36.7514H36.6889H36.6264H36.5639H36.5014H36.4389H36.3764H36.3139H36.2514H36.1889H36.1264H36.0639H36.0014H35.9389H35.8764H35.8139H35.7514H35.6889H35.6264H35.5639H35.5014H35.4388H35.3763H35.3138H35.2513H35.1888H35.1263H35.0638H35.0013H34.9388H34.8763H34.8138H34.7513H34.6888H34.6263H34.5638H34.5013H34.4388H34.3763H34.3138H34.2513H34.1887H34.1262H34.0637H34.0012H33.9387H33.8762H33.8137H33.7512H33.6887H33.6262H33.5637H33.5012H33.4387H33.3762H33.3137H33.2512H33.1887H33.1262H33.0637H33.0011H32.9386H32.8761H32.8136H32.7511H32.6886H32.6261H32.5636H32.5011H32.4386H32.3761H32.3136H32.2511H32.1886H32.1261H32.0636H32.001H31.9385H31.876H31.8135H31.751H31.6885H31.626H31.5635H31.501H31.4385H31.376H31.3135H31.251H31.1885H31.126H31.0634H31.0009H30.9384H30.8759H30.8134H30.7509H30.6884H30.6259H30.5634H30.5009H30.4384H30.3759H30.3134H30.2509H30.1883H30.1258H30.0633H30.0008H29.9383H29.8758H29.8133H29.7508H29.6883H29.6258H29.5633H29.5008H29.4383H29.3757H29.3132H29.2507H29.1882H29.1257H29.0632H29.0007H28.9382H28.8757H28.8132H28.7507H28.6882H28.6257H28.5631H28.5006H28.4381H28.3756H28.3131H28.2506H28.1881H28.1256H28.0631H28.0006H27.9381H27.8756H27.813H27.7505H27.688H27.6255H27.563H27.5005H27.438H27.3755H27.313H27.2505H27.188H27.1255H27.0629H27.0004H26.9379H26.8754H26.8129H26.7504H26.6879H26.6254H26.5629H26.5004H26.4379H26.3754H26.3128H26.2503H26.1878H26.1253H26.0628H26.0003H25.9378H25.8753H25.8128H25.7503H25.6878H25.6252H25.5627H25.5002H25.4377H25.3752H25.3127H25.2502H25.1877H25.1252H25.0627H25.0002H24.9376H24.8751H24.8126H24.7501H24.6876H24.6251H24.5626H24.5001H24.4376H24.3751H24.3126H24.25H24.1875H24.125H24.0625H24C20.4102 62.5 17.5 59.5899 17.5 56V55.9375V55.875V55.8126V55.7501V55.6876V55.6251V55.5626V55.5002V55.4377V55.3752V55.3127V55.2502V55.1877V55.1253V55.0628V55.0003V54.9378V54.8753V54.8129V54.7504V54.6879V54.6254V54.5629V54.5005V54.438V54.3755V54.313V54.2505V54.188V54.1256V54.0631V54.0006V53.9381V53.8756V53.8131V53.7507V53.6882V53.6257V53.5632V53.5007V53.4383V53.3758V53.3133V53.2508V53.1883V53.1258V53.0634V53.0009V52.9384V52.8759V52.8134V52.7509V52.6885V52.626V52.5635V52.501V52.4385V52.376V52.3136V52.2511V52.1886V52.1261V52.0636V52.0011V51.9387V51.8762V51.8137V51.7512V51.6887V51.6262V51.5638V51.5013V51.4388V51.3763V51.3138V51.2513V51.1889V51.1264V51.0639V51.0014V50.9389V50.8764V50.8139V50.7515V50.689V50.6265V50.564V50.5015V50.439V50.3766V50.3141V50.2516V50.1891V50.1266V50.0641V50.0016V49.9392V49.8767V49.8142V49.7517V49.6892V49.6267V49.5642V49.5018V49.4393V49.3768V49.3143V49.2518V49.1893V49.1268V49.0644V49.0019V48.9394V48.8769V48.8144V48.7519V48.6894V48.627V48.5645V48.502V48.4395V48.377V48.3145V48.252V48.1895V48.1271V48.0646V48.0021V47.9396V47.8771V47.8146V47.7521V47.6897V47.6272V47.5647V47.5022V47.4397V47.3772V47.3147V47.2522V47.1898V47.1273V47.0648V47.0023V46.9398V46.8773V46.8148V46.7523V46.6898V46.6274V46.5649V46.5024V46.4399V46.3774V46.3149V46.2524V46.1899V46.1274V46.065V46.0025V45.94V45.8775V45.815V45.7525V45.69V45.6275V45.565V45.5026V45.4401V45.3776V45.3151V45.2526V45.1901V45.1276V45.0651V45.0026V44.9401V44.8776V44.8152V44.7527V44.6902V44.6277V44.5652V44.5027V44.4402V44.3777V44.3152V44.2527V44.1902V44.1278V44.0653V44.0028V43.9403V43.8778V43.8153V43.7528V43.6903V43.6278V43.5653V43.5028V43.4403V43.3779V43.3154V43.2529V43.1904V43.1279V43.0654V43.0029V42.9404V42.8779V42.8154V42.7529V42.6904V42.6279V42.5654V42.5029V42.4405V42.378V42.3155V42.253V42.1905V42.128V42.0655V42.003V41.9405V41.878V41.8155V41.753V41.6905V41.628V41.5655V41.503V41.4405V41.378V41.3156V41.2531V41.1906V41.1281V41.0656V41.0031V40.9406V40.8781V40.8156V40.7531V40.6906V40.6281V40.5656V40.5031V40.4406V40.3781V40.3156V40.2531V40.1906V40.1281V40.0656V40.0031V39.9406V39.8781V39.8156V39.7531V39.6906V39.6281V39.5656V39.5032V39.4407V39.3782V39.3157V39.2532V39.1907V39.1282V39.0657V39.0032V38.9407V38.8782V38.8157V38.7532V38.6907V38.6282V38.5657V38.5032V38.4407V38.3782V38.3157V38.2532V38.1907V38.1282V38.0657V38.0032V37.9407V37.8782V37.8157V37.7532V37.6907V37.6282V37.5657V37.5032V37.4407V37.3782V37.3157V37.2532V37.1907V37.1282V37.0657V37.0031V36.9406V36.8781V36.8156V36.7531V36.6906V36.6281V36.5656V36.5031V36.4406V36.3781V36.3156V36.2531V36.1906V36.1281V36.0656V36.0031V35.9406V35.8781V35.8156V35.7531V35.6906V35.6281V35.5656V35.5031V35.4406V35.3781V35.3156V35.253V35.1905V35.128V35.0655V35.003V34.9405V34.878V34.8155V34.753V34.6905V34.628V34.5655V34.503V34.4405V34.378V34.3155V34.2529V34.1904V34.1279V34.0654V34.0029V33.9404V33.8779V33.8154V33.7529V33.6904V33.6279V33.5654V33.5029V33.4403V33.3778V33.3153V33.2528V33.1903V33.1278V33.0653V33.0028V32.9403V32.8778V32.8153V32.7527V32.6902V32.6277V32.5652V32.5027V32.4402V32.3777V32.3152V32.2527V32.1901V32.1276V32.0651V32.0026V31.9401V31.8776V31.8151V31.7526V31.6901V31.6275V31.565V31.5025V31.44V31.3775V31.315V31.2525V31.19V31.1274V31.0649V31.0024V30.9399V30.8774V30.8149V30.7524V30.6898V30.6273V30.5648V30.5023V30.4398V30.3773V30.3148V30.2522V30.1897V30.1272V30.0647V30.0022V29.9397V29.8771V29.8146V29.7521V29.6896V29.6271V29.5646V29.502V29.4395V29.377V29.3145V29.252V29.1895V29.1269V29.0644V29.0019V28.9394V28.8769V28.8144V28.7518V28.6893V28.6268V28.5643V28.5018V28.4392V28.3767V28.3142V28.2517V28.1892V28.1266V28.0641V28.0016V27.9391V27.8766V27.814V27.7515V27.689V27.6265V27.564V27.5014V27.4389V27.3764V27.3139V27.2514V27.1888V27.1263V27.0638V27.0013V26.9387V26.8762V26.8137V26.7512V26.6886V26.6261V26.5636V26.5011V26.4386V26.376V26.3135V26.251V26.1885V26.1259V26.0634V26.0009V25.9384V25.8758V25.8133V25.7508V25.6883V25.6257V25.5632V25.5007V25.4382V25.3756V25.3131V25.2506V25.188V25.1255V25.063V25.0005V24.9379V24.8754V24.8129V24.7504V24.6878V24.6253V24.5628V24.5002V24.4377V24.3752V24.3127V24.2501V24.1876V24.1251V24.0625V24C17.5 20.4102 20.4101 17.5 24 17.5H24.0625H24.125H24.1875H24.2499H24.3124H24.3749H24.4374H24.4999H24.5624H24.6249H24.6873H24.7498H24.8123H24.8748H24.9373H24.9998H25.0623H25.1247H25.1872H25.2497H25.3122H25.3747H25.4372H25.4997H25.5621H25.6246H25.6871H25.7496H25.8121H25.8746H25.9371H25.9996H26.062H26.1245H26.187H26.2495H26.312H26.3745H26.437H26.4995H26.5619H26.6244H26.6869H26.7494H26.8119H26.8744H26.9369H26.9994H27.0619H27.1243H27.1868H27.2493H27.3118H27.3743H27.4368H27.4993H27.5618H27.6243H27.6867H27.7492H27.8117H27.8742H27.9367H27.9992H28.0617H28.1242H28.1867H28.2492H28.3116H28.3741H28.4366H28.4991H28.5616H28.6241H28.6866H28.7491H28.8116H28.8741H28.9366H28.999H29.0615H29.124H29.1865H29.249H29.3115H29.374H29.4365H29.499H29.5615H29.624H29.6865H29.7489H29.8114H29.8739H29.9364H29.9989H30.0614H30.1239H30.1864H30.2489H30.3114H30.3739H30.4364H30.4989H30.5613H30.6238H30.6863H30.7488H30.8113H30.8738H30.9363H30.9988H31.0613H31.1238H31.1863H31.2488H31.3113H31.3738H31.4362H31.4987H31.5612H31.6237H31.6862H31.7487H31.8112H31.8737H31.9362H31.9987H32.0612H32.1237H32.1862H32.2487H32.3112H32.3737H32.4362H32.4986H32.5611H32.6236H32.6861H32.7486H32.8111H32.8736H32.9361H32.9986H33.0611H33.1236H33.1861H33.2486H33.3111H33.3736H33.4361H33.4986H33.5611H33.6236H33.6861H33.7486H33.8111H33.8735H33.936H33.9985H34.061H34.1235H34.186H34.2485H34.311H34.3735H34.436H34.4985H34.561H34.6235H34.686H34.7485H34.811H34.8735H34.936H34.9985H35.061H35.1235H35.186H35.2485H35.311H35.3735H35.436H35.4985H35.561H35.6235H35.686H35.7485H35.811H35.8735H35.936H35.9984H36.0609H36.1234H36.1859H36.2484H36.3109H36.3734H36.4359H36.4984H36.5609H36.6234H36.6859H36.7484H36.8109H36.8734H36.9359H36.9984H37.0609H37.1234H37.1859H37.2484H37.3109H37.3734H37.4359H37.4984H37.5609H37.6234H37.6859H37.7484H37.8109H37.8734H37.9359H37.9984H38.0609H38.1234H38.1859H38.2484H38.3109H38.3734H38.4359H38.4984H38.5609H38.6234H38.6859H38.7484H38.8109H38.8734H38.9359H38.9984H39.0609H39.1234H39.1859H39.2484H39.3109H39.3734H39.4359H39.4984H39.5609H39.6234H39.6859H39.7484H39.8109H39.8734H39.9359H39.9984H40.0609H40.1234H40.1859H40.2484H40.3109H40.3734H40.4359H40.4984H40.5609H40.6234H40.686H40.7485H40.811H40.8735H40.936H40.9985H41.061H41.1235H41.186H41.2485H41.311H41.3735H41.436H41.4985H41.561H41.6235H41.686H41.7485H41.811H41.8735H41.936H41.9985H42.061H42.1235H42.186H42.2485H42.311H42.3735H42.436H42.4985H42.561H42.6235H42.686H42.7485H42.811H42.8735H42.936H42.9986H43.0611H43.1236H43.1861H43.2486H43.3111H43.3736H43.4361H43.4986H43.5611H43.6236H43.6861H43.7486H43.8111H43.8736H43.9361H43.9986H44.0611H44.1236H44.1861H44.2486H44.3111H44.3736H44.4361H44.4986H44.5612H44.6237H44.6862H44.7487H44.8112H44.8737H44.9362H44.9987H45.0612H45.1237H45.1862H45.2487H45.3112H45.3737H45.4362H45.4987H45.5612H45.6237H45.6862H45.7487H45.8113H45.8738H45.9363H45.9988H46.0613H46.1238H46.1863H46.2488H46.3113H46.3738H46.4363H46.4988H46.5613H46.6238H46.6863H46.7488H46.8113H46.8738H46.9363H46.9989H47.0614H47.1239H47.1864H47.2489H47.3114H47.3739H47.4364H47.4989H47.5614H47.6239H47.6864H47.7489H47.8114H47.8739H47.9364H47.999H48.0615H48.124H48.1865H48.249H48.3115H48.374H48.4365H48.499H48.5615H48.624H48.6865H48.749H48.8115H48.8741H48.9366H48.9991H49.0616H49.1241H49.1866H49.2491H49.3116H49.3741H49.4366H49.4991H49.5616H49.6241H49.6866H49.7491H49.8117H49.8742H49.9367H49.9992H50.0617H50.1242H50.1867H50.2492H50.3117H50.3742H50.4367H50.4992H50.5617H50.6243H50.6868H50.7493H50.8118H50.8743H50.9368H50.9993H51.0618H51.1243H51.1868H51.2493H51.3118H51.3743H51.4369H51.4994H51.5619H51.6244H51.6869H51.7494H51.8119H51.8744H51.9369H51.9994H52.0619H52.1244H52.187H52.2495H52.312H52.3745H52.437H52.4995H52.562H52.6245H52.687H52.7495H52.812H52.8745H52.9371H52.9996H53.0621H53.1246H53.1871H53.2496H53.3121H53.3746H53.4371H53.4996H53.5621H53.6246H53.6872H53.7497H53.8122H53.8747H53.9372H53.9997H54.0622H54.1247H54.1872H54.2497H54.3122H54.3748H54.4373H54.4998H54.5623H54.6248H54.6873H54.7498H54.8123H54.8748H54.9373H54.9998H55.0624H55.1249H55.1874H55.2499H55.3124H55.3749H55.4374H55.4999H55.5624H55.6249H55.6875H55.75H55.8125H55.875H55.9375H56C59.5898 17.5 62.5 20.4101 62.5 24V24.0625V24.125V24.1875V24.2499V24.3124V24.3749V24.4374V24.4999V24.5624V24.6249V24.6873V24.7498V24.8123V24.8748V24.9373V24.9998V25.0623V25.1247V25.1872V25.2497V25.3122V25.3747V25.4372V25.4997V25.5621V25.6246V25.6871V25.7496V25.8121V25.8746V25.9371V25.9996V26.062V26.1245V26.187V26.2495V26.312V26.3745V26.437V26.4995V26.5619V26.6244V26.6869V26.7494V26.8119V26.8744V26.9369V26.9994V27.0619V27.1243V27.1868V27.2493V27.3118V27.3743V27.4368V27.4993V27.5618V27.6243V27.6867V27.7492V27.8117V27.8742V27.9367V27.9992V28.0617V28.1242V28.1867V28.2492V28.3116V28.3741V28.4366V28.4991V28.5616V28.6241V28.6866V28.7491V28.8116V28.8741V28.9366V28.999V29.0615V29.124V29.1865V29.249V29.3115V29.374V29.4365V29.499V29.5615V29.624V29.6865V29.7489V29.8114V29.8739V29.9364V29.9989V30.0614V30.1239V30.1864V30.2489V30.3114V30.3739V30.4364V30.4989V30.5613V30.6238V30.6863V30.7488V30.8113V30.8738V30.9363V30.9988V31.0613V31.1238V31.1863V31.2488V31.3113V31.3738V31.4362V31.4987V31.5612V31.6237V31.6862V31.7487V31.8112V31.8737V31.9362V31.9987V32.0612V32.1237V32.1862V32.2487V32.3112V32.3737V32.4362V32.4986V32.5611V32.6236V32.6861V32.7486V32.8111V32.8736V32.9361V32.9986V33.0611V33.1236V33.1861V33.2486V33.3111V33.3736V33.4361V33.4986V33.5611V33.6236V33.6861V33.7486V33.8111V33.8735V33.936V33.9985V34.061V34.1235V34.186V34.2485V34.311V34.3735V34.436V34.4985V34.561V34.6235V34.686V34.7485V34.811V34.8735V34.936V34.9985V35.061V35.1235V35.186V35.2485V35.311V35.3735V35.436V35.4985V35.561V35.6235V35.686V35.7485V35.811V35.8735V35.936V35.9984V36.0609V36.1234V36.1859V36.2484V36.3109V36.3734V36.4359V36.4984V36.5609V36.6234V36.6859V36.7484V36.8109V36.8734V36.9359V36.9984V37.0609V37.1234V37.1859V37.2484V37.3109V37.3734V37.4359V37.4984V37.5609V37.6234V37.6859V37.7484V37.8109V37.8734V37.9359V37.9984V38.0609V38.1234V38.1859V38.2484V38.3109V38.3734V38.4359V38.4984V38.5609V38.6234V38.6859V38.7484V38.8109V38.8734V38.9359V38.9984V39.0609V39.1234V39.1859V39.2484V39.3109V39.3734V39.4359V39.4984V39.5609V39.6234V39.6859V39.7484V39.8109V39.8734V39.9359V39.9984V40.0609V40.1234V40.1859V40.2484V40.3109V40.3734V40.4359V40.4984V40.5609V40.6234V40.686V40.7485V40.811V40.8735V40.936V40.9985V41.061V41.1235V41.186V41.2485V41.311V41.3735V41.436V41.4985V41.561V41.6235V41.686V41.7485V41.811V41.8735V41.936V41.9985V42.061V42.1235V42.186V42.2485V42.311V42.3735V42.436V42.4985V42.561V42.6235V42.686V42.7485V42.811V42.8735V42.936V42.9986V43.0611V43.1236V43.1861V43.2486V43.3111V43.3736V43.4361V43.4986V43.5611V43.6236V43.6861V43.7486V43.8111V43.8736V43.9361V43.9986V44.0611V44.1236V44.1861V44.2486V44.3111V44.3736V44.4361V44.4986V44.5612V44.6237V44.6862V44.7487V44.8112V44.8737V44.9362V44.9987V45.0612V45.1237V45.1862V45.2487V45.3112V45.3737V45.4362V45.4987V45.5612V45.6237V45.6862V45.7487V45.8113V45.8738V45.9363V45.9988V46.0613V46.1238V46.1863V46.2488V46.3113V46.3738V46.4363V46.4988V46.5613V46.6238V46.6863V46.7488V46.8113V46.8738V46.9363V46.9989V47.0614V47.1239V47.1864V47.2489V47.3114V47.3739V47.4364V47.4989V47.5614V47.6239V47.6864V47.7489V47.8114V47.8739V47.9364V47.999V48.0615V48.124V48.1865V48.249V48.3115V48.374V48.4365V48.499V48.5615V48.624V48.6865V48.749V48.8115V48.8741V48.9366V48.9991V49.0616V49.1241V49.1866V49.2491V49.3116V49.3741V49.4366V49.4991V49.5616V49.6241V49.6866V49.7491V49.8117V49.8742V49.9367V49.9992V50.0617V50.1242V50.1867V50.2492V50.3117V50.3742V50.4367V50.4992V50.5617V50.6243V50.6868V50.7493V50.8118V50.8743V50.9368V50.9993V51.0618V51.1243V51.1868V51.2493V51.3118V51.3743V51.4369V51.4994V51.5619V51.6244V51.6869V51.7494V51.8119V51.8744V51.9369V51.9994V52.0619V52.1244V52.187V52.2495V52.312V52.3745V52.437V52.4995V52.562V52.6245V52.687V52.7495V52.812V52.8745V52.9371V52.9996V53.0621V53.1246V53.1871V53.2496V53.3121V53.3746V53.4371V53.4996V53.5621V53.6246V53.6872V53.7497V53.8122V53.8747V53.9372V53.9997V54.0622V54.1247V54.1872V54.2497V54.3122V54.3748V54.4373V54.4998V54.5623V54.6248V54.6873V54.7498V54.8123V54.8748V54.9373V54.9998V55.0624V55.1249V55.1874V55.2499V55.3124V55.3749V55.4374V55.4999V55.5624V55.6249V55.6875V55.75V55.8125V55.875V55.9375V56Z" fill="#797979" fill-opacity="0.3" stroke="#797979" stroke-width="3"/>
<path d="M39.916 47.4343C37.9941 47.4343 36.0816 47.4343 34.1598 47.4343C33.0441 47.4343 32.4629 46.8437 32.4629 45.728C32.4629 41.8562 32.4629 37.9937 32.4629 34.1218C32.4629 33.0718 33.0629 32.4624 34.1035 32.4624C38.0035 32.4624 41.9035 32.4624 45.8035 32.4624C46.816 32.4624 47.4348 33.0718 47.4348 34.103C47.4441 38.003 47.4441 41.903 47.4348 45.803C47.4348 46.8437 46.816 47.4437 45.766 47.4437C43.816 47.4343 41.866 47.4343 39.916 47.4343ZM35.491 35.4718C35.491 38.4718 35.491 41.4437 35.491 44.3968C38.491 44.3968 41.4535 44.3968 44.416 44.3968C44.416 41.4062 44.416 38.4437 44.416 35.4718C41.4348 35.4718 38.4816 35.4718 35.491 35.4718Z" fill="#797979"/>
<path d="M26.1441 55.8531C26.6035 56.2656 27.0348 56.65 27.5504 57.1187C25.6285 57.3906 23.8379 57.6531 21.9629 57.925C22.2254 56.0875 22.4785 54.2781 22.7504 52.3937C23.1723 52.8718 23.5566 53.3031 23.9879 53.8C24.8785 52.8906 25.6285 52.1125 26.3973 51.3437C27.6723 50.0593 28.9566 48.7843 30.241 47.5187C30.7004 47.0687 31.2348 46.8156 31.891 47.0312C33.0348 47.4156 33.2973 48.6812 32.416 49.5812C31.4973 50.5187 30.5691 51.4281 29.641 52.3562C28.5066 53.4812 27.3723 54.6156 26.1441 55.8531Z" fill="#797979"/>
<path d="M53.7148 23.9967C53.2742 23.6217 52.8336 23.2561 52.3929 22.8904C52.4117 22.8436 52.4398 22.8061 52.4586 22.7592C54.2492 22.5061 56.0398 22.2436 57.9148 21.9717C57.6523 23.8186 57.3992 25.6186 57.1179 27.5592C56.6773 27.0342 56.3023 26.5936 55.8523 26.0686C55.3086 26.6404 54.8961 27.0998 54.4554 27.5404C52.8148 29.1904 51.1742 30.8217 49.5336 32.4623C48.9336 33.0623 48.0804 33.1186 47.4711 32.6029C46.8523 32.0779 46.7304 31.1404 47.3023 30.5123C48.1648 29.5561 49.1023 28.6561 50.0211 27.7467C51.1648 26.6029 52.3179 25.4592 53.4617 24.3154C53.5179 24.2404 53.5742 24.1654 53.7148 23.9967Z" fill="#797979"/>
<path d="M24.007 26.1346C23.6039 26.6127 23.2289 27.0533 22.7695 27.5971C22.4883 25.6471 22.2352 23.8471 21.9727 21.9814C23.8102 22.2439 25.6008 22.4971 27.4383 22.7596C26.9883 23.1627 26.557 23.5377 26.1258 23.9221C26.1352 24.0064 26.1539 24.0908 26.1633 24.1752C26.8195 24.7846 27.4945 25.3846 28.132 26.0221C29.5664 27.4377 30.982 28.8627 32.3977 30.2877C33.082 30.9721 33.1289 31.9002 32.5102 32.5283C31.9383 33.1189 31.0102 33.1096 30.3352 32.4533C29.1258 31.2814 27.9539 30.0721 26.7633 28.8814C25.8727 28.0096 24.9914 27.1189 24.007 26.1346Z" fill="#797979"/>
<path d="M55.9085 53.7345C56.2835 53.2845 56.6585 52.8438 57.1179 52.3001C57.3991 54.2595 57.6522 56.0595 57.9147 57.9157C56.0772 57.6532 54.2772 57.4001 52.3553 57.1188C52.8803 56.697 53.3304 56.3313 53.8741 55.8907C52.8335 54.8876 51.9522 54.0532 51.0897 53.2001C49.8897 52.0188 48.6897 50.8282 47.5272 49.6188C47.2741 49.3563 47.0679 48.9813 46.9835 48.6251C46.8616 48.072 47.0679 47.5751 47.5554 47.247C48.0616 46.9095 48.6147 46.8157 49.1304 47.1626C49.5429 47.4345 49.8991 47.7907 50.246 48.147C52.046 49.9376 53.8366 51.7376 55.6366 53.5376C55.6835 53.5845 55.7304 53.6126 55.7866 53.6501C55.8335 53.6688 55.871 53.697 55.9085 53.7345Z" fill="#797979"/>
<path opacity="0.3" d="M35.4902 35.4717C38.4809 35.4717 41.434 35.4717 44.4152 35.4717C44.4152 38.4529 44.4152 41.4061 44.4152 44.3967C41.4527 44.3967 38.4902 44.3967 35.4902 44.3967C35.4902 41.4436 35.4902 38.4811 35.4902 35.4717Z" fill="#797979"/>
</g>
<defs>
<clipPath id="clip0_1326_146">
<rect width="48" height="48" fill="white" transform="translate(16 16)"/>
</clipPath>
</defs>
</svg>
