<svg width="80" height="80" viewBox="0 0 80 80" fill="none" xmlns="http://www.w3.org/2000/svg">
<rect width="80" height="80" rx="16" fill="#E4E4E4"/>
<path d="M39.9241 16C53.1684 15.9831 63.9494 26.7135 63.9662 39.9409C63.9831 53.2021 53.3033 63.9831 40.1603 64C26.7304 64.0169 16.0338 53.3877 16 40.0422C15.9831 26.781 26.6798 16.0169 39.9241 16ZM45.8292 57.4706C45.9135 57.4706 46.0148 57.4706 46.0991 57.4706C46.1329 58.213 46.1666 58.9722 46.2172 59.9002C47.1452 59.1578 46.4028 58.1455 47.0777 57.4706C47.1283 58.0949 47.162 58.7191 47.2127 59.4952C48.1743 58.9891 47.3645 57.9768 48.0731 57.3357C48.1406 57.9768 48.1912 58.4661 48.225 58.9722C48.3262 58.9891 48.4105 59.006 48.5118 59.0228C48.6299 58.5167 48.748 57.9937 48.8661 57.4875C48.9167 57.4875 48.9842 57.4875 49.0348 57.4875C49.1192 57.8249 49.2035 58.1624 49.3047 58.6517C50.1315 57.8418 49.406 56.7958 50.0808 56.0534C50.1315 56.6945 50.1821 57.3188 50.2327 57.9768C58.1624 53.742 62.9371 43.484 59.6133 33.5128C56.4583 24.0141 47.0945 18.2271 37.0221 19.5262C27.439 20.7241 19.9143 28.8731 19.2225 38.7599C18.6826 46.3691 24.1153 56.3571 29.6155 57.8249C29.6492 57.2176 29.6998 56.6102 29.7336 56.0028C30.3578 56.7451 29.6661 57.7912 30.5434 58.5335C30.6446 58.078 30.729 57.7743 30.7965 57.4538C30.8809 57.4706 30.9483 57.4706 31.0327 57.4875C31.0496 57.7575 31.0327 58.0274 31.0833 58.2805C31.1339 58.5167 31.2689 58.736 31.3701 58.9553C31.4376 58.9385 31.5051 58.9047 31.5895 58.8879C31.6569 58.4155 31.7244 57.943 31.8088 57.285C32.3318 58.0274 31.7076 58.9047 32.6018 59.4446C32.6693 58.6685 32.7199 58.078 32.7705 57.4706C33.3947 58.1286 32.6861 59.1241 33.6141 59.8495C33.6816 58.9216 33.7322 58.1961 33.7828 57.4706C34.3902 58.2805 33.7153 59.2928 34.542 60.0014C34.7445 58.213 34.6264 56.4077 34.8963 54.6193C35.0819 54.8893 35.0988 55.1592 35.0988 55.4123C35.0988 56.7958 35.0819 58.1624 35.1156 59.5459C35.1156 59.7989 35.2675 60.0351 35.3518 60.2882C35.4868 60.2713 35.6218 60.2376 35.7736 60.2207C35.7736 59.2928 35.7736 58.3817 35.7736 57.4538C35.858 57.4538 35.9424 57.4538 36.0436 57.4706C36.3642 58.4323 35.8074 59.5459 36.3642 60.4738C36.4991 60.4569 36.6341 60.4569 36.7691 60.4401C36.7691 59.4446 36.7691 58.4661 36.7691 57.4706C36.8872 57.4706 37.0053 57.4875 37.1403 57.4875C37.1403 58.0274 37.0896 58.5842 37.1571 59.1241C37.2077 59.6133 36.8703 60.2545 37.7814 60.575C37.7814 59.5459 37.7814 58.4998 37.7814 57.4706C37.8995 57.4706 38.0176 57.4706 38.1357 57.4875C38.1357 58.0611 38.1357 58.6179 38.1357 59.1915C38.1357 60.5244 38.1357 60.5244 38.8105 60.6931C38.8105 59.5965 38.8105 58.5336 38.8105 57.4875C38.9286 57.4875 39.0299 57.5044 39.148 57.5044C39.148 58.3817 39.1311 59.259 39.1649 60.1532C39.1649 60.3557 39.3336 60.5582 39.4348 60.7606C39.536 60.5582 39.7047 60.3726 39.7047 60.1701C39.7385 58.9891 39.7047 57.8081 39.7216 56.627C39.7216 56.4246 39.8397 56.2053 39.9241 56.0028C40.0084 56.0197 40.0759 56.0365 40.1603 56.0534C40.1603 56.3571 40.1603 56.6608 40.1603 56.9645C40.1603 58.0611 40.1434 59.1578 40.1772 60.2545C40.1772 60.4232 40.3627 60.5919 40.464 60.7606C40.5483 60.5919 40.7171 60.4232 40.7339 60.2376C40.7677 59.5965 40.7339 58.9385 40.7508 58.2974C40.7508 58.0274 40.8014 57.7575 40.8183 57.4706C40.9026 57.4706 40.987 57.4706 41.0714 57.4706C41.1051 57.6731 41.1557 57.8587 41.1726 58.0611C41.1895 58.736 41.1557 59.4109 41.1895 60.0857C41.2063 60.2882 41.3413 60.4907 41.4425 60.71C41.5438 60.4907 41.7294 60.2882 41.7462 60.0689C41.78 59.394 41.7462 58.7191 41.7631 58.0443C41.7631 57.8587 41.8306 57.6731 41.8812 57.4875C41.9824 57.4875 42.0837 57.5044 42.1849 57.5044C42.1849 58.5504 42.1849 59.5965 42.1849 60.6425C42.3199 60.6594 42.4548 60.6594 42.5898 60.6763C43.0285 59.6808 42.5223 58.4998 42.8766 57.4875C42.9779 57.4875 43.0791 57.5044 43.1634 57.5044C43.1634 58.4998 43.1634 59.4952 43.1634 60.4907C43.2984 60.5075 43.4165 60.5244 43.5515 60.5413C44.0914 59.6302 43.5009 58.4492 43.8889 57.4875C43.9902 57.4875 44.0914 57.5044 44.2095 57.5044C44.2095 58.4323 44.2095 59.3603 44.2095 60.3051C44.3276 60.3219 44.4457 60.3388 44.5638 60.3557C44.6313 60.1195 44.7663 59.8664 44.7663 59.6302C44.7831 58.1961 44.7663 56.762 44.7831 55.3279C44.7831 55.0917 44.8506 54.8724 44.8844 54.6362C44.9856 54.6531 45.0868 54.6531 45.188 54.6699C45.188 56.4583 45.188 58.2636 45.188 60.052C45.3062 60.0689 45.4243 60.0858 45.5424 60.1026C46.0654 59.3097 45.4749 58.2636 45.8292 57.4706Z" fill="#797979"/>
<path opacity="0.3" d="M45.8285 57.4705C45.4742 58.2635 46.0647 59.3096 45.4742 60.0519C45.3561 60.035 45.238 60.0182 45.1199 60.0013C45.1199 58.2129 45.1199 56.4076 45.1199 54.6192C45.0187 54.6024 44.9174 54.6024 44.8162 54.5855C44.7825 54.8217 44.715 55.041 44.715 55.2772C44.6981 56.7113 44.715 58.1454 44.6981 59.5795C44.6981 59.8157 44.5631 60.0688 44.4956 60.305C44.3775 60.2881 44.2594 60.2712 44.1413 60.2544C44.1413 59.3264 44.1413 58.3985 44.1413 57.4537C44.0401 57.4537 43.9389 57.4368 43.8208 57.4368C43.4327 58.3816 44.0232 59.5795 43.4833 60.4906C43.3484 60.4737 43.2303 60.4568 43.0953 60.44C43.0953 59.4445 43.0953 58.4491 43.0953 57.4537C42.9941 57.4537 42.8928 57.4368 42.8085 57.4368C42.4542 58.4491 42.9603 59.6301 42.5216 60.6256C42.3867 60.6087 42.2517 60.6087 42.1167 60.5918C42.1167 59.5458 42.1167 58.4997 42.1167 57.4537C42.0155 57.4537 41.9143 57.4368 41.813 57.4368C41.7793 57.6224 41.7118 57.808 41.6949 57.9936C41.6781 58.6684 41.7118 59.3433 41.6781 60.0182C41.6612 60.2375 41.4756 60.4568 41.3744 60.6593C41.29 60.4568 41.1382 60.2544 41.1213 60.035C41.0876 59.3602 41.1213 58.6853 41.1044 58.0104C41.1044 57.808 41.0369 57.6224 41.0032 57.4199C40.9188 57.4199 40.8345 57.4199 40.7501 57.4199C40.7332 57.6899 40.6826 57.9598 40.6826 58.2466C40.6658 58.8878 40.6995 59.5458 40.6658 60.1869C40.6489 60.3725 40.497 60.5412 40.3958 60.7099C40.2946 60.5412 40.1259 60.3725 40.109 60.2038C40.0753 59.1071 40.0921 58.0104 40.0921 56.9138C40.0921 56.6101 40.0921 56.3064 40.0921 56.0027C40.0078 55.9858 39.9403 55.969 39.8559 55.9521C39.7884 56.1546 39.6703 56.357 39.6535 56.5763C39.6366 57.7574 39.6535 58.9384 39.6366 60.1194C39.6366 60.3219 39.4679 60.5074 39.3666 60.7099C39.2654 60.5074 39.0967 60.305 39.0967 60.1025C39.0629 59.2252 39.0798 58.3479 39.0798 57.4537C38.9617 57.4537 38.8605 57.4368 38.7424 57.4368C38.7424 58.4828 38.7424 59.5458 38.7424 60.6424C38.0675 60.4737 38.0675 60.4737 38.0675 59.1408C38.0675 58.5672 38.0675 58.0104 38.0675 57.4368C37.9494 57.4368 37.8313 57.4368 37.7132 57.4199C37.7132 58.4491 37.7132 59.4952 37.7132 60.5243C36.8021 60.2206 37.1396 59.5795 37.089 59.0734C37.0383 58.5335 37.0721 57.9936 37.0721 57.4368C36.954 57.4368 36.8359 57.4199 36.7009 57.4199C36.7009 58.4154 36.7009 59.3939 36.7009 60.3893C36.5659 60.4062 36.431 60.4062 36.296 60.4231C35.7561 59.512 36.296 58.3816 35.9754 57.4199C35.8911 57.4199 35.8067 57.4199 35.7055 57.4031C35.7055 58.331 35.7055 59.2421 35.7055 60.17C35.5705 60.1869 35.4355 60.2206 35.2837 60.2375C35.1993 59.9844 35.0475 59.7482 35.0475 59.4951C35.0306 58.1117 35.0306 56.7451 35.0306 55.3616C35.0306 55.0916 34.9969 54.8386 34.8282 54.5686C34.5582 56.3401 34.6763 58.1454 34.4739 59.9507C33.6471 59.2421 34.322 58.2298 33.7146 57.4199C33.664 58.1454 33.6134 58.8709 33.5459 59.7988C32.618 59.0734 33.3266 58.0779 32.7023 57.4199C32.6517 58.0273 32.6011 58.6178 32.5336 59.3939C31.6563 58.8372 32.2637 57.9767 31.7406 57.2343C31.6563 57.8755 31.5888 58.3647 31.5213 58.8372C31.4538 58.854 31.3863 58.8878 31.302 58.9046C31.2007 58.6853 31.0658 58.466 31.0152 58.2298C30.9645 57.9767 30.9814 57.7067 30.9645 57.4368C30.8802 57.4199 30.8127 57.4199 30.7283 57.4031C30.6608 57.7236 30.5765 58.0273 30.4753 58.4828C29.5979 57.7405 30.3065 56.6944 29.6654 55.9521C29.6317 56.5595 29.5811 57.1669 29.5473 57.7742C24.0471 56.3064 18.6145 46.3352 19.1544 38.7092C19.8461 28.8224 27.3877 20.6734 36.9877 19.4418C47.0601 18.1426 56.407 23.9296 59.5789 33.4284C62.9026 43.3996 58.128 53.6575 50.1983 57.8923C50.1477 57.2343 50.097 56.5932 50.0464 55.969C49.3884 56.7113 50.097 57.7574 49.2703 58.5672C49.1522 58.0948 49.0679 57.7574 49.0004 57.4031C48.9498 57.4031 48.8823 57.4031 48.8317 57.4031C48.7136 57.9092 48.5955 58.4322 48.4774 58.9384C48.3761 58.9215 48.2918 58.9046 48.1905 58.8878C48.1399 58.3985 48.0893 57.8923 48.0387 57.2512C47.3301 57.8923 48.1399 58.9046 47.1782 59.4108C47.1276 58.6347 47.077 58.0104 47.0433 57.3862C46.3684 58.0611 47.1107 59.0734 46.1828 59.8157C46.1322 58.8878 46.0984 58.1454 46.0647 57.3862C46.0141 57.4705 45.9297 57.4705 45.8285 57.4705ZM34.2883 27.1352C34.2883 33.3609 34.2883 39.5191 34.2883 45.711C38.0338 45.711 41.7287 45.711 45.5417 45.711C45.5417 44.6143 45.5586 43.5514 45.5248 42.4885C45.5248 42.3366 45.1874 42.0836 44.9849 42.0667C44.2932 42.0161 43.5846 42.0498 42.876 42.0498C41.4587 42.0498 40.0415 42.0498 38.5231 42.0498C38.5231 36.9883 38.5231 32.0787 38.5231 27.1352C37.089 27.1352 35.7392 27.1352 34.2883 27.1352ZM44.1245 49.9458C44.6644 49.9458 45.0524 49.9458 45.4404 49.9458C46.9252 49.9458 47.0095 49.8445 46.7902 48.3767C46.7733 48.2923 46.7564 48.208 46.7396 48.1236C46.5371 47.2463 45.9129 46.8414 44.8331 46.8414C43.8039 46.8582 43.0953 47.2632 43.0278 48.1236C42.9266 49.254 42.9097 50.4182 43.0278 51.5655C43.129 52.544 44.1413 53.0164 45.3392 52.814C46.3684 52.6284 46.8071 52.0547 46.7227 50.9749C46.3684 50.9749 46.031 50.9749 45.6767 50.9749C45.7104 51.0593 45.761 51.1437 45.7948 51.228C45.4405 51.4473 45.0355 51.9029 44.7656 51.8354C43.7195 51.5823 44.2932 50.705 44.1245 49.9458ZM36.7009 48.6635C36.684 48.4611 36.7009 48.343 36.6672 48.2417C36.4478 47.3475 35.8573 46.8751 34.8956 46.8751C34.1195 46.8751 33.4278 47.0607 33.1072 47.8706C32.8036 48.6298 33.141 49.3721 34.0014 49.9289C34.3051 50.1314 34.6763 50.2663 34.9125 50.5363C35.1656 50.8062 35.3174 51.1943 35.4524 51.5486C35.4693 51.5823 34.9631 51.9366 34.8956 51.8691C34.6088 51.6329 34.3895 51.3124 34.1533 51.0256C34.1195 50.9918 34.0689 50.9581 34.0858 50.9581C33.7146 50.9581 33.3941 50.9581 33.0735 50.9581C33.0566 52.0379 33.4447 52.5778 34.3557 52.7971C35.3006 53.0164 36.3635 52.6621 36.6672 52.021C37.0046 51.2618 36.7009 50.3169 35.8911 49.7264C35.4524 49.4059 34.98 49.1697 34.5751 48.8322C34.4232 48.6973 34.3389 48.3936 34.3557 48.1742C34.3557 48.0561 34.6257 47.8368 34.7607 47.8368C34.98 47.8537 35.3343 47.9887 35.3849 48.1405C35.5874 48.9335 36.1273 48.7141 36.7009 48.6635ZM40.9526 47.9718C40.5477 49.659 38.9617 50.7894 39.1473 52.6284C40.3115 52.6284 41.3912 52.6284 42.4879 52.6284C42.4879 52.3247 42.4879 52.0716 42.4879 51.7342C41.8637 51.7342 41.2563 51.7342 40.6151 51.7342C41.0876 50.0639 42.471 48.8829 42.4879 47.0945C41.3406 47.0945 40.2608 47.0945 39.1811 47.0945C39.1811 47.415 39.1811 47.6512 39.1811 47.9887C39.7884 47.9718 40.3621 47.9718 40.9526 47.9718ZM37.3252 47.0438C37.3252 48.9335 37.3252 50.7725 37.3252 52.6115C37.7301 52.6115 38.0675 52.6115 38.4218 52.6115C38.4218 50.7219 38.4218 48.8829 38.4218 47.0438C38.0169 47.0438 37.6963 47.0438 37.3252 47.0438Z" fill="#797979"/>
<path d="M34.2891 27.1352C35.74 27.1352 37.0729 27.1352 38.5239 27.1352C38.5239 32.0786 38.5239 36.9882 38.5239 42.0497C40.0423 42.0497 41.4595 42.0497 42.8768 42.0497C43.5854 42.0497 44.2771 42.016 44.9857 42.0666C45.1882 42.0835 45.5256 42.3366 45.5256 42.4884C45.5762 43.5513 45.5425 44.5974 45.5425 45.7109C41.7295 45.7109 38.0346 45.7109 34.2891 45.7109C34.2891 39.519 34.2891 33.3608 34.2891 27.1352Z" fill="#797979"/>
<path d="M44.1229 49.9457C44.2916 50.7049 43.718 51.5823 44.7303 51.8353C45.0003 51.9028 45.4052 51.4473 45.7595 51.2279C45.7257 51.1436 45.6751 51.0592 45.6414 50.9749C45.9957 50.9749 46.3331 50.9749 46.6874 50.9749C46.7887 52.0547 46.3331 52.6283 45.3039 52.8139C44.1061 53.0163 43.0938 52.5439 42.9925 51.5654C42.8744 50.435 42.8913 49.2708 42.9925 48.1236C43.06 47.2631 43.7686 46.8582 44.7978 46.8413C45.8776 46.8244 46.5018 47.2462 46.7043 48.1236C46.7212 48.2079 46.738 48.2923 46.7549 48.3766C46.9742 49.8445 46.8899 49.9457 45.4052 49.9457C45.034 49.9457 44.646 49.9457 44.1229 49.9457ZM45.7595 49.0178C45.5233 48.5285 45.4221 48.1573 45.1858 47.9211C45.0509 47.803 44.5616 47.8199 44.4435 47.9717C44.241 48.2248 44.1904 48.6128 44.0554 49.0346C44.6628 49.0178 45.0677 49.0178 45.7595 49.0178Z" fill="#797979"/>
<path d="M36.7033 48.6633C36.1296 48.7139 35.5897 48.9332 35.3704 48.1571C35.3198 48.0053 34.9824 47.8703 34.7461 47.8534C34.6112 47.8366 34.3412 48.0559 34.3412 48.1909C34.3244 48.4102 34.4087 48.7139 34.5606 48.8489C34.9655 49.1863 35.4548 49.4394 35.8766 49.7431C36.6864 50.3336 36.9901 51.2784 36.6526 52.0376C36.3658 52.6787 35.3029 53.0499 34.3412 52.8137C33.4302 52.5944 33.0421 52.0545 33.059 50.9747C33.3795 50.9747 33.7001 50.9747 34.0713 50.9747C34.0544 50.9747 34.105 50.9916 34.1388 51.0422C34.375 51.329 34.5943 51.6496 34.8811 51.8858C34.9486 51.9364 35.4548 51.599 35.4379 51.5652C35.3029 51.2109 35.1511 50.8229 34.898 50.5529C34.6618 50.2998 34.2906 50.148 33.9869 49.9455C33.1265 49.3888 32.8059 48.6464 33.0927 47.8872C33.4133 47.0773 34.105 46.8918 34.8811 46.8918C35.8428 46.8918 36.4164 47.3642 36.6526 48.2584C36.7033 48.3427 36.7033 48.4439 36.7033 48.6633Z" fill="#797979"/>
<path d="M40.9535 47.9717C40.3462 47.9717 39.7725 47.9717 39.1651 47.9717C39.1651 47.6343 39.1651 47.3981 39.1651 47.0775C40.2449 47.0775 41.3079 47.0775 42.472 47.0775C42.472 48.8659 41.0716 50.047 40.5992 51.7173C41.2404 51.7173 41.8477 51.7173 42.472 51.7173C42.472 52.0716 42.472 52.3078 42.472 52.6115C41.3753 52.6115 40.3124 52.6115 39.1314 52.6115C38.9796 50.7893 40.5486 49.6589 40.9535 47.9717Z" fill="#797979"/>
<path d="M37.3262 47.0441C37.6973 47.0441 38.0179 47.0441 38.4228 47.0441C38.4228 48.8831 38.4228 50.7221 38.4228 52.6118C38.0854 52.6118 37.7311 52.6118 37.3262 52.6118C37.3262 50.7727 37.3262 48.9337 37.3262 47.0441Z" fill="#797979"/>
<path opacity="0.3" d="M45.7633 49.0176C45.0716 49.0176 44.6667 49.0176 44.0762 49.0176C44.2111 48.5958 44.2618 48.2246 44.4642 47.9547C44.5823 47.8197 45.0716 47.786 45.2066 47.9041C45.4259 48.1571 45.5271 48.5283 45.7633 49.0176Z" fill="#797979"/>
</svg>
