<svg width="80" height="80" viewBox="0 0 80 80" fill="none" xmlns="http://www.w3.org/2000/svg">
<rect width="80" height="80" rx="16" fill="#E4E4E4"/>
<path d="M39.9424 16C53.1874 15.9831 63.9184 26.6973 63.9522 39.9592C63.9859 53.1537 53.2886 63.969 40.2123 63.9859C26.7648 64.0028 16.0169 53.4068 16 40.0942C15.9831 26.7648 26.6467 16.0169 39.9424 16ZM49.7454 58.2492C58.3336 53.9298 62.8217 43.3506 59.7003 33.632C56.8319 24.7569 48.3618 18.9359 38.8794 19.3239C29.8187 19.6951 21.8717 26.3092 19.7458 35.3024C17.4511 45.021 22.5466 54.5203 30.1731 58.2323C30.2237 57.6249 30.2912 57.0512 30.3418 56.4607C30.9323 57.1525 30.2912 58.1142 31.0842 58.8566C31.2023 58.3842 31.2529 58.0805 31.3204 57.7936C31.371 57.7936 31.4217 57.8105 31.4723 57.8105C31.5904 58.2661 31.7254 58.7216 31.8435 59.1772C31.9278 59.1603 32.0122 59.1266 32.0966 59.1097C32.1472 58.6879 32.2147 58.2492 32.2822 57.7262C32.8558 58.3167 32.0966 59.1941 33.0246 59.599C33.0752 58.941 33.1258 58.3673 33.1933 57.5743C33.8007 58.4011 33.1258 59.3291 33.9863 59.9871C34.0369 59.1435 34.0875 58.4854 34.1213 57.8274C34.695 58.5192 34.0538 59.4809 34.7118 60.1052C34.8299 60.0883 34.948 60.0883 35.0493 60.0715C35.0493 58.4179 35.0493 56.7813 35.0493 55.1278C35.1505 55.1278 35.2686 55.1278 35.3699 55.1446C35.3699 55.4146 35.3699 55.6846 35.3699 55.9545C35.3699 57.1862 35.353 58.4348 35.3867 59.6665C35.3867 59.9027 35.5386 60.1221 35.6229 60.3583C35.7411 60.3414 35.8592 60.3077 35.9773 60.2908C35.9773 59.464 35.9773 58.6373 35.9773 57.7936C36.0785 57.7936 36.1797 57.7936 36.281 57.7936C36.3316 58.7048 36.3991 59.599 36.4497 60.5101C36.5847 60.5101 36.7028 60.5101 36.8378 60.4933C36.8884 59.599 36.9221 58.7048 36.9728 57.8105C37.5464 58.6879 36.9221 59.7846 37.5296 60.6114C37.6477 60.6114 37.7489 60.5945 37.867 60.5945C37.867 59.6665 37.867 58.7385 37.867 57.7936C37.9851 57.7936 38.1201 57.7936 38.2382 57.7936C38.2382 58.2998 38.2382 58.806 38.2382 59.3122C38.2382 60.4764 38.2382 60.4764 38.8288 60.6789C38.8288 59.6834 38.8288 58.7385 38.8288 57.7936C38.9469 57.7936 39.0818 57.7936 39.2 57.7936C39.2 58.7723 39.2 59.7509 39.2 60.7295C39.3349 60.7295 39.4699 60.7295 39.6049 60.7464C40.0098 59.3628 39.5374 57.878 39.9592 56.4776C40.0773 56.7307 40.128 56.9838 40.128 57.2368C40.128 58.1986 40.1111 59.1435 40.1448 60.1052C40.1448 60.3245 40.2967 60.5439 40.3642 60.7801C40.4823 60.7632 40.6173 60.7295 40.7354 60.7126C40.7354 59.7509 40.7354 58.7723 40.7354 57.8105C40.8535 57.8105 40.9885 57.8105 41.1066 57.8105C41.1066 58.7723 41.1066 59.7171 41.1066 60.6789C41.2247 60.6789 41.3428 60.6957 41.444 60.6957C41.9671 59.8184 41.3765 58.7048 42.0008 57.7936C42.0514 58.7385 42.0852 59.6834 42.1358 60.6283C42.2539 60.6283 42.3889 60.6283 42.507 60.6283C42.5576 59.7003 42.6251 58.7554 42.6757 57.8274C42.7601 57.8274 42.8445 57.8274 42.9288 57.8274C42.9626 58.7216 43.0132 59.6159 43.0469 60.5101C43.1819 60.5101 43.3169 60.5101 43.4519 60.5101C43.5025 59.599 43.5531 58.7048 43.6037 57.7936C43.7218 57.7936 43.8399 57.8105 43.9581 57.8105C43.9581 58.6373 43.9581 59.464 43.9581 60.2908C44.0762 60.3077 44.1774 60.3245 44.2955 60.3414C44.363 60.1052 44.498 59.8521 44.498 59.6159C44.5149 58.2998 44.5149 56.9669 44.5149 55.6508C44.5149 55.4652 44.5823 55.2796 44.5992 55.094C44.7004 55.094 44.8017 55.1109 44.8861 55.1109C44.8861 56.7644 44.8861 58.4011 44.8861 60.0546C44.9873 60.0715 45.0885 60.0715 45.1898 60.0883C45.8478 59.4809 45.1391 58.4686 45.7634 57.6418C45.8141 58.4854 45.8647 59.1435 45.8984 59.8015C46.0165 59.8015 46.1346 59.8184 46.2527 59.8184C46.3202 59.1435 46.4046 58.4686 46.4721 57.7768C46.5564 57.7768 46.6408 57.7768 46.7252 57.7768C46.7589 58.3336 46.8095 58.9072 46.8433 59.464C46.9614 59.4809 47.0626 59.4809 47.1807 59.4978C47.2651 58.941 47.3495 58.3842 47.4338 57.8105C47.5013 57.8105 47.5519 57.8105 47.6194 57.7936C47.6869 58.2323 47.7544 58.6542 47.8219 59.0928C47.9063 59.1097 47.9906 59.1266 48.075 59.1435C48.21 58.6879 48.3281 58.2323 48.4631 57.7768C48.5137 57.7936 48.5474 57.7936 48.598 57.8105C48.6655 58.0974 48.7162 58.3673 48.8005 58.7723C49.6779 58.0974 48.868 57.0681 49.5935 56.2582C49.6779 57.0344 49.7116 57.608 49.7454 58.2492Z" fill="#797979"/>
<path opacity="0.3" d="M49.7461 58.2496C49.7124 57.6084 49.6786 57.0348 49.6449 56.2755C48.9194 57.0854 49.7293 58.1315 48.8519 58.7895C48.7675 58.4015 48.7 58.1146 48.6494 57.8278C48.5988 57.8109 48.565 57.8109 48.5144 57.794C48.3794 58.2496 48.2613 58.7052 48.1264 59.1607C48.042 59.1439 47.9576 59.127 47.8733 59.1101C47.8058 58.6714 47.7383 58.2496 47.6708 57.8109C47.6033 57.8109 47.5527 57.8109 47.4852 57.8278C47.4008 58.3846 47.3165 58.9414 47.2321 59.5151C47.114 59.4982 47.0127 59.4982 46.8946 59.4813C46.8609 58.9245 46.8103 58.3508 46.7765 57.794C46.6922 57.794 46.6078 57.794 46.5234 57.794C46.456 58.4689 46.3716 59.1439 46.3041 59.8356C46.186 59.8356 46.0679 59.8188 45.9498 59.8188C45.8992 59.1607 45.8654 58.5027 45.8148 57.6591C45.1905 58.4858 45.8992 59.4982 45.2411 60.1056C45.1399 60.0887 45.0386 60.0887 44.9374 60.0719C44.9374 58.4183 44.9374 56.7817 44.9374 55.1282C44.8362 55.1282 44.7349 55.1113 44.6506 55.1113C44.6168 55.2969 44.5662 55.4825 44.5662 55.6681C44.5493 56.9842 44.5662 58.3171 44.5493 59.6332C44.5493 59.8694 44.4144 60.1225 44.3469 60.3587C44.2288 60.3418 44.1275 60.3249 44.0094 60.3081C44.0094 59.4813 44.0094 58.6545 44.0094 57.8278C43.8913 57.8278 43.7732 57.8109 43.6551 57.8109C43.6045 58.722 43.5539 59.6163 43.5032 60.5274C43.3683 60.5274 43.2333 60.5274 43.0983 60.5274C43.0645 59.6332 43.0139 58.7389 42.9802 57.8447C42.8958 57.8447 42.8115 57.8447 42.7271 57.8447C42.6765 58.7727 42.609 59.7175 42.5584 60.6455C42.4403 60.6455 42.3053 60.6455 42.1872 60.6455C42.1365 59.7007 42.1028 58.7558 42.0522 57.8109C41.411 58.722 42.0184 59.8188 41.4954 60.713C41.3773 60.713 41.2592 60.6961 41.1579 60.6961C41.1579 59.7344 41.1579 58.7895 41.1579 57.8278C41.0398 57.8278 40.9048 57.8278 40.7867 57.8278C40.7867 58.7895 40.7867 59.7681 40.7867 60.7299C40.6686 60.7468 40.5336 60.7805 40.4155 60.7974C40.3312 60.578 40.1962 60.3587 40.1962 60.1225C40.1624 59.1607 40.1962 58.2159 40.1793 57.2541C40.1793 57.001 40.1287 56.7479 40.0106 56.4948C39.6056 57.8953 40.0612 59.3801 39.6563 60.7636C39.5213 60.7636 39.3863 60.7636 39.2513 60.7468C39.2513 59.7681 39.2513 58.7895 39.2513 57.8109C39.1332 57.8109 38.9982 57.8109 38.8801 57.8109C38.8801 58.7558 38.8801 59.7007 38.8801 60.6961C38.2896 60.5105 38.2896 60.5105 38.2896 59.3295C38.2896 58.8233 38.2896 58.3171 38.2896 57.8109C38.1715 57.8109 38.0365 57.8109 37.9184 57.8109C37.9184 58.7389 37.9184 59.6669 37.9184 60.6118C37.8003 60.6118 37.699 60.6287 37.5809 60.6287C36.9735 59.8019 37.5978 58.7052 37.0241 57.8278C36.9735 58.722 36.9398 59.6163 36.8891 60.5105C36.7542 60.5105 36.6361 60.5105 36.5011 60.5274C36.4505 59.6163 36.383 58.722 36.3323 57.8109C36.2311 57.8109 36.1299 57.8109 36.0286 57.8109C36.0286 58.6377 36.0286 59.4644 36.0286 60.3081C35.9105 60.3249 35.7924 60.3587 35.6743 60.3756C35.5899 60.1393 35.4381 59.92 35.4381 59.6838C35.4212 58.4521 35.4212 57.2035 35.4212 55.9718C35.4212 55.7018 35.4212 55.4319 35.4212 55.1619C35.32 55.1619 35.2019 55.1619 35.1006 55.145C35.1006 56.7986 35.1006 58.4352 35.1006 60.0887C34.9825 60.1056 34.8644 60.1056 34.7632 60.1225C34.1052 59.4982 34.7463 58.5364 34.1726 57.8447C34.122 58.5027 34.0883 59.1607 34.0377 60.0044C33.1772 59.3463 33.8521 58.4183 33.2446 57.5916C33.1772 58.3846 33.1265 58.9583 33.0759 59.6163C32.1479 59.2113 32.9072 58.3171 32.3335 57.7434C32.266 58.2665 32.1985 58.7052 32.1479 59.127C32.0636 59.1439 31.9792 59.1776 31.8948 59.1945C31.7767 58.7389 31.6417 58.2833 31.5236 57.8278C31.473 57.8278 31.4224 57.8109 31.3718 57.8109C31.3043 58.0977 31.2368 58.4015 31.1356 58.8739C30.3425 58.1315 30.9837 57.1697 30.3932 56.478C30.3425 57.0685 30.2751 57.6422 30.2244 58.2496C22.6149 54.5376 17.5024 45.0383 19.7971 35.3196C21.9231 26.3265 29.8701 19.7124 38.9307 19.3412C48.3626 18.9363 56.8327 24.7405 59.701 33.6324C62.8225 43.351 58.3343 53.9302 49.7461 58.2496ZM48.9362 29.043C46.6753 29.043 44.4818 29.0261 42.2884 29.0599C42.1365 29.0599 41.8835 29.3804 41.8328 29.5998C41.5797 30.6965 41.3773 31.7932 41.1579 32.9068C40.8036 34.6785 40.4493 36.4332 40.1118 38.2049C39.8756 37.9686 39.8081 37.7324 39.7575 37.4793C39.2176 34.8978 38.6776 32.3163 38.1546 29.7179C38.0534 29.178 37.834 28.9755 37.2772 28.9924C35.455 29.0261 33.6158 29.0261 31.7936 28.9924C31.0849 28.9755 30.8993 29.2117 30.8993 29.9035C30.9162 35.1678 30.8993 40.4152 30.8993 45.6795C30.8993 45.9832 30.8993 46.2869 30.8993 46.6075C32.3166 46.6075 33.6496 46.6075 35.05 46.6075C35.05 41.495 35.05 36.4501 35.05 31.422C35.1006 31.422 35.1513 31.4052 35.2188 31.4052C36.2986 36.4838 37.3784 41.5794 38.4583 46.6918C39.0151 46.6918 39.4707 46.6412 39.9094 46.7087C40.6855 46.8268 40.9555 46.4725 41.1242 45.7469C42.0522 41.8325 43.0308 37.9518 44.0094 34.0542C44.2288 33.1599 44.4819 32.2488 44.7181 31.3546C44.7856 31.3714 44.8531 31.3714 44.9205 31.3883C44.9205 36.467 44.9205 41.5288 44.9205 46.6412C46.321 46.6412 47.6202 46.6412 48.9362 46.6412C48.9362 40.7358 48.9362 34.9484 48.9362 29.043ZM45.528 51.6861C45.5448 51.7536 45.5448 51.8211 45.5617 51.9055C45.2074 52.1079 44.7856 52.5635 44.5156 52.4791C43.5876 52.1923 44.0938 51.3824 44.0094 50.6738C44.465 50.6738 44.853 50.6738 45.2411 50.6738C45.6461 50.6738 46.051 50.6738 46.4897 50.6738C46.4897 50.0832 46.5234 49.6277 46.4728 49.189C46.3547 48.2104 45.6967 47.7379 44.5325 47.7885C43.4695 47.8392 42.8958 48.3116 42.8621 49.2733C42.8283 50.1507 42.8283 51.0112 42.8621 51.8886C42.9127 52.9685 43.5876 53.4578 44.853 53.3903C45.9666 53.3397 46.456 52.8166 46.4391 51.6693C46.1185 51.6861 45.8148 51.6861 45.528 51.6861ZM36.8891 49.4927C36.8385 48.4297 36.4505 47.9573 35.6068 47.8223C34.6451 47.6704 33.8521 47.991 33.5821 48.649C33.2953 49.3746 33.5821 50.1001 34.392 50.64C34.7632 50.8931 35.185 51.0956 35.5056 51.3993C35.6912 51.5849 35.7587 51.9223 35.7587 52.1923C35.7587 52.2935 35.3875 52.5298 35.2525 52.496C35.0163 52.4454 34.7969 52.2261 34.6282 52.0405C34.527 51.9392 34.5438 51.7367 34.4932 51.6186C34.122 51.6186 33.8183 51.6186 33.5315 51.6186C33.464 52.5635 33.8014 53.1034 34.5438 53.3397C35.4718 53.6265 36.5686 53.3228 36.8891 52.6816C37.2266 52.0067 36.9904 51.1125 36.2986 50.5725C35.8768 50.252 35.3875 49.9989 34.9825 49.6614C34.8138 49.5264 34.7294 49.2396 34.7126 49.0202C34.7126 48.9021 34.9825 48.6659 35.1006 48.6828C35.32 48.7165 35.5393 48.8515 35.7081 49.0202C35.8093 49.1215 35.8262 49.3071 35.8937 49.4758C36.2311 49.4927 36.5348 49.4927 36.8891 49.4927ZM42.4234 52.361C41.7822 52.361 41.2254 52.361 40.6349 52.361C41.0061 50.7919 42.4403 49.6952 42.3221 47.9573C41.2592 47.9573 40.2974 47.9573 39.2682 47.9573C39.2682 48.2441 39.2682 48.4803 39.2682 48.7672C39.8419 48.8009 40.3818 48.8178 40.9555 48.8515C40.5336 50.4207 39.1163 51.5005 39.2344 53.2047C40.348 53.2047 41.3773 53.2047 42.4234 53.2047C42.4234 52.9178 42.4234 52.6985 42.4234 52.361ZM38.5595 53.2047C38.5595 51.433 38.5595 49.6952 38.5595 47.8898C38.1546 47.9067 37.8509 47.9235 37.4797 47.9404C37.4797 49.6108 37.4797 51.18 37.4797 52.7491C37.4797 52.8841 37.5134 53.0191 37.5303 53.2047C37.8846 53.2047 38.2052 53.2047 38.5595 53.2047Z" fill="#797979"/>
<path d="M48.9373 29.0429C48.9373 34.9315 48.9373 40.7357 48.9373 46.6074C47.6212 46.6074 46.322 46.6074 44.9216 46.6074C44.9216 41.495 44.9216 36.4332 44.9216 31.3545C44.8541 31.3376 44.7866 31.3376 44.7191 31.3207C44.4829 32.215 44.2467 33.1261 44.0105 34.0204C43.0487 37.918 42.0532 41.8155 41.1252 45.7131C40.9565 46.4387 40.6865 46.793 39.9104 46.6749C39.4717 46.6074 39.0161 46.658 38.4593 46.658C37.3795 41.5456 36.2997 36.45 35.2198 31.3714C35.1692 31.3714 35.1186 31.3882 35.0511 31.3882C35.0511 36.4163 35.0511 41.4612 35.0511 46.5736C33.6506 46.5736 32.3346 46.5736 30.9004 46.5736C30.9004 46.2531 30.9004 45.9493 30.9004 45.6456C30.9004 40.3814 30.9173 35.134 30.9004 29.8697C30.9004 29.1779 31.086 28.9417 31.7946 28.9586C33.6169 29.0092 35.456 28.9923 37.2783 28.9586C37.8351 28.9417 38.0544 29.1442 38.1556 29.6841C38.6618 32.2656 39.2186 34.864 39.7585 37.4455C39.8092 37.6817 39.8767 37.918 40.1129 38.171C40.4672 36.3994 40.8215 34.6447 41.159 32.873C41.3783 31.7763 41.5808 30.6627 41.8339 29.566C41.8845 29.3466 42.1376 29.0261 42.2894 29.0261C44.4829 29.0261 46.6763 29.0429 48.9373 29.0429Z" fill="#797979"/>
<path d="M45.5264 51.6857C45.8301 51.6857 46.1338 51.6857 46.4207 51.6857C46.4544 52.833 45.9651 53.3561 44.8347 53.4067C43.5692 53.4742 42.8943 52.968 42.8437 51.905C42.8099 51.0276 42.8099 50.1671 42.8437 49.2897C42.8943 48.3111 43.4511 47.8387 44.5141 47.8049C45.6783 47.7543 46.3532 48.2268 46.4544 49.2054C46.505 49.6441 46.4713 50.0996 46.4713 50.6902C46.0495 50.6902 45.6277 50.6902 45.2227 50.6902C44.8347 50.6902 44.4466 50.6902 43.991 50.6902C44.0754 51.3988 43.5692 52.1918 44.4972 52.4956C44.7672 52.5799 45.189 52.1244 45.5433 51.9219C45.5433 51.8206 45.5264 51.7532 45.5264 51.6857ZM45.5096 49.8465C45.2902 49.3741 45.189 49.0198 44.9696 48.7667C44.8684 48.6486 44.3791 48.6823 44.2947 48.8004C44.1091 49.0704 44.0585 49.4416 43.9235 49.8465C44.4803 49.8465 44.8347 49.8465 45.5096 49.8465Z" fill="#797979"/>
<path d="M36.89 49.4926C36.5188 49.4926 36.2151 49.4926 35.8945 49.4926C35.8439 49.3407 35.827 49.1383 35.7089 49.037C35.5402 48.8852 35.3209 48.7333 35.1015 48.6996C34.9834 48.6827 34.7134 48.9189 34.7134 49.037C34.7134 49.2564 34.8147 49.5432 34.9834 49.6782C35.3884 50.0156 35.8777 50.2518 36.2995 50.5893C36.9913 51.1292 37.2275 52.0066 36.89 52.6984C36.5863 53.3395 35.4896 53.6433 34.5447 53.3564C33.8023 53.1202 33.4649 52.5803 33.5324 51.6354C33.8361 51.6354 34.1229 51.6354 34.4941 51.6354C34.5278 51.7704 34.5278 51.956 34.6291 52.0572C34.7978 52.2428 35.0171 52.4622 35.2534 52.5128C35.4052 52.5465 35.7595 52.3272 35.7595 52.2091C35.7595 51.9391 35.6752 51.5848 35.5065 51.4161C35.1859 51.1124 34.7641 50.9099 34.3929 50.6568C33.583 50.1169 33.2961 49.3913 33.583 48.6658C33.8529 48.0078 34.646 47.6872 35.6077 47.8391C36.4513 47.9572 36.8394 48.4296 36.89 49.4926Z" fill="#797979"/>
<path d="M42.4204 52.3606C42.4204 52.7149 42.4204 52.9174 42.4204 53.2042C41.3743 53.2042 40.3451 53.2042 39.2315 53.2042C39.1134 51.5001 40.5476 50.4202 40.9525 48.8511C40.3957 48.8173 39.8389 48.8004 39.2652 48.7667C39.2652 48.4799 39.2652 48.2436 39.2652 47.9568C40.2776 47.9568 41.2562 47.9568 42.3192 47.9568C42.4373 49.6947 41.0031 50.7914 40.6319 52.3606C41.2393 52.3606 41.7793 52.3606 42.4204 52.3606Z" fill="#797979"/>
<path d="M38.5564 53.2041C38.2021 53.2041 37.8815 53.2041 37.5272 53.2041C37.5103 53.0185 37.4766 52.8835 37.4766 52.7485C37.4766 51.1793 37.4766 49.6102 37.4766 47.9398C37.8478 47.9229 38.1683 47.906 38.5564 47.8892C38.5564 49.6946 38.5564 51.4493 38.5564 53.2041Z" fill="#797979"/>
<path opacity="0.3" d="M45.5118 49.8465C44.8538 49.8465 44.4826 49.8465 43.9258 49.8465C44.0608 49.4415 44.1114 49.0703 44.297 48.8004C44.3813 48.6823 44.8707 48.6485 44.9719 48.7666C45.1912 49.0028 45.2756 49.374 45.5118 49.8465Z" fill="#797979"/>
</svg>
