<svg width="80" height="80" viewBox="0 0 80 80" fill="none" xmlns="http://www.w3.org/2000/svg">
<rect width="80" height="80" rx="16" fill="#E4E4E4"/>
<g clip-path="url(#clip0_1326_169)">
<path d="M23.6727 46.7098C23.6727 46.2664 23.6727 45.9425 23.6727 45.6014C23.6727 41.3726 23.6727 37.1268 23.6727 32.898C23.6727 31.6021 23.9114 31.3634 25.2243 31.3634C27.2364 31.3634 29.2485 31.3634 31.3458 31.3634C31.3458 30.9712 31.3458 30.6643 31.3458 30.3574C31.3458 26.0945 31.3458 21.8316 31.3458 17.5687C31.3458 16.2558 31.5846 16 32.8805 16C37.6208 16 42.3782 16 47.1185 16C48.4144 16 48.6361 16.2387 48.6361 17.5687C48.6361 21.8316 48.6361 26.0945 48.6361 30.3574C48.6361 30.6643 48.6361 30.9712 48.6361 31.3464C50.6652 31.3464 52.592 31.3464 54.5188 31.3464C56.1728 31.3464 56.3092 31.4828 56.3092 33.1538C56.3092 37.2973 56.3092 41.4579 56.3092 45.6014C56.3092 45.9425 56.3092 46.2664 56.3092 46.6927C56.7867 46.6927 57.1618 46.6586 57.554 46.6927C59.6002 46.8632 61.6805 46.3005 63.6925 46.9996C63.7949 49.0458 63.9313 51.1091 63.9654 53.1552C64.0165 56.2586 63.9824 59.362 63.9824 62.4483C63.9824 63.6931 63.7096 63.9659 62.4989 63.9659C47.5107 63.9659 32.5394 63.9659 17.5512 63.9659C16.2552 63.9659 15.9824 63.7101 15.9824 62.4483C15.9824 57.708 15.9824 52.9506 15.9824 48.2103C15.9824 46.9485 16.2211 46.6927 17.4659 46.6927C19.495 46.7098 21.5242 46.7098 23.6727 46.7098ZM41.0311 33.3243C41.0311 37.8259 41.0311 42.2423 41.0311 46.6586C45.4986 46.6586 49.8808 46.6586 54.3142 46.6586C54.3142 42.1911 54.3142 37.7748 54.3142 33.3414C53.3593 33.3414 52.4727 33.3414 51.5007 33.3414C51.5007 35.1829 51.5348 36.9734 51.4666 38.7467C51.4496 39.156 51.1597 39.7187 50.8357 39.8721C50.5629 40.0085 49.9661 39.7528 49.6762 39.4799C48.9941 38.849 48.4144 38.1329 47.7153 37.3485C46.8798 38.2181 46.2489 38.9513 45.5327 39.5993C45.2769 39.821 44.7483 39.9915 44.4925 39.8721C44.1856 39.7357 43.9298 39.2583 43.8616 38.9002C43.7593 38.3204 43.8275 37.7066 43.8275 37.1098C43.8275 35.848 43.8275 34.5861 43.8275 33.3073C42.8385 33.3243 41.9689 33.3243 41.0311 33.3243ZM46.6581 48.7048C45.6862 48.7048 44.7995 48.7048 43.8275 48.7048C43.8275 50.2053 43.8616 51.6547 43.8105 53.1041C43.7764 53.8544 44.2027 54.8263 43.2307 55.2355C42.2076 55.6789 41.8325 54.6217 41.2528 54.1101C40.8094 53.735 40.4854 53.2234 40.0592 52.729C39.2577 53.5645 38.6609 54.2465 37.9789 54.8433C37.6719 55.0991 37.0751 55.3549 36.8194 55.2185C36.4954 55.048 36.2226 54.4853 36.1885 54.076C36.1032 52.9506 36.1544 51.8082 36.1544 50.6657C36.1544 50.0007 36.1544 49.3357 36.1544 48.6707C35.1313 48.6707 34.2616 48.6707 33.3409 48.6707C33.3409 53.1211 33.3409 57.5375 33.3409 61.9879C37.7913 61.9879 42.2076 61.9879 46.6581 61.9879C46.6581 57.5716 46.6581 53.1723 46.6581 48.7048ZM17.9945 62.005C22.462 62.005 26.8783 62.005 31.2776 62.005C31.2776 57.5204 31.2776 53.1041 31.2776 48.6877C30.3227 48.6877 29.4531 48.6877 28.4812 48.6877C28.4812 48.9947 28.4812 49.2675 28.4812 49.5574C28.4812 51.092 28.5153 52.6266 28.4471 54.1613C28.43 54.5535 28.1572 55.1162 27.8503 55.2355C27.5433 55.3549 26.9636 55.1503 26.6737 54.8945C25.9746 54.2806 25.3608 53.5645 24.6616 52.8313C23.9796 53.5304 23.3828 54.1272 22.786 54.741C22.4108 55.1332 22.0187 55.5595 21.3878 55.3037C20.7568 55.048 20.7739 54.4853 20.7739 53.9396C20.7739 52.2174 20.7739 50.4782 20.7739 48.7389C19.7849 48.7389 18.8982 48.7389 17.9433 48.7389C17.9945 53.1382 17.9945 57.5375 17.9945 62.005ZM48.6872 62.022C53.1888 62.022 57.5711 62.022 62.0044 62.022C62.0044 57.5545 62.0044 53.1382 62.0044 48.7048C61.0496 48.7048 60.1629 48.7048 59.1909 48.7048C59.1909 50.5464 59.2251 52.3197 59.1568 54.1101C59.1398 54.5194 58.8499 55.0821 58.5259 55.2355C58.2531 55.3719 57.6563 55.1162 57.3664 54.8604C56.6844 54.2465 56.0876 53.5133 55.4055 52.7631C54.587 53.6156 53.9391 54.3488 53.2229 54.9798C52.9671 55.2014 52.4385 55.389 52.1828 55.2696C51.8759 55.1332 51.6201 54.6728 51.5519 54.2977C51.4496 53.8032 51.5178 53.2746 51.5178 52.7631C51.5178 51.416 51.5178 50.0519 51.5178 48.7218C50.4947 48.7218 49.608 48.7218 48.6872 48.7218C48.6872 53.1552 48.6872 57.5545 48.6872 62.022ZM43.8275 17.9609C43.8275 19.8025 43.8616 21.5758 43.7934 23.3321C43.7764 23.7414 43.5206 24.3552 43.2137 24.4917C42.9068 24.6281 42.2929 24.3723 41.986 24.1165C41.2869 23.5197 40.6901 22.8036 39.9909 22.0874C39.2066 22.9059 38.5586 23.6391 37.8425 24.27C37.5867 24.4917 37.0751 24.6281 36.7853 24.5258C36.4954 24.4064 36.3078 23.9631 36.1714 23.622C36.0691 23.3492 36.1373 23.0082 36.1373 22.6842C36.1373 21.1325 36.1373 19.5808 36.1373 17.978C35.1313 17.978 34.2446 17.978 33.3238 17.978C33.3238 22.4455 33.3238 26.8618 33.3238 31.2952C37.7913 31.2952 42.2076 31.2952 46.624 31.2952C46.624 26.8277 46.624 22.4114 46.624 17.9609C45.7032 17.9609 44.8336 17.9609 43.8275 17.9609ZM32.3348 38.3716C31.5163 39.2242 30.8513 39.9744 30.1181 40.6224C29.8965 40.827 29.3849 40.9634 29.1462 40.844C28.8563 40.7076 28.5664 40.2984 28.5153 39.9574C28.413 39.3776 28.4812 38.7638 28.4812 38.167C28.4812 36.5641 28.4812 34.9442 28.4812 33.3243C27.4751 33.3243 26.5885 33.3243 25.6677 33.3243C25.6677 37.7918 25.6677 42.2082 25.6677 46.6416C30.1352 46.6416 34.5515 46.6416 38.9508 46.6416C38.9508 42.157 38.9508 37.7577 38.9508 33.3243C37.9959 33.3243 37.0922 33.3243 36.1544 33.3243C36.1544 35.4558 36.1885 37.519 36.1203 39.5822C36.1032 40.0085 35.8304 40.6053 35.4893 40.7929C35.2336 40.9293 34.6027 40.6394 34.2787 40.3666C33.6307 39.821 33.068 39.1389 32.3348 38.3716ZM30.4592 37.3996C31.0901 36.9904 31.7039 36.2742 32.3178 36.2742C32.9316 36.2742 33.5455 36.9904 34.1423 37.3996C34.1423 36.0526 34.1423 34.7055 34.1423 33.3584C32.8634 33.3584 31.6698 33.3584 30.4421 33.3584C30.4592 34.7567 30.4592 36.1037 30.4592 37.3996ZM38.1323 21.0813C38.8144 20.6551 39.4453 19.9389 40.0592 19.956C40.656 19.956 41.2528 20.7062 41.8496 21.1155C41.8496 20.0583 41.8496 19.0352 41.8496 17.978C40.5878 17.978 39.3771 17.978 38.1323 17.978C38.1323 19.0522 38.1323 20.0753 38.1323 21.0813ZM49.5568 33.3414C48.2609 33.3414 47.0673 33.3414 45.8567 33.3414C45.8567 34.4327 45.8567 35.4728 45.8567 36.4107C46.5046 36.0014 47.1185 35.2853 47.7494 35.3023C48.3462 35.3023 48.943 36.0526 49.5739 36.4959C49.5568 35.4387 49.5568 34.4327 49.5568 33.3414ZM22.786 48.6707C22.786 49.779 22.786 50.8021 22.786 51.7911C23.4169 51.3648 24.0478 50.6487 24.6446 50.6487C25.2584 50.6487 25.8552 51.3819 26.4691 51.7911C26.4691 50.768 26.4691 49.7279 26.4691 48.6536C25.2243 48.6707 24.0478 48.6707 22.786 48.6707ZM38.1664 48.6877C38.1664 49.779 38.1664 50.8192 38.1664 51.7741C38.7973 51.3648 39.4282 50.6487 40.0592 50.6487C40.656 50.6487 41.2528 51.3989 41.8496 51.8252C41.8496 50.7851 41.8496 49.7449 41.8496 48.6877C40.5878 48.6877 39.3771 48.6877 38.1664 48.6877ZM53.4616 51.8252C54.1437 51.3819 54.7576 50.6487 55.3714 50.6487C55.9853 50.6487 56.5821 51.3819 57.213 51.8252C57.213 50.7851 57.213 49.762 57.213 48.7048C55.9341 48.7048 54.7234 48.7048 53.4616 48.7048C53.4616 49.779 53.4616 50.8021 53.4616 51.8252Z" fill="#797979"/>
<path opacity="0.3" d="M41.0312 33.3243C41.952 33.3243 42.8387 33.3243 43.8277 33.3243C43.8277 34.6032 43.8277 35.865 43.8277 37.1268C43.8277 37.7236 43.7595 38.3375 43.8618 38.9172C43.93 39.2753 44.1858 39.7528 44.4927 39.8892C44.7485 40.0085 45.2941 39.838 45.5328 39.6163C46.249 38.9684 46.8799 38.2352 47.7154 37.3655C48.4146 38.1499 48.9943 38.8661 49.6764 39.497C49.9662 39.7528 50.563 40.0256 50.8359 39.8892C51.1598 39.7187 51.4668 39.156 51.4668 38.7638C51.535 36.9734 51.5009 35.2 51.5009 33.3584C52.4558 33.3584 53.3595 33.3584 54.3144 33.3584C54.3144 37.7918 54.3144 42.2082 54.3144 46.6757C49.881 46.6757 45.4987 46.6757 41.0312 46.6757C41.0313 42.2423 41.0312 37.8259 41.0312 33.3243Z" fill="#797979"/>
<path opacity="0.3" d="M46.659 48.7046C46.659 53.172 46.659 57.5543 46.659 62.0047C42.2086 62.0047 37.7922 62.0047 33.3418 62.0047C33.3418 57.5543 33.3418 53.1379 33.3418 48.6875C34.2626 48.6875 35.1322 48.6875 36.1553 48.6875C36.1553 49.3525 36.1553 50.0175 36.1553 50.6825C36.1553 51.825 36.1041 52.9674 36.1894 54.0928C36.2235 54.5021 36.4963 55.0648 36.8203 55.2353C37.0761 55.3717 37.6899 55.1159 37.9798 54.8601C38.6619 54.2804 39.2587 53.5813 40.0601 52.7458C40.4864 53.2403 40.8274 53.7518 41.2537 54.1269C41.8335 54.6214 42.2086 55.6786 43.2317 55.2523C44.1866 54.8431 43.7773 53.8541 43.8114 53.1209C43.8626 51.6715 43.8285 50.2392 43.8285 48.7216C44.8004 48.7046 45.6871 48.7046 46.659 48.7046Z" fill="#797979"/>
<path opacity="0.3" d="M17.9941 62.0051C17.9941 57.5376 17.9941 53.1384 17.9941 48.705C18.932 48.705 19.8357 48.705 20.8247 48.705C20.8247 50.4613 20.8247 52.1835 20.8247 53.9057C20.8247 54.4513 20.8076 55.014 21.4385 55.2698C22.0695 55.5256 22.4446 55.0993 22.8368 54.7071C23.4336 54.1103 24.0304 53.4964 24.7124 52.7973C25.4286 53.5476 26.0254 54.2638 26.7245 54.8606C27.0144 55.1163 27.5941 55.3209 27.9011 55.2016C28.208 55.0652 28.4808 54.5025 28.4979 54.1273C28.5661 52.5927 28.532 51.0581 28.532 49.5234C28.532 49.2506 28.532 48.9778 28.532 48.6538C29.5039 48.6538 30.3735 48.6538 31.3284 48.6538C31.3284 53.0872 31.3284 57.4865 31.3284 61.971C26.878 62.0051 22.4616 62.0051 17.9941 62.0051Z" fill="#797979"/>
<path opacity="0.3" d="M48.6875 62.0218C48.6875 57.5543 48.6875 53.172 48.6875 48.7046C49.5912 48.7046 50.495 48.7046 51.5181 48.7046C51.5181 50.0516 51.5181 51.3987 51.5181 52.7458C51.5181 53.2573 51.4328 53.7859 51.5522 54.2804C51.6374 54.6385 51.8932 55.1159 52.1831 55.2523C52.4388 55.3717 52.9674 55.1841 53.2232 54.9625C53.9394 54.3316 54.5703 53.5983 55.4058 52.7458C56.1049 53.496 56.6847 54.2292 57.3667 54.8431C57.6566 55.0989 58.2534 55.3546 58.5262 55.2182C58.8502 55.0477 59.1401 54.485 59.1571 54.0928C59.2253 52.3024 59.1912 50.5291 59.1912 48.6875C60.1632 48.6875 61.0498 48.6875 62.0047 48.6875C62.0047 53.1379 62.0047 57.5543 62.0047 62.0047C57.5713 62.0218 53.1891 62.0218 48.6875 62.0218Z" fill="#797979"/>
<path opacity="0.3" d="M43.8279 17.9609C44.834 17.9609 45.7036 17.9609 46.6244 17.9609C46.6244 22.4114 46.6244 26.8107 46.6244 31.2952C42.2081 31.2952 37.7917 31.2952 33.3242 31.2952C33.3242 26.8618 33.3242 22.4455 33.3242 17.978C34.245 17.978 35.1317 17.978 36.1377 17.978C36.1377 19.5638 36.1377 21.1325 36.1377 22.6842C36.1377 22.9911 36.0695 23.3322 36.1718 23.622C36.2912 23.9631 36.4958 24.4235 36.7857 24.5258C37.0756 24.6451 37.5871 24.4917 37.8429 24.27C38.559 23.6391 39.207 22.9059 39.9914 22.0874C40.6905 22.8036 41.2873 23.5197 41.9864 24.1165C42.3104 24.3894 42.9072 24.6281 43.2141 24.4917C43.521 24.3553 43.7938 23.7414 43.7938 23.3322C43.8791 21.5759 43.8279 19.8196 43.8279 17.9609Z" fill="#797979"/>
<path opacity="0.3" d="M32.3351 38.3715C33.0683 39.1389 33.614 39.838 34.279 40.4007C34.603 40.6735 35.2339 40.9634 35.4896 40.827C35.8307 40.6394 36.1035 40.0426 36.1205 39.6163C36.1888 37.5531 36.1546 35.4728 36.1546 33.3584C37.1095 33.3584 37.9962 33.3584 38.9511 33.3584C38.9511 37.7747 38.9511 42.1911 38.9511 46.6756C34.5518 46.6756 30.1355 46.6756 25.668 46.6756C25.668 42.2422 25.668 37.8429 25.668 33.3584C26.5888 33.3584 27.4754 33.3584 28.4815 33.3584C28.4815 34.9783 28.4815 36.5811 28.4815 38.201C28.4815 38.7978 28.4133 39.4117 28.5156 39.9914C28.5667 40.3154 28.8566 40.7417 29.1465 40.8781C29.4022 40.9975 29.8967 40.8611 30.1184 40.6564C30.8687 39.9573 31.5166 39.2241 32.3351 38.3715Z" fill="#797979"/>
<path opacity="0.3" d="M30.459 37.3996C30.459 36.0867 30.459 34.7567 30.459 33.3414C31.6696 33.3414 32.8803 33.3414 34.1592 33.3414C34.1592 34.6885 34.1592 36.0526 34.1592 37.3826C33.5453 36.9734 32.9485 36.2572 32.3347 36.2572C31.7208 36.2742 31.1069 36.9904 30.459 37.3996Z" fill="#797979"/>
<path opacity="0.3" d="M38.1328 21.0814C38.1328 20.0924 38.1328 19.0693 38.1328 17.978C39.3776 17.978 40.5882 17.978 41.85 17.978C41.85 19.0182 41.85 20.0583 41.85 21.1155C41.2532 20.7063 40.6735 19.956 40.0596 19.956C39.4458 19.939 38.8149 20.6381 38.1328 21.0814Z" fill="#797979"/>
<path opacity="0.3" d="M49.5571 33.3414C49.5571 34.4327 49.5571 35.4387 49.5571 36.4789C48.9262 36.0355 48.3464 35.3023 47.7326 35.2853C47.1187 35.2853 46.4878 35.9844 45.8398 36.3936C45.8398 35.4387 45.8398 34.3986 45.8398 33.3243C47.0505 33.3414 48.2612 33.3414 49.5571 33.3414Z" fill="#797979"/>
<path opacity="0.3" d="M22.7852 48.6709C24.0299 48.6709 25.2235 48.6709 26.4683 48.6709C26.4683 49.7281 26.4683 50.7853 26.4683 51.8084C25.8544 51.3991 25.2576 50.6659 24.6438 50.6659C24.0299 50.6659 23.4161 51.3821 22.7852 51.8084C22.7852 50.8023 22.7852 49.7792 22.7852 48.6709Z" fill="#797979"/>
<path opacity="0.3" d="M38.166 48.6875C39.3767 48.6875 40.5873 48.6875 41.8491 48.6875C41.8491 49.7447 41.8491 50.7678 41.8491 51.825C41.2523 51.3987 40.6555 50.6484 40.0587 50.6484C39.4449 50.6484 38.814 51.3646 38.166 51.7738C38.166 50.8189 38.166 49.7788 38.166 48.6875Z" fill="#797979"/>
<path opacity="0.3" d="M53.4609 51.8251C53.4609 50.802 53.4609 49.7959 53.4609 48.7217C54.7057 48.7217 55.9334 48.7217 57.2123 48.7217C57.2123 49.7789 57.2123 50.802 57.2123 51.8421C56.5814 51.4158 55.9846 50.6656 55.3707 50.6656C54.7569 50.6485 54.143 51.3647 53.4609 51.8251Z" fill="#797979"/>
</g>
<defs>
<clipPath id="clip0_1326_169">
<rect width="48.0171" height="48" fill="white" transform="translate(16 16)"/>
</clipPath>
</defs>
</svg>
