<svg width="80" height="80" viewBox="0 0 80 80" fill="none" xmlns="http://www.w3.org/2000/svg">
<rect width="80" height="80" rx="16" fill="#E4E4E4"/>
<path d="M39.9423 16.0001C53.1705 15.9663 63.9184 26.6974 63.9522 39.9593C64.0028 53.1368 53.2886 63.9691 40.2123 63.986C26.7817 64.0197 16.0169 53.4068 16 40.0943C15.9831 26.7648 26.6467 16.0338 39.9423 16.0001ZM49.2898 58.4686C57.9286 54.3517 62.8723 43.8569 59.7509 33.8514C56.8656 24.622 47.7544 18.4635 38.2719 19.3409C27.7771 20.3026 20.0832 28.5702 19.2227 38.542C18.5647 46.3034 24.0314 56.2414 30.3249 58.2324C30.3755 57.7093 30.4093 57.1863 30.4599 56.6632C30.5274 56.6632 30.5949 56.6632 30.6624 56.6632C30.7467 57.3719 30.8311 58.0637 30.9155 58.7723C30.9998 58.7554 31.0842 58.7386 31.1686 58.7386C31.2529 58.4855 31.3373 58.2155 31.4891 57.7431C31.6579 58.3842 31.776 58.7892 31.8941 59.1941C31.9784 59.1772 32.0628 59.1435 32.1472 59.1266C32.1978 58.7386 32.2484 58.3674 32.299 57.9793C32.3496 57.9793 32.4171 57.9793 32.4678 57.9962C32.569 58.5023 32.6871 59.0085 32.7883 59.5316C32.8727 59.5147 32.9571 59.4978 33.0583 59.4641C33.1089 58.9748 33.1595 58.4686 33.2101 57.9793C33.7838 58.553 33.1595 59.3797 33.9863 59.9534C34.0369 59.1941 34.0875 58.6036 34.1213 57.9962C34.1888 57.9962 34.2731 57.9962 34.3406 57.9962C34.425 58.7048 34.5093 59.3966 34.5768 60.1052C34.7118 60.0884 34.8637 60.0884 34.9987 60.0715C34.9987 58.5023 34.9987 56.9501 34.9987 55.3809C35.0999 55.3809 35.2011 55.3809 35.3024 55.3809C35.3192 55.6509 35.353 55.904 35.353 56.1739C35.353 57.3213 35.3361 58.4855 35.3698 59.6328C35.3698 59.869 35.5048 60.1052 35.5723 60.3415C35.6567 60.3246 35.7579 60.3077 35.8423 60.2908C35.876 59.5316 35.9098 58.7723 35.9435 57.9962C36.5341 58.7554 35.9435 59.7509 36.5003 60.4764C36.6184 60.4596 36.7365 60.4596 36.8546 60.4427C36.8546 59.6159 36.8546 58.8061 36.8546 57.9793C36.939 57.9793 37.0234 57.9793 37.1077 57.9793C37.4114 58.8061 36.939 59.8184 37.3777 60.6114C37.4958 60.5946 37.6308 60.5777 37.7489 60.5777C37.7489 59.7172 37.7489 58.8567 37.7489 58.013C37.8333 58.013 37.9345 58.013 38.0189 57.9962C38.0863 58.8904 38.137 59.7847 38.2045 60.6958C38.3226 60.6958 38.4407 60.6789 38.5588 60.6789C38.5925 59.7847 38.6431 58.8904 38.6769 57.9793C38.795 57.9793 38.9131 57.9793 39.0312 57.9793C39.0312 58.7048 39.0143 59.4303 39.0481 60.1559C39.0481 60.3415 39.1999 60.5271 39.2674 60.7127C39.3687 60.5271 39.5543 60.3415 39.5543 60.139C39.588 59.1604 39.5711 58.1649 39.5711 57.1863C39.5711 57.0007 39.6386 56.8151 39.6893 56.6463C39.7736 56.6632 39.858 56.6632 39.9423 56.6801C39.9423 57.3719 39.9423 58.0637 39.9423 58.7554C39.9423 60.4258 39.9423 60.4258 40.4148 60.8139C40.4654 59.8184 40.516 58.9073 40.5498 57.9962C40.6847 57.9962 40.8028 58.013 40.9378 58.013C40.9378 58.9073 40.9378 59.8184 40.9378 60.7127C41.0728 60.7127 41.2078 60.7127 41.3428 60.7295C41.3934 59.8184 41.444 58.9242 41.4946 58.013C41.579 58.013 41.6465 58.013 41.7308 58.013C41.7815 58.8904 41.849 59.7847 41.8996 60.662C42.0177 60.662 42.1527 60.662 42.2708 60.6452C42.3214 59.7678 42.3551 58.8735 42.4058 57.9962C42.5239 57.9962 42.6588 57.9962 42.777 57.9962C42.777 58.8398 42.777 59.6666 42.777 60.5102C42.9119 60.5102 43.0469 60.5271 43.1819 60.5271C43.2494 59.6834 43.3 58.8398 43.3675 57.9962C43.4519 57.9962 43.5194 57.9962 43.6037 57.9962C43.6375 58.7892 43.6881 59.5653 43.7218 60.3583C43.8568 60.3583 44.0087 60.3583 44.1436 60.3583C44.1774 58.7048 44.2111 57.0513 44.2449 55.3978C44.363 55.3978 44.498 55.3978 44.6161 55.3978C44.6161 56.9838 44.6161 58.5698 44.6161 60.1559C44.7511 60.1727 44.8692 60.1727 45.0041 60.1896C45.0716 59.4641 45.156 58.7386 45.2235 58.013C45.291 58.013 45.3585 58.013 45.426 58.0299C45.4766 58.6542 45.5272 59.2954 45.5778 59.9196C45.679 59.9365 45.7972 59.9365 45.8984 59.9534C45.9828 59.3122 46.084 58.6542 46.1684 58.013C46.2358 58.0299 46.3202 58.0299 46.3877 58.0468C46.4215 58.5698 46.4721 59.1098 46.5058 59.6328C46.607 59.6497 46.7083 59.6666 46.8095 59.6834C46.9108 59.1266 47.012 58.5867 47.1132 58.0299C47.2988 58.2493 47.3157 58.4686 47.3494 58.6711C47.3832 58.8904 47.4169 59.1098 47.4507 59.3291C47.535 59.3291 47.6363 59.3291 47.7206 59.3291C47.8219 58.8904 47.9231 58.4517 48.0244 58.013C48.075 58.013 48.1256 58.013 48.1762 58.013C48.2437 58.3167 48.3112 58.6036 48.4124 59.0254C49.2392 58.3336 48.5305 57.355 49.1379 56.4776C49.2392 57.2538 49.2729 57.8443 49.2898 58.4686Z" fill="#797979"/>
<path opacity="0.3" d="M49.2898 58.4682C49.2561 57.8439 49.2392 57.2534 49.2055 56.4435C48.598 57.3208 49.3067 58.2995 48.4799 58.9912C48.3787 58.5694 48.3112 58.2826 48.2437 57.9789C48.1931 57.9789 48.1425 57.9789 48.0919 57.9789C47.9906 58.4176 47.8894 58.8563 47.7881 59.2949C47.7038 59.2949 47.6025 59.2949 47.5182 59.2949C47.4844 59.0756 47.4338 58.8563 47.417 58.6369C47.3832 58.4344 47.3663 58.2151 47.1807 57.9957C47.0795 58.5525 46.9783 59.0925 46.877 59.6493C46.7758 59.6324 46.6746 59.6155 46.5733 59.5987C46.5396 59.0756 46.489 58.5357 46.4552 58.0126C46.3877 57.9957 46.3034 57.9957 46.2359 57.9789C46.1515 58.62 46.0503 59.2781 45.9659 59.9192C45.8647 59.9024 45.7466 59.9024 45.6453 59.8855C45.5947 59.2612 45.5441 58.62 45.4935 57.9957C45.426 57.9957 45.3585 57.9957 45.291 57.9789C45.2235 58.7044 45.1391 59.4299 45.0716 60.1555C44.9367 60.1386 44.8186 60.1386 44.6836 60.1217C44.6836 58.5357 44.6836 56.9496 44.6836 55.3636C44.5655 55.3636 44.4305 55.3636 44.3124 55.3636C44.2786 57.0171 44.2449 58.6707 44.2111 60.3242C44.0762 60.3242 43.9243 60.3242 43.7893 60.3242C43.7556 59.5312 43.705 58.755 43.6712 57.962C43.5869 57.962 43.5194 57.962 43.435 57.962C43.3675 58.8056 43.3169 59.6493 43.2494 60.4929C43.1144 60.4929 42.9794 60.476 42.8445 60.476C42.8445 59.6324 42.8445 58.8056 42.8445 57.962C42.7263 57.962 42.5914 57.962 42.4733 57.962C42.4226 58.8394 42.3889 59.7336 42.3383 60.611C42.2202 60.611 42.0852 60.611 41.9671 60.6279C41.9165 59.7505 41.849 58.8563 41.7983 57.9789C41.714 57.9789 41.6465 57.9789 41.5621 57.9789C41.5115 58.89 41.4609 59.7843 41.4103 60.6954C41.2753 60.6954 41.1403 60.6954 41.0053 60.6785C41.0053 59.7842 41.0053 58.8731 41.0053 57.9789C40.8704 57.9789 40.7522 57.962 40.6173 57.962C40.5666 58.8731 40.5329 59.7843 40.4823 60.7797C40.0098 60.3917 40.0098 60.3917 40.0098 58.7213C40.0098 58.0295 40.0098 57.3377 40.0098 56.6459C39.9255 56.6291 39.8411 56.6291 39.7568 56.6122C39.723 56.7978 39.6386 56.9834 39.6386 57.1521C39.6218 58.1307 39.6555 59.1262 39.6218 60.1048C39.6218 60.2904 39.4362 60.4929 39.3349 60.6785C39.2506 60.4929 39.1156 60.3073 39.1156 60.1217C39.0818 59.3962 39.0987 58.6707 39.0987 57.9451C38.9806 57.9451 38.8625 57.9451 38.7444 57.9451C38.7106 58.8394 38.66 59.7336 38.6263 60.6448C38.5082 60.6448 38.3901 60.6616 38.272 60.6616C38.2045 59.7674 38.1539 58.8731 38.0864 57.962C38.002 57.962 37.9008 57.962 37.8164 57.9789C37.8164 58.8394 37.8164 59.6999 37.8164 60.5435C37.6983 60.5604 37.5633 60.5773 37.4452 60.5773C36.9896 59.7843 37.4621 58.7719 37.1752 57.9451C37.0909 57.9451 37.0065 57.9451 36.9221 57.9451C36.9221 58.7719 36.9221 59.5818 36.9221 60.4085C36.804 60.4254 36.6859 60.4254 36.5678 60.4423C36.011 59.7168 36.6016 58.7213 36.011 57.962C35.9773 58.7213 35.9435 59.4805 35.9098 60.2567C35.8254 60.2736 35.7242 60.2904 35.6398 60.3073C35.5723 60.0711 35.4374 59.8349 35.4374 59.5987C35.4205 58.4513 35.4374 57.2871 35.4205 56.1398C35.4205 55.8698 35.3867 55.6167 35.3699 55.3467C35.2686 55.3467 35.1674 55.3467 35.0662 55.3467C35.0662 56.9159 35.0662 58.4682 35.0662 60.0373C34.9312 60.0542 34.7793 60.0542 34.6443 60.0711C34.56 59.3624 34.4756 58.6707 34.4081 57.962C34.3406 57.962 34.2563 57.962 34.1888 57.962C34.155 58.5694 34.1044 59.16 34.0538 59.9192C33.2102 59.3456 33.8344 58.5188 33.2776 57.9451C33.227 58.4344 33.1764 58.9406 33.1258 59.4299C33.0414 59.4468 32.9571 59.4637 32.8558 59.4974C32.7546 58.9912 32.6365 58.4851 32.5353 57.962C32.4846 57.962 32.4171 57.962 32.3665 57.9451C32.3159 58.3332 32.2653 58.7044 32.2147 59.0925C32.1303 59.1093 32.0459 59.1431 31.9616 59.16C31.8435 58.755 31.7422 58.3501 31.5566 57.7089C31.4048 58.1982 31.3204 58.4513 31.2361 58.7044C31.1517 58.7213 31.0673 58.7381 30.983 58.7381C30.8986 58.0295 30.8142 57.3377 30.7299 56.6291C30.6624 56.6291 30.5949 56.6291 30.5274 56.6291C30.4768 57.1521 30.443 57.6752 30.3924 58.1982C24.0989 56.2072 18.6322 46.2524 19.2902 38.5078C20.0663 28.5529 27.7772 20.3022 38.272 19.3405C47.7544 18.4631 56.8656 24.6216 59.7509 33.8678C62.8723 43.8565 57.9286 54.3513 49.2898 58.4682ZM34.425 41.6461C33.9357 44.1433 35.2686 46.5055 37.6139 47.2816C39.5543 47.9228 41.5115 47.8047 43.3844 47.0791C44.7173 46.5561 45.4766 45.51 45.6959 44.0927C46.0503 41.7642 45.2741 39.8745 43.4181 38.4741C42.3214 37.6473 41.1066 36.9724 39.9761 36.2131C39.5037 35.9094 38.9469 35.6226 38.6769 35.167C38.4069 34.6946 38.2213 33.9522 38.3901 33.4798C38.5419 33.0579 39.2168 32.653 39.723 32.5518C40.8535 32.3155 41.714 33.176 41.849 34.509C41.8827 34.8633 41.7983 35.2683 42.372 35.2514C43.4013 35.2345 44.4305 35.2514 45.4428 35.2514C45.7466 32.7711 44.4811 30.6958 42.2539 29.9196C40.6341 29.3628 38.9975 29.3966 37.3777 29.9702C35.1843 30.7633 34.0875 32.6699 34.4756 34.9646C34.7287 36.4831 35.5386 37.5967 36.804 38.4234C37.9176 39.149 39.0481 39.807 40.1448 40.5663C40.6848 40.9375 41.2415 41.3762 41.6296 41.9161C42.4564 43.0466 41.8996 44.3795 40.5835 44.6326C39.065 44.9194 38.0695 44.1433 38.0864 42.5235C38.0864 41.8149 37.867 41.5955 37.1752 41.6461C36.2641 41.6799 35.3699 41.6461 34.425 41.6461ZM45.9996 51.8878C45.6791 52.0566 45.3585 52.2422 45.0379 52.4109C44.7511 52.5627 44.4474 52.6977 44.1605 52.8327C44.0087 52.4109 43.8062 52.0059 43.7556 51.5841C43.7387 51.4323 44.0762 51.0948 44.2786 51.078C44.886 51.0105 45.4935 51.0611 46.1684 51.0611C46.1684 50.5043 46.2021 50.0656 46.1684 49.6269C46.0671 48.7158 45.426 48.2265 44.3799 48.2265C43.3338 48.2433 42.7263 48.7158 42.6589 49.6606C42.6082 50.4705 42.6082 51.2804 42.642 52.0903C42.6757 53.2208 43.1988 53.6932 44.3292 53.727C45.5103 53.7438 46.0165 53.322 45.9996 51.8878ZM36.8209 49.8969C36.7872 48.8676 36.3991 48.3952 35.488 48.2433C34.6781 48.1084 33.8513 48.4627 33.6151 49.0532C33.3114 49.7619 33.6151 50.5043 34.425 51.0442C34.8131 51.3142 35.2686 51.5335 35.5723 51.8878C35.7242 52.0566 35.5892 52.4446 35.5892 52.7483C35.2855 52.664 34.948 52.6302 34.6612 52.4953C34.5431 52.4278 34.5431 52.1578 34.4756 51.9722C34.1382 51.9722 33.8513 51.9722 33.5476 51.9722C33.4801 52.9002 33.8513 53.4739 34.5768 53.6763C35.4711 53.9126 36.4497 53.6426 36.7703 53.0521C37.1246 52.394 36.8884 51.4998 36.1966 50.9598C35.7748 50.6393 35.2686 50.403 34.8974 50.0487C34.7456 49.8969 34.8131 49.5257 34.7793 49.2557C35.0662 49.3063 35.5723 49.3063 35.6061 49.4413C35.8592 50.1837 36.3485 49.9644 36.8209 49.8969ZM40.7691 49.3907C40.4317 50.808 38.9806 51.8372 39.1493 53.5245C40.2292 53.5245 41.2247 53.5245 42.2539 53.5245C42.237 53.2545 42.237 53.0352 42.2202 52.7821C41.6296 52.7483 41.0897 52.7315 40.4992 52.6977C40.8704 51.1792 42.2539 50.0993 42.1527 48.4289C41.1066 48.4289 40.1448 48.4289 39.1325 48.4289C39.0987 49.8631 40.3304 48.8339 40.7691 49.3907ZM38.4744 53.5414C38.4744 51.8035 38.4744 50.1162 38.4744 48.4121C38.1032 48.4121 37.8164 48.4121 37.4621 48.4121C37.4621 50.15 37.4621 51.8372 37.4621 53.5414C37.8333 53.5414 38.137 53.5414 38.4744 53.5414Z" fill="#797979"/>
<path d="M34.4249 41.6463C35.3529 41.6463 36.264 41.68 37.1582 41.6294C37.85 41.5788 38.0694 41.7981 38.0694 42.5068C38.0694 44.1097 39.048 44.9027 40.5665 44.6159C41.8826 44.3628 42.4394 43.0298 41.6126 41.8994C41.2245 41.3763 40.6677 40.9376 40.1278 40.5495C39.048 39.8071 37.9006 39.1322 36.787 38.4067C35.5216 37.5799 34.7117 36.4495 34.4586 34.9478C34.0874 32.6531 35.1841 30.7465 37.3607 29.9535C38.9805 29.3798 40.6171 29.3292 42.2369 29.9029C44.4641 30.6622 45.7127 32.7375 45.4258 35.2346C44.4135 35.2346 43.3842 35.2178 42.355 35.2346C41.7813 35.2346 41.8657 34.8466 41.832 34.4922C41.697 33.1593 40.8365 32.2988 39.706 32.535C39.1998 32.6363 38.5418 33.0412 38.3731 33.463C38.2043 33.9354 38.3731 34.6778 38.6599 35.1503C38.913 35.6058 39.4867 35.8927 39.9591 36.1964C41.1064 36.9557 42.3044 37.6306 43.4011 38.4573C45.2571 39.8578 46.0333 41.7475 45.6789 44.0759C45.4596 45.4932 44.7003 46.5393 43.3674 47.0624C41.4776 47.8048 39.5204 47.9229 37.5969 47.2649C35.2685 46.5056 33.9356 44.1434 34.4249 41.6463Z" fill="#797979"/>
<path d="M45.9996 51.8881C46.0165 53.3223 45.5103 53.7441 44.3123 53.7272C43.1819 53.7104 42.6588 53.2211 42.6251 52.0906C42.5913 51.2807 42.5913 50.4708 42.642 49.6609C42.7094 48.716 43.3169 48.2436 44.363 48.2267C45.3922 48.2099 46.0502 48.6992 46.1515 49.6272C46.2021 50.0659 46.1515 50.5046 46.1515 51.0614C45.4766 51.0614 44.8691 51.0107 44.2617 51.0782C44.0593 51.0951 43.7218 51.4325 43.7387 51.5844C43.7893 52.0062 43.9918 52.4112 44.1436 52.833C44.4305 52.698 44.7342 52.563 45.021 52.4112C45.3585 52.2424 45.679 52.0737 45.9996 51.8881ZM45.156 50.2008C44.9873 49.7959 44.9198 49.4416 44.7173 49.2222C44.5992 49.1041 44.1436 49.1041 44.0424 49.2222C43.8399 49.4416 43.7893 49.7959 43.6374 50.2008C44.2111 50.2008 44.5823 50.2008 45.156 50.2008Z" fill="#797979"/>
<path d="M36.8201 49.8976C36.3476 49.9651 35.8583 50.1675 35.6221 49.4251C35.5884 49.2902 35.0822 49.2902 34.7954 49.2395C34.8291 49.5095 34.7616 49.8976 34.9135 50.0326C35.3015 50.3869 35.7908 50.6231 36.2127 50.9437C36.9044 51.4836 37.1407 52.3779 36.7863 53.0359C36.4658 53.6264 35.4703 53.9133 34.5929 53.6602C33.8505 53.4577 33.4962 52.884 33.5637 51.956C33.8505 51.956 34.1542 51.956 34.4917 51.956C34.5423 52.1248 34.5591 52.4116 34.6773 52.4791C34.9472 52.6141 35.2847 52.6478 35.6053 52.7322C35.6053 52.4453 35.7402 52.0404 35.5884 51.8717C35.2847 51.5342 34.8291 51.298 34.441 51.028C33.6311 50.4881 33.3274 49.7457 33.6311 49.0371C33.8842 48.4465 34.711 48.0922 35.504 48.2272C36.3983 48.3959 36.7863 48.8683 36.8201 49.8976Z" fill="#797979"/>
<path d="M40.7677 49.3912C40.3459 48.8513 39.1142 49.8637 39.131 48.4295C40.1434 48.4295 41.1051 48.4295 42.1512 48.4295C42.2525 50.0999 40.852 51.1628 40.4977 52.6983C41.0883 52.732 41.6282 52.7489 42.2187 52.7826C42.2356 53.0357 42.2356 53.2551 42.2525 53.525C41.2064 53.525 40.2278 53.525 39.1479 53.525C38.9792 51.8378 40.4134 50.7916 40.7677 49.3912Z" fill="#797979"/>
<path d="M38.4753 53.5417C38.1378 53.5417 37.8341 53.5417 37.4629 53.5417C37.4629 51.8376 37.4629 50.1335 37.4629 48.4124C37.8003 48.4124 38.1041 48.4124 38.4753 48.4124C38.4753 50.1166 38.4753 51.8039 38.4753 53.5417Z" fill="#797979"/>
<path opacity="0.3" d="M45.1565 50.2009C44.5828 50.2009 44.1948 50.2009 43.6211 50.2009C43.7729 49.796 43.8236 49.4417 44.026 49.2223C44.1273 49.1042 44.5997 49.0874 44.7009 49.2223C44.9203 49.4417 44.9878 49.796 45.1565 50.2009Z" fill="#797979"/>
</svg>
