<svg width="80" height="80" viewBox="0 0 80 80" fill="none" xmlns="http://www.w3.org/2000/svg">
<rect width="80" height="80" rx="16" fill="#E4E4E4"/>
<path d="M39.9394 63.9583C27.2834 63.992 16.4162 53.9516 16.0112 40.722C15.6062 27.1717 26.2203 16.5069 39.045 16.0176C52.4435 15.5113 63.6313 26.0073 63.9519 39.3889C64.2726 53.1923 53.1184 64.0427 39.9394 63.9583ZM36.4464 60.3302C36.5476 60.364 36.6657 60.4146 36.7838 60.4484C38.7244 60.769 40.6819 60.8027 42.6393 60.5159C43.8037 60.3471 44.9511 60.0602 46.048 59.8409C46.048 58.8622 46.048 58.0016 46.048 57.1578C46.4192 57.0397 46.4867 57.2084 46.4867 57.5122C46.4699 58.204 46.4867 58.879 46.4867 59.5878C46.9423 59.554 47.128 59.3853 47.0942 58.9634C47.0605 58.474 47.0773 57.9847 47.0942 57.5122C47.0942 57.1072 47.1111 57.1072 47.5836 57.2084C47.5836 57.8497 47.5836 58.5078 47.5836 59.1659C48.0223 59.149 48.1742 58.9803 48.1573 58.5922C48.1404 58.2209 48.1573 57.8497 48.1573 57.4784C48.1404 57.1072 48.3261 57.0903 48.6467 57.2084C48.6467 57.7147 48.6467 58.2209 48.6467 58.7272C49.0685 58.7103 49.2542 58.5247 49.2204 58.1365C49.2035 57.9341 49.2204 57.7147 49.2204 57.5122C49.2035 57.1241 49.3723 57.0734 49.7267 57.2253C49.7267 57.5459 49.7267 57.8666 49.7267 58.204C50.1148 58.1365 50.3004 57.9847 50.2835 57.5966C50.2666 57.0903 50.2666 56.5841 50.3004 56.0947C50.3173 55.9428 50.4691 55.791 50.5535 55.6222C50.621 55.7741 50.756 55.926 50.756 56.0778C50.7898 56.5841 50.7729 57.0903 50.7729 57.6472C57.0671 54.0023 63.007 45.025 59.8514 34.1071C57.0165 24.303 47.263 18.11 37.0538 19.5444C27.0809 20.9449 19.4199 29.6354 19.3186 39.6757C19.268 44.8056 20.8711 49.3786 24.1785 53.3273C25.5791 54.9979 27.1991 56.4322 29.1565 57.6134C29.1565 56.8878 29.1565 56.2635 29.1565 55.656C29.5953 55.6391 29.6121 55.6391 29.6121 56.0103C29.6121 56.5166 29.629 57.0228 29.6121 57.5122C29.5953 57.9172 29.764 58.1028 30.2028 58.1197C30.2028 57.8834 30.2028 57.6809 30.2028 57.4616C30.1859 57.1241 30.3715 57.0903 30.6752 57.1916C30.6752 57.4953 30.6921 57.7991 30.6752 58.1028C30.6415 58.5078 30.8609 58.6428 31.2658 58.6765C31.2658 58.2715 31.2658 57.9003 31.2658 57.5291C31.2658 57.1241 31.2827 57.1241 31.7383 57.2253C31.7383 57.6641 31.7552 58.1197 31.7383 58.5753C31.7215 58.9634 31.8902 59.1153 32.3121 59.1321C32.3121 58.474 32.3121 57.8328 32.3121 57.1578C32.4977 57.1578 32.6327 57.1578 32.8014 57.1578C32.8014 57.7822 32.8183 58.3728 32.8014 58.9803C32.7846 59.3684 32.9364 59.5371 33.3752 59.5034C33.3752 58.7103 33.3752 57.9509 33.3752 57.1747C33.8308 57.1241 33.8477 57.1241 33.8477 57.4953C33.8645 58.1028 33.8645 58.7272 33.8477 59.3346C33.8308 59.7396 33.9995 59.8746 34.4383 59.824C34.4383 57.9172 34.4383 56.0272 34.4383 54.171C34.9108 54.0191 34.9108 54.2891 34.9108 54.576C34.9108 56.2635 34.9276 57.9509 34.9108 59.6384C34.9108 60.0602 35.0795 60.1784 35.5014 60.1277C35.5014 59.1321 35.5014 58.1534 35.5014 57.1241C35.687 57.1409 35.822 57.1578 35.9907 57.1747C35.9907 58.2378 35.9907 59.2503 35.9907 60.3302C36.1089 60.3302 36.2776 60.3302 36.4464 60.3302Z" fill="#797979"/>
<path opacity="0.3" d="M36.447 60.3302C36.2782 60.3302 36.1095 60.3302 35.907 60.3302C35.907 59.2502 35.907 58.2377 35.907 57.1746C35.7382 57.1577 35.6032 57.1409 35.4176 57.124C35.4176 58.1534 35.4176 59.1321 35.4176 60.1277C34.9958 60.1783 34.827 60.0602 34.827 59.6383C34.8439 57.9508 34.827 56.2634 34.827 54.5759C34.827 54.2891 34.827 54.0191 34.3545 54.1709C34.3545 56.0272 34.3545 57.9171 34.3545 59.8239C33.9158 59.8746 33.747 59.7396 33.7639 59.3346C33.7808 58.7271 33.7808 58.1027 33.7639 57.4952C33.7639 57.124 33.747 57.124 33.2914 57.1746C33.2914 57.934 33.2914 58.7102 33.2914 59.5033C32.8527 59.5371 32.7008 59.3683 32.7177 58.9802C32.7346 58.3896 32.7177 57.7821 32.7177 57.1578C32.5489 57.1578 32.414 57.1578 32.2283 57.1578C32.2283 57.8159 32.2283 58.4571 32.2283 59.1321C31.8065 59.1152 31.6377 58.9633 31.6546 58.5752C31.6883 58.1196 31.6546 57.664 31.6546 57.2252C31.199 57.124 31.1821 57.124 31.1821 57.529C31.1821 57.9002 31.1821 58.2715 31.1821 58.6765C30.7771 58.6427 30.5577 58.5077 30.5915 58.1027C30.6084 57.799 30.5915 57.4952 30.5915 57.1915C30.2878 57.0902 30.1021 57.124 30.119 57.4615C30.1359 57.664 30.119 57.8834 30.119 58.1196C29.6803 58.1027 29.4946 57.9171 29.5284 57.5121C29.5453 57.0059 29.5453 56.4996 29.5284 56.0103C29.5284 55.639 29.5115 55.639 29.0728 55.6559C29.0728 56.2634 29.0728 56.8709 29.0728 57.6134C27.0985 56.4321 25.4785 55.0147 24.0948 53.3272C20.8042 49.3786 19.2011 44.8055 19.2349 39.6757C19.3193 29.6353 26.9972 20.9449 36.9701 19.5443C47.1792 18.1099 56.9159 24.3029 59.7677 34.1071C62.9401 45.0418 56.9834 54.0022 50.6891 57.6471C50.6891 57.0902 50.706 56.584 50.6723 56.0778C50.6723 55.9259 50.5373 55.774 50.4698 55.6222C50.3854 55.774 50.2335 55.9259 50.2166 56.0946C50.1829 56.6009 50.1829 57.1071 50.1998 57.5965C50.2166 57.9846 50.031 58.1533 49.6429 58.204C49.6429 57.8665 49.6429 57.5459 49.6429 57.2252C49.2885 57.0734 49.1198 57.1409 49.1367 57.5121C49.1535 57.7146 49.1198 57.934 49.1367 58.1365C49.1704 58.5246 48.9848 58.6933 48.5629 58.7271C48.5629 58.2208 48.5629 57.7146 48.5629 57.2084C48.2423 57.0903 48.0736 57.1071 48.0736 57.4784C48.0904 57.8496 48.0567 58.2209 48.0736 58.5921C48.1073 58.9802 47.9386 59.1658 47.4998 59.1658C47.4998 58.5077 47.4998 57.8496 47.4998 57.2084C47.0274 57.1071 47.0105 57.1071 47.0105 57.5121C47.0105 58.0015 46.9767 58.4908 47.0105 58.9633C47.0442 59.3852 46.8586 59.5539 46.403 59.5877C46.403 58.8958 46.3861 58.204 46.403 57.5121C46.403 57.2084 46.3355 57.0396 45.9643 57.1578C45.9643 58.0015 45.9643 58.8621 45.9643 59.8408C44.8674 60.0602 43.7199 60.347 42.5556 60.5158C40.615 60.7858 38.6576 60.7689 36.7001 60.4483C36.6663 60.4145 36.5482 60.347 36.447 60.3302C36.582 60.3302 36.7507 60.3302 36.9195 60.347C36.9195 59.2502 36.9195 58.2208 36.9195 57.1409C36.7676 57.1409 36.6495 57.1578 36.447 57.1578C36.447 58.2377 36.447 59.2839 36.447 60.3302ZM27.7734 25.1804C27.8409 25.3491 27.8747 25.4841 27.9253 25.5854C29.4103 28.5891 30.9121 31.5927 32.4139 34.5795C32.5827 34.917 32.5658 35.1533 32.3971 35.4739C30.8277 38.427 29.2753 41.3969 27.7228 44.3668C27.6384 44.5187 27.5709 44.6706 27.4866 44.873C29.0897 44.873 30.6084 44.8562 32.1271 44.873C32.4646 44.873 32.6333 44.7887 32.7683 44.4512C33.3589 42.8987 33.9833 41.3463 34.6076 39.7938C34.6751 39.6419 34.7426 39.4732 34.827 39.3044C34.8945 39.3719 34.9283 39.3888 34.9283 39.4057C35.4345 40.6713 35.9407 41.9369 36.447 43.1856C36.6663 43.7256 36.7507 44.4849 37.1557 44.738C37.5776 45.008 38.3032 44.8393 38.9107 44.8393C39.9906 44.8393 41.0706 44.8393 42.2012 44.8393C42.1 44.6368 42.0493 44.4849 41.965 44.3499C40.4125 41.3969 38.8769 38.4438 37.3245 35.4908C37.1388 35.1364 37.122 34.8664 37.3076 34.512C38.7757 31.6096 40.21 28.6903 41.6612 25.771C41.7456 25.5854 41.83 25.3998 41.9481 25.1466C40.4125 25.1466 38.9782 25.1635 37.5438 25.1298C37.2063 25.1298 37.0713 25.2648 36.9532 25.5516C36.3626 27.0366 35.7382 28.5216 35.1308 29.9897C35.0633 30.1584 34.9789 30.3271 34.8776 30.5634C34.7764 30.3609 34.7089 30.2428 34.6751 30.1247C34.1352 28.8084 33.5952 27.4922 33.0552 26.176C32.6333 25.1298 32.6333 25.1298 31.4858 25.1298C30.2371 25.1804 29.039 25.1804 27.7734 25.1804ZM47.6686 40.9244C47.6686 40.5363 47.6686 40.2157 47.6686 39.895C47.6686 35.1533 47.6517 30.3946 47.6686 25.6529C47.6686 25.2479 47.4998 25.1635 47.1455 25.1635C45.998 25.1804 44.8505 25.1973 43.7031 25.1635C43.2474 25.1466 43.1293 25.2985 43.1293 25.7373C43.1293 31.9302 43.1293 38.1063 43.1124 44.2993C43.1124 44.4681 43.1293 44.6537 43.1462 44.8224C46.4536 44.8224 49.7273 44.8224 53.0516 44.8224C53.0516 43.7424 53.0516 42.6962 53.0516 41.65C53.0516 40.84 53.1528 40.9244 52.326 40.9075C50.8241 40.9244 49.3054 40.9244 47.6686 40.9244ZM47.1455 49.2773C47.1455 48.653 47.1792 48.113 47.1455 47.5899C47.0948 46.8136 46.6392 46.2568 45.8799 46.1218C45.3568 46.0374 44.783 46.0374 44.2599 46.1386C43.5512 46.2736 43.1293 46.7967 43.0956 47.5055C43.0449 48.6023 43.0449 49.6992 43.0956 50.796C43.1462 51.7241 43.8043 52.2472 44.8505 52.3147C46.0486 52.3991 46.8417 51.9435 47.078 51.0491C47.1286 50.8298 47.1455 50.5935 47.1623 50.3404C46.6899 50.3404 46.2849 50.3404 45.863 50.3404C45.8461 50.4417 45.8461 50.5092 45.8293 50.5767C45.7618 51.0998 45.5424 51.3191 45.053 51.3023C44.5805 51.2854 44.3612 51.0491 44.3443 50.5092C44.3443 50.2729 44.3612 50.0198 44.3443 49.7836C44.2937 49.3617 44.4793 49.2604 44.8674 49.2773C45.6099 49.3111 46.3524 49.2773 47.1455 49.2773ZM36.5314 47.978C36.5651 47.033 36.177 46.4255 35.4176 46.1386C34.557 45.8349 33.4602 46.0374 33.0046 46.6449C32.8527 46.8474 32.7514 47.1005 32.7177 47.3536C32.5996 48.1467 32.9202 48.7373 33.5783 49.1592C34.0677 49.4798 34.557 49.7835 35.0295 50.1379C35.2995 50.3404 35.4851 50.6948 35.232 50.9816C35.0801 51.1673 34.7426 51.2685 34.4895 51.2685C34.1352 51.2685 33.9833 50.9816 33.9495 50.6273C33.9327 50.5092 33.9158 50.391 33.8989 50.2729C33.4602 50.2729 33.0721 50.2729 32.6839 50.2729C32.5827 51.201 32.9708 51.8591 33.7302 52.1797C34.5908 52.5341 35.9239 52.3147 36.3457 51.7241C36.4639 51.5723 36.5482 51.3866 36.582 51.201C36.8013 50.3067 36.4807 49.5642 35.6539 48.9904C35.1983 48.6867 34.7089 48.4167 34.287 48.0623C34.1183 47.9273 34.0677 47.5899 34.0845 47.3367C34.1014 47.2186 34.422 47.0161 34.557 47.0499C34.7933 47.1005 35.0295 47.2692 35.1983 47.4549C35.2995 47.5561 35.2995 47.7755 35.3333 47.9611C35.7214 47.978 36.1095 47.978 36.5314 47.978ZM39.0625 52.1291C40.2775 52.1291 41.4419 52.1291 42.64 52.1291C42.64 51.7916 42.64 51.471 42.64 51.0998C41.9481 51.0998 41.2731 51.0998 40.5306 51.0998C41.155 49.9185 41.7119 48.8048 42.3193 47.7249C42.6062 47.2186 42.6062 46.7292 42.5556 46.1724C41.3912 46.1724 40.2438 46.1724 39.0794 46.1724C39.0794 46.5099 39.0794 46.8136 39.0794 47.1849C39.7544 47.1849 40.3788 47.1849 41.1044 47.1849C41.0031 47.4042 40.9525 47.5392 40.8681 47.6742C40.3619 48.6023 39.8894 49.5473 39.3494 50.4417C39.0288 50.9816 38.995 51.5216 39.0625 52.1291ZM37.1388 46.1893C37.1388 48.1973 37.1388 50.1717 37.1388 52.1291C37.5776 52.1291 37.9826 52.1291 38.3876 52.1291C38.3876 50.121 38.3876 48.1636 38.3876 46.1893C37.9657 46.1893 37.5776 46.1893 37.1388 46.1893ZM44.9687 54.1541C44.9687 56.1115 44.9687 58.0183 44.9687 59.9252C45.3061 59.9589 45.4243 59.8408 45.4243 59.5202C45.4074 58.6258 45.4243 57.7315 45.4243 56.854C45.4243 55.9596 45.4243 55.0822 45.4243 54.1709C45.2386 54.1541 45.1205 54.1541 44.9687 54.1541ZM39.67 60.4989C40.0581 60.617 40.1425 60.482 40.1425 60.1614C40.1256 58.7777 40.1256 57.3771 40.1425 55.9934C40.1425 55.6222 40.0075 55.5378 39.67 55.6728C39.67 57.2759 39.67 58.879 39.67 60.4989ZM41.7962 57.1578C41.7962 58.2715 41.7962 59.3346 41.7962 60.4145C41.83 60.4483 41.8806 60.482 41.9143 60.5158C42.0325 60.3977 42.235 60.2795 42.235 60.1783C42.2687 59.1827 42.2518 58.1871 42.2518 57.1746C42.0662 57.1577 41.9481 57.1578 41.7962 57.1578ZM38.9275 60.5833C38.9782 60.5495 39.0288 60.4989 39.0794 60.4652C39.0794 59.4358 39.0963 58.4065 39.0625 57.3771C39.0625 57.2759 38.8432 57.1746 38.7251 57.0734C38.6913 57.1071 38.6407 57.1409 38.6069 57.1746C38.6069 58.204 38.5901 59.2333 38.6238 60.2627C38.6238 60.3808 38.8263 60.482 38.9275 60.5833ZM40.7162 60.482C41.0706 60.5833 41.2056 60.5158 41.2056 60.1783C41.1887 59.7227 41.2056 59.2839 41.2056 58.8283C41.2056 58.2715 41.2056 57.7146 41.2056 57.1578C41.155 57.124 41.1044 57.1071 41.0537 57.0734C40.9525 57.1746 40.75 57.2759 40.75 57.3771C40.7163 58.4065 40.7162 59.4358 40.7162 60.482ZM37.8644 60.5158C37.9151 60.4652 37.9488 60.4314 37.9994 60.3808C37.9994 59.3177 37.9994 58.2546 37.9994 57.1746C37.8476 57.1746 37.7126 57.1746 37.5438 57.1746C37.5438 58.1871 37.527 59.1827 37.5607 60.1614C37.5607 60.2795 37.7463 60.3977 37.8644 60.5158ZM42.8256 60.2964C43.1799 60.3808 43.2981 60.2627 43.2981 59.9421C43.2812 59.1321 43.2981 58.3221 43.2981 57.5121C43.2981 57.1071 43.2812 57.1071 42.8425 57.2252C42.8256 58.2208 42.8256 59.2502 42.8256 60.2964ZM44.3612 57.1915C44.3105 57.1577 44.2768 57.1071 44.2262 57.0734C44.108 57.1578 43.9055 57.2421 43.9055 57.3434C43.8887 58.2715 43.8887 59.1996 43.8887 60.1277C43.9393 60.1614 43.9899 60.1783 44.0405 60.212C44.1418 60.0939 44.3443 59.9758 44.3443 59.8408C44.3612 58.9633 44.3612 58.069 44.3612 57.1915Z" fill="#797979"/>
<path d="M27.7737 25.1809C29.0393 25.1809 30.2374 25.1809 31.4524 25.1809C32.5999 25.1809 32.5999 25.1809 33.0217 26.2271C33.5617 27.5433 34.1017 28.8595 34.6417 30.1758C34.6923 30.2939 34.743 30.3951 34.8442 30.6145C34.9623 30.3783 35.0298 30.2095 35.0973 30.0408C35.7048 28.5558 36.3292 27.0877 36.9198 25.6027C37.0379 25.3159 37.1729 25.1809 37.5104 25.1809C38.9447 25.1977 40.3791 25.1977 41.9147 25.1977C41.7965 25.4509 41.7122 25.6365 41.6278 25.8221C40.1766 28.7414 38.7422 31.6438 37.2741 34.5631C37.0885 34.9175 37.1054 35.1875 37.291 35.5419C38.8604 38.4949 40.3959 41.448 41.9315 44.401C41.999 44.536 42.0665 44.6879 42.1678 44.8904C41.0372 44.8904 39.9572 44.8904 38.8772 44.8904C38.2866 44.8904 37.5441 45.0591 37.1223 44.7892C36.7173 44.5192 36.6329 43.7767 36.4135 43.2367C35.9073 41.9711 35.4011 40.7055 34.8948 39.4568C34.8779 39.423 34.8442 39.4062 34.7936 39.3555C34.7261 39.5243 34.6417 39.6761 34.5742 39.8449C33.9498 41.3974 33.3255 42.9329 32.7349 44.5023C32.5999 44.8398 32.4311 44.9241 32.0936 44.9241C30.5749 44.9073 29.0562 44.9241 27.4531 44.9241C27.5544 44.7217 27.6219 44.5698 27.6894 44.4179C29.2418 41.448 30.7943 38.4781 32.3636 35.525C32.5324 35.2044 32.5493 34.9681 32.3805 34.6306C30.8787 31.6438 29.3768 28.6402 27.8919 25.6365C27.875 25.4846 27.8412 25.3496 27.7737 25.1809Z" fill="#797979"/>
<path d="M47.6662 40.925C49.2862 40.925 50.8049 40.925 52.3405 40.925C53.1673 40.925 53.0492 40.8575 53.0661 41.6674C53.0661 42.7137 53.0661 43.7599 53.0661 44.8399C49.7418 44.8399 46.4681 44.8399 43.1607 44.8399C43.1438 44.6711 43.127 44.5024 43.127 44.3167C43.127 38.1238 43.1438 31.9477 43.1438 25.7547C43.1438 25.3159 43.2619 25.1641 43.7176 25.181C44.865 25.2147 46.0125 25.1978 47.16 25.181C47.5144 25.181 47.6831 25.2485 47.6831 25.6703C47.6662 30.4121 47.6831 35.1707 47.6831 39.9125C47.6662 40.2331 47.6662 40.5537 47.6662 40.925Z" fill="#797979"/>
<path d="M47.1445 49.2774C46.3514 49.2774 45.6089 49.2943 44.8664 49.2774C44.4783 49.2605 44.2927 49.3786 44.3433 49.7836C44.3771 50.0199 44.3433 50.273 44.3433 50.5092C44.3602 51.0492 44.5796 51.2855 45.0521 51.3023C45.5414 51.3192 45.7608 51.0998 45.8283 50.5767C45.8283 50.5092 45.8452 50.4586 45.862 50.3405C46.2839 50.3405 46.6889 50.3405 47.1614 50.3405C47.1276 50.5936 47.1276 50.8298 47.077 51.0492C46.8408 51.9436 46.0477 52.3992 44.8496 52.3148C43.8033 52.2473 43.1452 51.7242 43.0946 50.7961C43.044 49.6992 43.044 48.6024 43.0946 47.5055C43.1284 46.7799 43.5502 46.2737 44.259 46.1387C44.7821 46.0375 45.3558 46.0206 45.8789 46.1218C46.6383 46.2568 47.077 46.8137 47.1445 47.5899C47.1614 48.1299 47.1445 48.653 47.1445 49.2774ZM45.8114 48.3324C45.8114 48.0287 45.8452 47.7924 45.8114 47.5562C45.7439 47.1849 45.3896 46.9824 44.9508 47.0499C44.4952 47.1174 44.3265 47.4212 44.3433 47.9949C44.3602 48.518 44.7314 48.2986 44.9677 48.3324C45.2377 48.3493 45.5077 48.3324 45.8114 48.3324Z" fill="#797979"/>
<path d="M36.5305 47.9781C36.1087 47.9781 35.7205 47.9781 35.3155 47.9781C35.2818 47.8094 35.2818 47.59 35.1806 47.4719C35.0118 47.2863 34.7756 47.1175 34.5393 47.0669C34.4043 47.0332 34.0837 47.2357 34.0668 47.3538C34.05 47.59 34.1006 47.9275 34.2693 48.0794C34.6912 48.4338 35.1805 48.6869 35.6362 49.0075C36.463 49.5812 36.7836 50.3237 36.5643 51.2181C36.5136 51.4037 36.4293 51.5893 36.328 51.7412C35.9062 52.3318 34.5731 52.5512 33.7125 52.1968C32.9531 51.8931 32.565 51.2181 32.6662 50.29C33.0544 50.29 33.4593 50.29 33.8812 50.29C33.8981 50.4081 33.915 50.5262 33.9318 50.6443C33.9487 50.9987 34.1175 51.2856 34.4718 51.2856C34.7249 51.2856 35.0624 51.1843 35.2143 50.9987C35.4505 50.7118 35.2818 50.3575 35.0118 50.155C34.5562 49.8006 34.05 49.4969 33.5606 49.1762C32.9025 48.7544 32.5819 48.1469 32.7 47.3707C32.7337 47.1344 32.8519 46.8644 32.9869 46.6619C33.4425 46.0544 34.5393 45.8351 35.3999 46.1557C36.1593 46.4257 36.5474 47.0332 36.5305 47.9781Z" fill="#797979"/>
<path d="M39.0624 52.129C38.9949 51.5047 39.0287 50.9816 39.3324 50.4584C39.8724 49.5641 40.3449 48.6191 40.8511 47.691C40.9186 47.556 40.9861 47.4041 41.0874 47.2017C40.3786 47.2017 39.7374 47.2017 39.0624 47.2017C39.0624 46.8304 39.0624 46.5267 39.0624 46.1892C40.2268 46.1892 41.3742 46.1892 42.5386 46.1892C42.5892 46.746 42.5892 47.2354 42.3023 47.7416C41.6948 48.8216 41.138 49.9353 40.5136 51.1166C41.2561 51.1166 41.9311 51.1166 42.6229 51.1166C42.6229 51.4878 42.6229 51.8084 42.6229 52.1459C41.4586 52.129 40.2774 52.129 39.0624 52.129Z" fill="#797979"/>
<path d="M37.1387 46.1892C37.5774 46.1892 37.9655 46.1892 38.3874 46.1892C38.3874 48.1636 38.3874 50.121 38.3874 52.1291C37.9824 52.1291 37.5774 52.1291 37.1387 52.1291C37.1387 50.1548 37.1387 48.1973 37.1387 46.1892Z" fill="#797979"/>
<path d="M44.9688 54.1543C45.1206 54.1543 45.2387 54.1543 45.4244 54.1543C45.4244 55.0655 45.4244 55.9599 45.4244 56.8373C45.4244 57.7317 45.4075 58.6261 45.4244 59.5035C45.4244 59.8242 45.3062 59.9423 44.9688 59.9085C44.9688 58.0186 44.9688 56.1117 44.9688 54.1543Z" fill="#797979"/>
<path d="M39.668 60.4987C39.668 58.8787 39.668 57.2756 39.668 55.6726C40.0055 55.5376 40.1405 55.6219 40.1405 55.9932C40.1236 57.3769 40.1236 58.7775 40.1405 60.1612C40.1405 60.4649 40.0561 60.6168 39.668 60.4987Z" fill="#797979"/>
<path d="M41.7969 57.1581C41.9487 57.1581 42.0837 57.1581 42.2525 57.1581C42.2525 58.1705 42.2694 59.1661 42.2356 60.1617C42.2356 60.2798 42.0331 60.398 41.915 60.4992C41.8813 60.4655 41.8306 60.4317 41.7969 60.398C41.7969 59.3349 41.7969 58.2718 41.7969 57.1581Z" fill="#797979"/>
<path d="M38.9273 60.5837C38.8261 60.4824 38.6236 60.3812 38.6067 60.28C38.5898 59.2506 38.5898 58.2212 38.5898 57.1919C38.6236 57.1581 38.6742 57.1244 38.708 57.0907C38.8261 57.1919 39.0455 57.2931 39.0455 57.3944C39.0792 58.4237 39.0623 59.4531 39.0623 60.4824C39.0286 60.5162 38.978 60.5499 38.9273 60.5837Z" fill="#797979"/>
<path d="M40.7171 60.4823C40.7171 59.4361 40.7002 58.4068 40.734 57.3774C40.734 57.2762 40.9365 57.1749 41.0377 57.0737C41.0883 57.1074 41.139 57.1243 41.1896 57.158C41.1896 57.7149 41.1896 58.2718 41.1896 58.8286C41.1896 59.2842 41.1727 59.7398 41.1896 60.1786C41.2233 60.5161 41.0715 60.5836 40.7171 60.4823Z" fill="#797979"/>
<path d="M37.8636 60.5156C37.7623 60.3975 37.5598 60.2794 37.5598 60.1613C37.543 59.1825 37.543 58.1869 37.543 57.1745C37.7117 57.1745 37.8467 57.1745 37.9986 57.1745C37.9986 58.2544 37.9986 59.3175 37.9986 60.3806C37.948 60.4144 37.8973 60.465 37.8636 60.5156Z" fill="#797979"/>
<path d="M36.447 60.3305C36.447 59.2843 36.447 58.238 36.447 57.1581C36.6326 57.1412 36.7676 57.1412 36.9194 57.1412C36.9194 58.2043 36.9194 59.2505 36.9194 60.3473C36.7507 60.3305 36.5988 60.3136 36.447 60.3305Z" fill="#797979"/>
<path d="M42.8262 60.2963C42.8262 59.25 42.8262 58.2207 42.8262 57.2082C43.2818 57.0901 43.2818 57.0901 43.2818 57.4951C43.2818 58.3051 43.2818 59.115 43.2818 59.925C43.2987 60.2625 43.1974 60.3806 42.8262 60.2963Z" fill="#797979"/>
<path d="M44.3576 57.1918C44.3576 58.0693 44.3744 58.9636 44.3407 59.8411C44.3407 59.9592 44.1382 60.0942 44.037 60.2123C43.9863 60.1786 43.9357 60.1617 43.8851 60.128C43.8851 59.1999 43.8682 58.2718 43.902 57.3437C43.902 57.2593 44.1044 57.1749 44.2226 57.0737C44.2563 57.1074 44.3069 57.158 44.3576 57.1918Z" fill="#797979"/>
<path opacity="0.3" d="M45.8148 48.3325C45.5111 48.3325 45.2411 48.3494 44.9711 48.3325C44.7349 48.2988 44.3468 48.5181 44.3468 47.995C44.3299 47.4213 44.5155 47.1344 44.9542 47.05C45.393 46.9825 45.7473 47.185 45.8148 47.5563C45.8486 47.7925 45.8148 48.0288 45.8148 48.3325Z" fill="#797979"/>
</svg>
