<svg width="80" height="80" viewBox="0 0 80 80" fill="none" xmlns="http://www.w3.org/2000/svg">
<rect width="80" height="80" rx="16" fill="#E4E4E4"/>
<path d="M39.9747 16C53.2021 16 63.9325 26.7304 63.9494 39.9915C63.9662 53.219 53.2696 64 40.0928 64C26.7304 64 16 53.3539 16 40.0759C16 26.7473 26.6798 16.0169 39.9747 16ZM31.9775 59.0734L31.9606 59.0566C32.2643 59.2253 32.5849 59.3771 32.9898 59.5965C33.0404 58.8372 33.0742 58.1961 33.1079 57.5718C33.2091 57.5718 33.2935 57.5718 33.3947 57.5718C33.4116 57.9936 33.3947 58.4154 33.4622 58.8372C33.5128 59.1915 33.1754 59.782 34.0021 59.7989C34.0358 59.0397 34.0696 58.3142 34.1033 57.6056C34.2214 57.6056 34.3227 57.6056 34.4408 57.6056C34.4408 58.0443 34.4408 58.4998 34.4408 58.9385C34.4408 59.917 34.4408 59.917 35.0988 60.1026C35.0988 58.3142 35.0988 56.5595 35.0988 54.8049C35.1831 54.8049 35.2843 54.8049 35.3687 54.8049C35.3856 55.058 35.4193 55.3279 35.4193 55.581C35.4193 56.9307 35.4024 58.2805 35.4362 59.6302C35.4362 59.8833 35.588 60.1195 35.6724 60.3726C35.8074 60.3388 35.9423 60.3219 36.0773 60.2882C36.0773 59.394 36.0773 58.4829 36.0773 57.5887C36.1617 57.5887 36.246 57.5887 36.3304 57.5887C36.6847 58.5167 36.1279 59.6302 36.651 60.5075C36.7859 60.4907 36.9209 60.4738 37.0559 60.4738C37.0559 59.5121 37.0559 58.5504 37.0559 57.5887C37.1571 57.5887 37.2583 57.5887 37.3596 57.5887C37.3764 57.9599 37.4102 58.3142 37.4102 58.6854C37.4271 59.0566 37.3764 59.4109 37.4271 59.782C37.4608 60.0857 37.562 60.3725 37.6464 60.6762C37.7814 60.6594 37.8995 60.6256 38.0344 60.6088C38.0344 59.6133 38.0344 58.6179 38.0344 57.6056C38.1694 57.6056 38.2875 57.6056 38.4225 57.6056C38.4225 58.6348 38.4225 59.6639 38.4225 60.71C38.5743 60.71 38.7262 60.7269 38.8949 60.7269C38.9455 59.6808 39.013 58.6348 39.0636 57.5887C39.1817 57.5887 39.2998 57.6056 39.4179 57.6056C39.4179 58.4154 39.401 59.2421 39.4348 60.052C39.4517 60.2882 39.6035 60.5244 39.6879 60.7437C39.7891 60.5244 39.9747 60.3051 39.9747 60.0689C40.0084 58.9722 39.9915 57.8755 39.9915 56.7789C39.9915 56.5764 40.059 56.3571 40.0928 56.1546C40.1771 56.1546 40.2615 56.1715 40.329 56.1715C40.3459 56.4752 40.3796 56.762 40.3796 57.0657C40.3796 58.1286 40.3796 59.2084 40.3965 60.2713C40.3965 60.4232 40.5483 60.575 40.6327 60.7437C40.7339 60.5919 40.9195 60.44 40.9364 60.2713C40.987 59.8495 40.9532 59.4277 40.9532 59.0059C40.9532 58.5504 40.9532 58.078 40.9532 57.6225C41.0545 57.6225 41.1557 57.6225 41.2569 57.6225C41.2907 57.8081 41.3413 57.9768 41.3413 58.1624C41.3582 58.871 41.3413 59.5627 41.3582 60.2713C41.3582 60.4232 41.5269 60.5581 41.6281 60.71C41.7293 60.575 41.8981 60.44 41.9149 60.2882C41.9655 59.9001 41.9318 59.4952 41.9318 59.1072C41.9318 58.6179 41.9318 58.1117 41.9318 57.6225C42.0836 57.6225 42.2186 57.6225 42.3705 57.6225C42.3705 58.6348 42.3705 59.6471 42.3705 60.6425C42.5223 60.6425 42.6573 60.6594 42.8091 60.6594C42.8766 59.6639 42.9272 58.6516 42.9947 57.6562C43.1128 57.6562 43.2309 57.6731 43.349 57.6731C43.349 58.601 43.349 59.5458 43.349 60.4738C43.4502 60.4738 43.5515 60.4907 43.6527 60.4907C44.3107 59.6639 43.5515 58.5167 44.0745 57.6562C44.1589 57.6562 44.2432 57.6731 44.3276 57.6731C44.3276 58.5335 44.3276 59.394 44.3276 60.2544C44.4457 60.2713 44.5469 60.2882 44.665 60.3051C44.7494 60.0689 44.8843 59.8327 44.8843 59.5965C44.9012 58.213 44.9012 56.8464 44.9012 55.4629C44.9012 55.2436 44.9518 55.0242 44.9687 54.8049C45.0699 54.8049 45.1712 54.8049 45.2555 54.8049C45.2555 56.5258 45.2555 58.2636 45.2555 59.9845C45.3736 60.0014 45.4917 60.0182 45.6098 60.0351C46.2678 59.394 45.5592 58.3479 46.2341 57.6393C46.2847 58.3311 46.3184 59.0228 46.369 59.8495C47.3139 59.2253 46.5378 58.2298 47.1789 57.5212C47.2295 58.2298 47.2801 58.7866 47.3139 59.3434C47.432 59.3602 47.5501 59.3771 47.6513 59.394C47.7525 58.8204 47.8706 58.2298 47.9719 57.6562C48.0225 57.6562 48.0731 57.6562 48.1406 57.6562C48.1912 58.0949 48.2587 58.5167 48.3093 58.9553C48.4105 58.9722 48.4949 58.9891 48.5961 58.9891C48.7311 58.5335 48.8492 58.078 48.9842 57.6225C49.0348 57.6225 49.0854 57.6393 49.136 57.6393C49.2035 57.9093 49.271 58.1792 49.3385 58.466C49.4228 58.4829 49.5241 58.4829 49.6084 58.4998C49.6759 58.1455 49.7603 57.7912 49.8109 57.42C49.8615 57.0151 49.8615 56.6102 49.8784 56.2052C49.9796 56.2052 50.0808 56.2052 50.1652 56.2052C50.1989 56.7789 50.2327 57.3525 50.2664 58.0443C50.9413 57.6056 51.5149 57.3019 52.0211 56.9139C58.1961 52.2235 61.1655 46.0147 60.575 38.2538C59.6471 26.4098 48.6805 17.7547 36.9209 19.5262C28.1814 20.8422 21.3315 27.3884 19.5599 36.1279C17.8559 44.5132 21.787 53.2864 29.2443 57.7912C29.5311 57.9599 29.8517 58.0611 30.1554 58.1961C30.1891 58.2298 30.2397 58.2467 30.2903 58.2805C30.4928 58.4154 30.7121 58.5673 30.9652 58.736C31.0496 58.2636 31.1002 57.9093 31.1677 57.5718C31.252 57.5718 31.3364 57.5718 31.4376 57.5887C31.4545 57.9262 31.4207 58.2636 31.522 58.5673C31.5726 58.7529 31.8088 58.9047 31.9775 59.0734Z" fill="#797979"/>
<path opacity="0.3" d="M31.9793 59.0732C31.8105 58.9045 31.5743 58.7527 31.5068 58.5671C31.4056 58.2634 31.4394 57.9091 31.4225 57.5885C31.3381 57.5885 31.2538 57.5885 31.1525 57.5717C31.1019 57.9091 31.0344 58.2634 30.9501 58.7358C30.697 58.5671 30.4945 58.4153 30.2752 58.2803C30.3596 57.5717 30.4439 56.8799 30.5283 56.1713C30.3764 56.1713 30.2077 56.1544 30.0559 56.1544C30.0896 56.8293 30.1234 57.5211 30.1571 58.1959C29.8534 58.0609 29.5329 57.9597 29.246 57.791C21.7888 53.2863 17.8576 44.513 19.5786 36.1109C21.3501 27.3713 28.2169 20.8083 36.9395 19.5091C48.6991 17.7545 59.6657 26.3928 60.5936 38.2367C61.201 45.9977 58.2147 52.2065 52.0397 56.8968C51.5336 57.2848 50.9599 57.5885 50.285 58.0272C50.2513 57.3355 50.2176 56.7618 50.1838 56.1882C50.0826 56.1882 49.9814 56.1882 49.897 56.1882C49.8801 56.5931 49.8633 56.998 49.8295 57.4029C49.7789 57.7573 49.6945 58.1284 49.627 58.4827C49.5427 58.4659 49.4415 58.4659 49.3571 58.449C49.2896 58.179 49.2221 57.9091 49.1546 57.6223C49.104 57.6223 49.0534 57.6054 49.0028 57.6054C48.8678 58.0609 48.7497 58.5165 48.6147 58.972C48.5135 58.9551 48.4292 58.9383 48.3279 58.9383C48.2773 58.4996 48.2098 58.0778 48.1592 57.6392C48.1086 57.6392 48.058 57.6392 47.9905 57.6392C47.8893 58.2128 47.7712 58.8033 47.6699 59.3769C47.5518 59.3601 47.4337 59.3432 47.3325 59.3263C47.2988 58.7696 47.2481 58.2128 47.1975 57.5042C46.5395 58.2128 47.3325 59.2082 46.3877 59.8325C46.3371 59.0058 46.2865 58.314 46.2527 57.6223C45.5947 58.314 46.2865 59.3601 45.6285 60.0181C45.5104 60.0012 45.3923 59.9843 45.2742 59.9674C45.2742 58.2465 45.2742 56.5088 45.2742 54.7878C45.1729 54.7878 45.0717 54.7878 44.9873 54.7878C44.9705 55.0072 44.9198 55.2265 44.9198 55.4458C44.9198 56.8293 44.9198 58.1959 44.903 59.5794C44.903 59.8156 44.7511 60.0518 44.6836 60.288C44.5655 60.2711 44.4643 60.2543 44.3462 60.2374C44.3462 59.3769 44.3462 58.5165 44.3462 57.656C44.2618 57.656 44.1775 57.6392 44.0931 57.6392C43.5701 58.4996 44.3293 59.6469 43.6713 60.4736C43.5701 60.4736 43.4689 60.4567 43.3676 60.4567C43.3676 59.5288 43.3676 58.584 43.3676 57.656C43.2495 57.656 43.1314 57.6392 43.0133 57.6392C42.9459 58.6346 42.8952 59.6469 42.8278 60.6423C42.6759 60.6423 42.5409 60.6254 42.3891 60.6254C42.3891 59.6131 42.3891 58.6008 42.3891 57.6054C42.2372 57.6054 42.1023 57.6054 41.9504 57.6054C41.9504 58.0947 41.9504 58.6008 41.9504 59.0901C41.9504 59.4782 41.9673 59.8831 41.9336 60.2711C41.9167 60.423 41.748 60.558 41.6467 60.6929C41.5624 60.5411 41.3937 60.4061 41.3768 60.2543C41.343 59.5457 41.3599 58.8539 41.3599 58.1453C41.3599 57.9597 41.3093 57.791 41.2756 57.6054C41.1743 57.6054 41.0731 57.6054 40.9719 57.6054C40.9719 58.0609 40.9719 58.5334 40.9719 58.9889C40.9719 59.4107 41.0056 59.8325 40.955 60.2543C40.9381 60.423 40.7525 60.5748 40.6513 60.7267C40.5669 60.5748 40.4151 60.423 40.4151 60.2543C40.3982 59.1913 40.3982 58.1116 40.3982 57.0486C40.3982 56.745 40.3645 56.4581 40.3476 56.1544C40.2633 56.1544 40.1789 56.1376 40.1114 56.1376C40.0777 56.34 40.0102 56.5594 40.0102 56.7618C39.9933 57.8585 40.0271 58.9551 39.9933 60.0518C39.9933 60.2711 39.8077 60.5073 39.7065 60.7267C39.6221 60.4905 39.4534 60.2711 39.4534 60.0349C39.4197 59.2251 39.4365 58.3984 39.4365 57.5885C39.3184 57.5885 39.2003 57.5717 39.0822 57.5717C39.0316 58.6177 38.9641 59.6638 38.9135 60.7098C38.7617 60.7098 38.6098 60.6929 38.4411 60.6929C38.4411 59.6638 38.4411 58.6346 38.4411 57.5885C38.3061 57.5885 38.188 57.5885 38.0531 57.5885C38.0531 58.584 38.0531 59.5794 38.0531 60.5917C37.9181 60.6086 37.8 60.6423 37.665 60.6592C37.5975 60.3555 37.4794 60.0687 37.4457 59.765C37.4119 59.4107 37.4457 59.0395 37.4288 58.6683C37.4119 58.2971 37.3951 57.9428 37.3782 57.5717C37.277 57.5717 37.1757 57.5717 37.0745 57.5717C37.0745 58.5334 37.0745 59.495 37.0745 60.4567C36.9395 60.4736 36.8046 60.4905 36.6696 60.4905C36.1297 59.6131 36.6865 58.4996 36.349 57.5717C36.2647 57.5717 36.1803 57.5717 36.0959 57.5717C36.0959 58.4659 36.0959 59.3769 36.0959 60.2711C35.961 60.3049 35.826 60.3218 35.691 60.3555C35.6067 60.1024 35.4548 59.8662 35.4548 59.6131C35.438 58.2634 35.438 56.9137 35.438 55.5639C35.438 55.3109 35.4042 55.0409 35.3873 54.7878C35.303 54.7878 35.2018 54.7878 35.1174 54.7878C35.1174 56.5425 35.1174 58.2971 35.1174 60.0855C34.4594 59.9 34.4594 59.9 34.4594 58.9214C34.4594 58.4827 34.4594 58.0272 34.4594 57.5885C34.3413 57.5885 34.2401 57.5885 34.122 57.5885C34.0882 58.314 34.0545 59.0395 34.0207 59.7819C33.2109 59.765 33.5483 59.1576 33.4808 58.8202C33.4133 58.4153 33.4302 57.9766 33.4133 57.5548C33.3121 57.5548 33.2278 57.5548 33.1265 57.5548C33.0928 58.179 33.059 58.8033 33.0084 59.5794C32.5866 59.3601 32.2829 59.1914 31.9793 59.0395C32.148 59.0226 32.4517 59.0058 32.4517 58.972C32.4854 58.4996 32.4685 58.0272 32.4685 57.5717C32.3673 57.5717 32.2492 57.5717 32.148 57.5717C32.0805 58.0778 32.0299 58.5671 31.9793 59.0732ZM52.1409 33.3439C52.4446 31.1 51.2805 28.8898 49.3402 27.9956C47.3156 27.0508 45.2404 27.0845 43.2158 27.9112C41.1068 28.7717 40.1114 30.6951 40.4151 32.939C40.6344 34.5249 41.4105 35.7397 42.6928 36.617C43.8063 37.3763 44.9536 38.068 46.084 38.8103C46.5733 39.1309 47.0794 39.4683 47.5181 39.8564C48.3954 40.6325 48.6654 41.6954 48.2436 42.4884C47.8555 43.2307 46.8095 43.6188 45.814 43.3994C44.8017 43.1801 44.2956 42.5221 44.2112 41.3242C44.1944 41.0037 44.1775 40.6662 44.1606 40.3457C42.8446 40.3457 41.5961 40.3457 40.3645 40.3457C39.9933 43.6188 41.7142 46.0483 44.903 46.4701C46.2865 46.6557 47.7712 46.5207 49.1546 46.2508C51.2973 45.8121 52.3771 44.2599 52.4615 42.0666C52.5796 39.4515 51.2805 37.6462 49.2053 36.2796C47.9061 35.436 46.5901 34.643 45.3079 33.7657C44.4643 33.1752 44.2112 32.2979 44.5487 31.4712C44.8692 30.6782 45.561 30.4757 46.3371 30.4757C47.2144 30.4757 47.923 31.0494 48.1592 31.9436C48.2773 32.3991 48.3111 32.8715 48.3954 33.3608C49.6439 33.3439 50.8924 33.3439 52.1409 33.3439ZM27.7445 27.7763C27.93 28.1812 28.0482 28.4343 28.1663 28.6705C29.4316 31.2181 30.6801 33.7488 31.9624 36.2796C32.1817 36.7183 32.1986 37.0726 31.9624 37.5281C30.5958 40.0757 29.2629 42.6402 27.93 45.2047C27.7951 45.4747 27.677 45.7446 27.5083 46.0989C28.5712 46.0989 29.516 46.0989 30.4608 46.0989C32.2155 46.0989 32.1986 46.0989 32.8566 44.4455C33.3121 43.2982 33.7845 42.1509 34.3244 40.7843C35.0162 42.5052 35.5898 43.99 36.1972 45.4578C36.2984 45.694 36.5515 46.0483 36.7539 46.0483C38.1712 46.0989 39.6053 46.082 41.1237 46.082C40.955 45.7277 40.8538 45.4747 40.7188 45.2385C39.4365 42.7752 38.1712 40.2951 36.8214 37.8655C36.4503 37.2075 36.4165 36.6845 36.7877 36.0096C37.4626 34.778 38.0531 33.4958 38.6773 32.2473C39.4028 30.7963 40.1114 29.3453 40.8875 27.7763C39.6053 27.7763 38.458 27.81 37.3107 27.7594C36.6527 27.7256 36.3153 27.9281 36.0791 28.5692C35.5729 29.9527 34.9655 31.3024 34.3244 32.8546C34.122 32.3991 33.987 32.1292 33.8689 31.8423C33.3796 30.6782 32.9241 29.4972 32.4179 28.3499C32.2998 28.1137 31.9793 27.81 31.7431 27.7931C30.4439 27.7425 29.1617 27.7763 27.7445 27.7763ZM46.8601 50.1987C46.8601 49.5576 46.8938 49.0515 46.8432 48.5622C46.7589 47.7017 46.1346 47.2293 45.1054 47.1956C44.0256 47.1618 43.2495 47.5836 43.1821 48.4272C43.0977 49.5745 43.0808 50.7386 43.1821 51.869C43.2664 52.797 44.3631 53.2525 45.5441 53.0163C46.4889 52.8138 46.8938 52.2402 46.7251 51.2448C46.4214 51.2448 46.1177 51.2448 45.7803 51.2448C45.6285 51.7847 45.3754 52.3583 44.7174 52.0546C43.8907 51.6666 44.3462 50.9073 44.3125 50.1987C45.2067 50.1987 45.9828 50.1987 46.8601 50.1987ZM33.4302 51.1942C33.4471 52.2571 33.8351 52.8139 34.6787 52.9994C35.6742 53.2188 36.6696 52.8813 36.9733 52.2065C37.3107 51.4641 37.0239 50.5868 36.2309 49.9963C35.9104 49.7601 35.5392 49.6082 35.2524 49.3383C35.0162 49.119 34.8306 48.7984 34.6956 48.4947C34.6787 48.4441 35.0836 48.1066 35.1174 48.1235C35.4042 48.326 35.6404 48.5959 35.8935 48.8321C35.9272 48.8659 35.9778 48.8996 35.961 48.8827C36.3322 48.8827 36.6527 48.8827 36.9733 48.8827C36.872 47.7861 36.4503 47.2799 35.5392 47.1618C34.6112 47.0269 33.7508 47.4318 33.4977 48.1235C33.2278 48.8827 33.5483 49.5745 34.4088 50.165C34.8306 50.4518 35.303 50.688 35.6235 51.0423C35.7754 51.211 35.6235 51.6497 35.6067 51.9703C35.2861 51.8859 34.7293 51.869 34.6956 51.7341C34.5269 50.9917 34.0207 51.1098 33.4302 51.1942ZM40.8369 51.9703C41.2756 50.2662 42.7265 49.1527 42.6253 47.398C41.4949 47.398 40.4657 47.398 39.4028 47.398C39.3522 49.0008 40.7525 47.8198 41.1575 48.4272C40.7525 49.9457 39.2678 51.0592 39.3859 52.8307C40.5332 52.8307 41.5793 52.8307 42.6759 52.8307C42.6759 52.5439 42.6759 52.2908 42.6759 51.9703C42.0517 51.9703 41.478 51.9703 40.8369 51.9703ZM37.6481 47.3643C37.6481 49.2371 37.6481 51.0423 37.6481 52.8307C38.0362 52.8307 38.3568 52.8307 38.6942 52.8307C38.6942 50.9748 38.6942 49.1864 38.6942 47.3643C38.3399 47.3643 38.0362 47.3643 37.6481 47.3643Z" fill="#797979"/>
<path d="M30.1715 58.1964C30.1378 57.5215 30.1041 56.8298 30.0703 56.1549C30.2222 56.1549 30.3909 56.1718 30.5427 56.1718C30.4584 56.8804 30.374 57.5721 30.2896 58.2807C30.239 58.247 30.2053 58.2132 30.1715 58.1964Z" fill="#797979"/>
<path d="M52.1381 33.3441C50.9064 33.3441 49.6579 33.3441 48.3757 33.3441C48.2913 32.8548 48.2576 32.3824 48.1395 31.9269C47.9033 31.0327 47.1778 30.459 46.3173 30.459C45.5412 30.459 44.8495 30.6615 44.5289 31.4545C44.1915 32.2812 44.4446 33.1585 45.2882 33.749C46.5535 34.6263 47.8864 35.4193 49.1855 36.2629C51.2607 37.6295 52.5599 39.4348 52.4418 42.0499C52.3574 44.2432 51.2776 45.7954 49.1349 46.2341C47.7514 46.5209 46.2667 46.639 44.8832 46.4534C41.6945 46.0316 39.9736 43.6021 40.3448 40.329C41.5764 40.329 42.8249 40.329 44.1409 40.329C44.1578 40.6664 44.1746 40.987 44.1915 41.3075C44.2759 42.5223 44.782 43.1634 45.7943 43.3828C46.8066 43.6021 47.8527 43.214 48.2238 42.4717C48.6456 41.6618 48.3757 40.6158 47.4984 39.8397C47.0597 39.4517 46.5704 39.1142 46.0643 38.7937C44.9339 38.0513 43.7866 37.3596 42.6731 36.6003C41.3908 35.723 40.5978 34.5082 40.3954 32.9223C40.0917 30.6615 41.0871 28.755 43.1961 27.8945C45.2375 27.0678 47.2959 27.0341 49.3205 27.9789C51.2776 28.89 52.4418 31.1002 52.1381 33.3441Z" fill="#797979"/>
<path d="M27.7421 27.7762C29.1593 27.7762 30.4584 27.7425 31.7407 27.8099C31.9769 27.8268 32.3143 28.1136 32.4155 28.3667C32.9385 29.514 33.3941 30.695 33.8665 31.8591C33.9846 32.146 34.1196 32.4159 34.322 32.8714C34.9631 31.3361 35.5705 29.9864 36.0767 28.586C36.3129 27.9449 36.6503 27.7425 37.3083 27.7762C38.4556 27.8268 39.6029 27.7931 40.8851 27.7931C40.109 29.3621 39.4004 30.8131 38.6749 32.2641C38.0507 33.5294 37.4602 34.7948 36.7853 36.0265C36.4141 36.7013 36.4647 37.2075 36.819 37.8823C38.1519 40.3287 39.4173 42.792 40.7164 45.2553C40.8345 45.4915 40.9526 45.7445 41.1213 46.0989C39.6029 46.0989 38.1688 46.1157 36.7515 46.0651C36.5491 46.0651 36.296 45.7108 36.1948 45.4746C35.5874 44.0068 34.9969 42.5221 34.322 40.8011C33.7821 42.1678 33.3097 43.315 32.8542 44.4623C32.1962 46.1157 32.1962 46.1157 30.4584 46.1157C29.5136 46.1157 28.5519 46.1157 27.5059 46.1157C27.6746 45.7614 27.7927 45.4915 27.9277 45.2215C29.2605 42.657 30.5934 40.0925 31.96 37.5449C32.1962 37.0894 32.1962 36.7519 31.96 36.2964C30.6777 33.7656 29.4292 31.218 28.1639 28.6873C28.0458 28.4173 27.9277 28.1642 27.7421 27.7762Z" fill="#797979"/>
<path d="M46.8589 50.1989C45.9816 50.1989 45.2055 50.1989 44.345 50.1989C44.3787 50.9075 43.9232 51.6667 44.7499 52.0548C45.4079 52.3585 45.661 51.7848 45.8128 51.2449C46.1503 51.2449 46.454 51.2449 46.7576 51.2449C46.9095 52.2235 46.5046 52.814 45.5766 53.0165C44.3956 53.2695 43.299 52.7971 43.2146 51.8692C43.1134 50.7219 43.1134 49.5746 43.2146 48.4274C43.2821 47.5838 44.0582 47.162 45.138 47.1957C46.1503 47.2295 46.7745 47.7019 46.8758 48.5623C46.9095 49.0516 46.8589 49.5578 46.8589 50.1989ZM45.8466 49.3047C45.661 48.866 45.5935 48.478 45.3742 48.2418C45.2561 48.1068 44.733 48.1237 44.6318 48.2586C44.4294 48.5117 44.3787 48.8998 44.2438 49.3047C44.8343 49.3047 45.2392 49.3047 45.8466 49.3047Z" fill="#797979"/>
<path d="M33.43 51.1941C34.0205 51.1098 34.5098 50.9917 34.6954 51.7678C34.7291 51.9027 35.2859 51.9365 35.6064 52.004C35.6233 51.6834 35.7751 51.2616 35.6233 51.076C35.3027 50.7048 34.8303 50.4686 34.4085 50.1987C33.5481 49.625 33.2275 48.9164 33.4975 48.1572C33.7505 47.4486 34.5941 47.0605 35.5389 47.1955C36.45 47.3305 36.8718 47.8198 36.973 48.9164C36.6525 48.9164 36.3319 48.9164 35.9607 48.9164C35.9776 48.9333 35.927 48.8996 35.8932 48.8658C35.6402 48.6296 35.404 48.3597 35.1171 48.1572C35.0834 48.1235 34.6616 48.4778 34.6954 48.5284C34.8303 48.8321 35.0159 49.1358 35.2521 49.372C35.5389 49.6419 35.9101 49.7938 36.2307 50.03C37.0236 50.6036 37.3105 51.4809 36.973 52.2402C36.6862 52.8982 35.6739 53.2525 34.6785 53.0331C33.8349 52.8138 33.4468 52.2739 33.43 51.1941Z" fill="#797979"/>
<path d="M40.8361 51.9705C41.4604 51.9705 42.0509 51.9705 42.6583 51.9705C42.6583 52.3079 42.6583 52.5441 42.6583 52.831C41.5785 52.831 40.5155 52.831 39.3683 52.831C39.267 51.0594 40.7349 49.929 41.1398 48.4274C40.718 47.8201 39.3177 49.0011 39.3851 47.3983C40.4481 47.3983 41.4772 47.3983 42.6076 47.3983C42.7426 49.1361 41.2748 50.2665 40.8361 51.9705Z" fill="#797979"/>
<path d="M37.6465 47.3647C38.0345 47.3647 38.3382 47.3647 38.6925 47.3647C38.6925 49.1868 38.6925 50.9921 38.6925 52.8311C38.3551 52.8311 38.0345 52.8311 37.6465 52.8311C37.6465 51.0427 37.6465 49.2374 37.6465 47.3647Z" fill="#797979"/>
<path d="M31.9778 59.0732C32.0284 58.584 32.079 58.0778 32.1297 57.5885C32.2309 57.5885 32.349 57.5885 32.4502 57.5885C32.4502 58.0609 32.4671 58.5333 32.4333 58.9889C32.4333 59.0226 32.1297 59.0395 31.9609 59.0564C31.9609 59.0395 31.9778 59.0732 31.9778 59.0732Z" fill="#797979"/>
<path opacity="0.3" d="M45.8482 49.3053C45.2408 49.3053 44.8359 49.3053 44.2285 49.3053C44.3635 48.9004 44.4141 48.5124 44.6166 48.2593C44.7347 48.1243 45.2408 48.1074 45.3589 48.2424C45.5951 48.4786 45.6626 48.8667 45.8482 49.3053Z" fill="#797979"/>
</svg>
