<svg width="80" height="80" viewBox="0 0 80 80" fill="none" xmlns="http://www.w3.org/2000/svg">
<rect width="80" height="80" rx="16" fill="#D4EFE3"/>
<path opacity="0.3" d="M36 34H54V48L46 54H36L30 50H26V38H32L36 34Z" fill="#12B76A"/>
<path d="M46 56H36C35.6 56 35.2 55.8 34.8 55.6L29.4 52H26C24.8 52 24 51.2 24 50V38C24 36.8 24.8 36 26 36H31.2L34.6 32.6C35 32.2 35.4 32 36 32H54C55.2 32 56 32.8 56 34V48C56 48.6 55.8 49.2 55.2 49.6L47.2 55.6C46.8 55.8 46.4 56 46 56ZM36.6 52H45.4L52 47V36H36.8L33.4 39.4C33 39.8 32.6 40 32 40H28V48H30C30.4 48 30.8 48.2 31.2 48.4L36.6 52ZM60 34H64V46H60V34ZM16 38H20V48H16V38ZM42 22H46V28H42V22Z" fill="#12B76A"/>
<path d="M36 20H52V24H36V20ZM42 36L36 46H40V52L46 42H42V36Z" fill="#12B76A"/>
</svg>
