<svg width="80" height="80" viewBox="0 0 80 80" fill="none" xmlns="http://www.w3.org/2000/svg">
<rect width="80" height="80" rx="16" fill="#D4EFE3"/>
<path d="M40.051 40.6754C40.051 42.5789 40.051 44.3996 40.051 46.2203C40.051 46.303 40.0629 46.3976 40.051 46.4804C39.8855 47.7099 40.1338 48.573 41.3752 49.306C43.1131 50.3464 43.7397 52.4154 43.2668 54.1415C42.7348 56.0567 40.985 57.6646 39.0579 57.8538C37.119 58.0548 35.653 57.1444 34.5771 55.5956C33.5486 54.106 33.454 52.5218 34.317 50.9139C34.8845 49.8735 35.7239 49.1168 36.7998 48.5966C36.989 48.502 37.2136 48.2538 37.2136 48.0646C37.2372 45.6291 37.2372 43.1937 37.2372 40.7109C34.4589 40.7109 31.7042 40.7109 28.8904 40.7109C28.8904 41.2548 28.8904 41.7986 28.8904 42.3306C28.8904 44.1395 28.9141 45.9484 28.8786 47.7454C28.8668 48.242 28.9969 48.502 29.4698 48.7385C31.4205 49.708 32.52 51.706 32.2481 53.6922C31.988 55.6311 30.2501 57.44 28.2047 57.8065C26.2303 58.1612 24.7289 57.2745 23.5821 55.7493C22.4707 54.2715 22.3052 52.64 23.1801 50.973C23.7358 49.9208 24.5634 49.1287 25.651 48.6439C26.0057 48.4902 26.1121 48.3011 26.1121 47.9227C26.1003 42.5907 26.1003 37.2587 26.1121 31.9267C26.1121 31.5011 25.9111 31.3828 25.6037 31.241C23.5939 30.2833 22.4116 28.238 22.6954 26.24C22.9909 24.2065 24.7643 22.3858 26.9042 22.0784C28.8313 21.8065 30.2855 22.6932 31.385 24.1828C32.4727 25.6488 32.6264 27.2567 31.7752 28.9119C31.2313 29.9759 30.3919 30.7326 29.3279 31.2764C29.1387 31.371 28.9141 31.6311 28.9141 31.8203C28.8904 33.7592 28.9023 35.6981 28.9023 37.6252C28.9023 37.6843 28.9377 37.7434 28.9732 37.8498C31.7042 37.8498 34.4235 37.8498 37.2491 37.8498C37.2491 37.3178 37.2491 36.7976 37.2491 36.2892C37.2491 34.9415 37.2254 33.5937 37.2609 32.2459C37.2727 31.7375 37.1545 31.4538 36.6461 31.2055C34.6363 30.2597 33.5131 28.1789 33.8205 26.169C34.1279 24.1828 35.9486 22.374 38.0412 22.0902C39.9092 21.8301 41.3397 22.6932 42.4274 24.1237C43.5387 25.5779 43.7515 27.174 42.9239 28.841C42.4037 29.905 41.5762 30.6853 40.5239 31.2528C40.3348 31.3474 40.0865 31.5484 40.0747 31.7139C40.0392 33.7592 40.051 35.7927 40.051 37.8735C43.7752 37.8735 47.4402 37.8735 51.1407 37.8735C51.1407 35.7218 51.1407 33.5937 51.1407 31.4538C49.6865 30.8153 48.5988 29.7868 48.0668 28.2617C47.3693 26.2636 48.2914 24.0055 50.2776 22.7759C52.1456 21.6055 54.321 21.8774 55.9525 23.4617C58.4707 25.9208 57.8087 29.704 54.5693 31.2528C54.0964 31.4774 53.9427 31.7139 53.9545 32.2222C54.0018 34.5513 53.99 36.8804 54.0018 39.2094C54.0018 40.1198 53.4106 40.6991 52.4885 40.6991C48.5988 40.6991 44.6973 40.6991 40.8077 40.6991C40.5831 40.6754 40.3702 40.6754 40.051 40.6754ZM36.5397 53.0656C36.5397 54.3897 37.2727 55.1346 38.585 55.1227C39.8737 55.1109 40.5949 54.3897 40.6067 53.1011C40.6185 51.7296 39.9092 51.0321 38.5141 51.0321C37.2491 51.0203 36.5515 51.7415 36.5397 53.0656ZM25.4382 53.0656C25.4501 54.4016 26.1831 55.1227 27.5072 55.1109C28.8195 55.0991 29.5407 54.3543 29.517 53.0183C29.5052 51.6942 28.7722 51.0085 27.4126 51.0203C26.1358 51.0203 25.4264 51.7533 25.4382 53.0656ZM40.6185 26.8784C40.6303 25.5306 39.9328 24.8213 38.585 24.8213C37.2609 24.8213 36.5515 25.4952 36.5397 26.7956C36.5279 28.1434 37.2136 28.8764 38.4668 28.9001C39.8737 28.9237 40.6067 28.2262 40.6185 26.8784ZM29.517 26.8429C29.5052 25.507 28.784 24.8094 27.4363 24.8213C26.1358 24.8331 25.4382 25.5424 25.4382 26.8548C25.4382 28.2262 26.1594 28.9237 27.5427 28.9001C28.8313 28.8883 29.5289 28.1553 29.517 26.8429ZM50.6323 26.8784C50.6323 28.1789 51.3535 28.9119 52.6303 28.9119C54.0018 28.9119 54.7111 28.2025 54.7111 26.8193C54.7111 25.5306 53.99 24.8213 52.6776 24.8213C51.3417 24.8213 50.6205 25.5424 50.6323 26.8784Z" fill="#12B76A"/>
<path d="M51.1758 53.8932C51.1758 54.7326 51.1758 55.5601 51.1758 56.3759C51.1639 57.2508 50.5964 57.8892 49.8162 57.901C49.0004 57.9129 48.4093 57.2863 48.4093 56.3759C48.3974 53.4912 48.3974 50.5946 48.4093 47.7099C48.4093 46.705 48.9413 46.1848 49.9344 46.173C51.0694 46.1611 52.2043 46.0784 53.3157 46.1966C54.1078 46.2794 54.959 46.504 55.6329 46.9178C57.7728 48.2301 57.9738 50.8311 56.1531 52.569C55.9403 52.7818 55.692 52.9592 55.4083 53.1956C55.9994 54.0232 56.6024 54.8508 57.1817 55.6902C57.5836 56.2695 57.5364 56.9434 57.0989 57.4399C56.6733 57.9247 55.9876 58.0784 55.4437 57.7592C55.1955 57.6173 54.9708 57.369 54.7935 57.1326C54.1787 56.3168 53.5403 55.5129 53.0201 54.638C52.5945 53.8931 52.0625 53.6212 51.1758 53.8932ZM51.2112 50.9966C51.5068 50.9966 51.7432 50.9966 51.9797 50.9966C52.559 50.9848 53.1501 51.0202 53.7295 50.9611C54.3797 50.902 54.6162 50.5237 54.628 49.838C54.628 49.2232 54.2969 48.9867 53.7413 48.9867C52.9019 48.9749 52.0743 48.9867 51.2112 48.9867C51.2112 49.6843 51.2112 50.2991 51.2112 50.9966Z" fill="#12B76A"/>
</svg>
