<svg width="80" height="80" viewBox="0 0 80 80" fill="none" xmlns="http://www.w3.org/2000/svg">
<rect width="80" height="80" rx="16" fill="#D4EFE3"/>
<path opacity="0.3" d="M44 26V50H33.8C33.4 47.8 31.4 46 29 46C26.6 46 24.6 47.8 24.2 50H20V26H44Z" fill="#12B76A"/>
<path d="M29 58C25.2 58 22 54.8 22 51C22 47.2 25.2 44 29 44C32.8 44 36 47.2 36 51C36 54.8 32.8 58 29 58ZM29 48C27.4 48 26 49.4 26 51C26 52.6 27.4 54 29 54C30.6 54 32 52.6 32 51C32 49.4 30.6 48 29 48ZM53 58C49.2 58 46 54.8 46 51C46 47.2 49.2 44 53 44C56.8 44 60 47.2 60 51C60 54.8 56.8 58 53 58ZM53 48C51.4 48 50 49.4 50 51C50 52.6 51.4 54 53 54C54.6 54 56 52.6 56 51C56 49.4 54.6 48 53 48Z" fill="#12B76A"/>
<path d="M24 52H20C18.8 52 18 51.2 18 50V26C18 24.8 18.8 24 20 24H44C45.2 24 46 24.8 46 26V35H42V28H22V48H24V52Z" fill="#12B76A"/>
<path d="M26 32H30V42H26V32ZM34 32H38V42H34V32ZM34 48H48V52H34V48Z" fill="#12B76A"/>
<path d="M62 52H58V48H60V42.6C60 42.2 59.8 41.8 59.8 41.6L55.8 35C55.2 34.4 54.6 34 54 34H46V50H42V32C42 30.8 42.8 30 44 30H54C56 30 58 31 59.2 32.8L63.2 39.4C63.8 40.4 64 41.4 64 42.6V50C64 51.2 63.2 52 62 52Z" fill="#12B76A"/>
</svg>
