<svg width="80" height="80" viewBox="0 0 80 80" fill="none" xmlns="http://www.w3.org/2000/svg">
<rect width="80" height="80" rx="16" fill="#E4E4E4"/>
<path opacity="0.3" d="M40 22C37.6362 22 35.2956 22.4656 33.1117 23.3702C30.9278 24.2748 28.9435 25.6006 27.2721 27.2721C25.6006 28.9435 24.2748 30.9278 23.3702 33.1117C22.4656 35.2956 22 37.6362 22 40C22 42.3638 22.4656 44.7044 23.3702 46.8883C24.2748 49.0722 25.6006 51.0565 27.2721 52.7279C28.9435 54.3994 30.9278 55.7253 33.1117 56.6298C35.2956 57.5344 37.6362 58 40 58C42.3638 58 44.7044 57.5344 46.8883 56.6298C49.0722 55.7253 51.0565 54.3994 52.7279 52.7279C54.3994 51.0565 55.7253 49.0722 56.6298 46.8883C57.5344 44.7044 58 42.3638 58 40C58 37.6362 57.5344 35.2956 56.6298 33.1117C55.7253 30.9278 54.3994 28.9435 52.7279 27.2721C51.0565 25.6006 49.0722 24.2748 46.8883 23.3702C44.7044 22.4656 42.3638 22 40 22Z" fill="#797979"/>
<path d="M46.6 49.4L38 40.8V28H42V39.2L49.4 46.6L46.6 49.4Z" fill="#797979"/>
<path d="M40 60C29 60 20 51 20 40C20 29 29 20 40 20C51 20 60 29 60 40C60 51 51 60 40 60ZM40 24C31.2 24 24 31.2 24 40C24 48.8 31.2 56 40 56C48.8 56 56 48.8 56 40C56 31.2 48.8 24 40 24Z" fill="#797979"/>
</svg>
