<svg width="80" height="80" viewBox="0 0 80 80" fill="none" xmlns="http://www.w3.org/2000/svg">
<rect width="80" height="80" rx="16" fill="#E4E4E4"/>
<path opacity="0.3" d="M48 30H28V60H48V30Z" fill="#797979"/>
<path d="M54 60H22" stroke="#797979" stroke-width="2"/>
<path d="M28 60V24C28 21.79 29.79 20 32 20H44C46.21 20 48 21.79 48 24V60" stroke="#797979" stroke-width="2"/>
<path d="M48 50H54C56.21 50 58 48.21 58 46V32L52 26" stroke="#797979" stroke-width="2"/>
<path d="M28 30H48" stroke="#797979" stroke-width="2"/>
<path d="M54 28V34C54 35.104 54.896 36 56 36H58V32L54 28Z" fill="#797979"/>
<path d="M38.3369 35.774C37.2729 39.63 33.3129 39.884 32.3249 43.466C31.8009 45.368 32.8049 48.622 36.0109 49.436C35.4749 50.096 33.7129 51.016 32.3729 51.686L34.6089 53.688C35.9769 52.676 37.0209 51.528 37.8429 50.384C37.8609 50.356 37.8609 50.344 37.8809 50.314C39.4389 48.028 39.8889 46.034 40.4029 43.694C41.0229 46.146 40.6109 48.34 40.1749 49.734C41.7409 49.236 42.9749 48.11 43.4129 46.524C44.0309 44.278 43.5889 39.298 38.3369 35.774Z" fill="#797979"/>
</svg>
