<svg width="80" height="80" viewBox="0 0 80 80" fill="none" xmlns="http://www.w3.org/2000/svg">
<rect width="80" height="80" rx="16" fill="#E4E4E4"/>
<path opacity="0.3" d="M52 34C52 40.628 40 56 40 56C40 56 28 40.628 28 34C28 27.372 33.372 22 40 22C46.628 22 52 27.372 52 34Z" fill="#797979"/>
<path d="M40 39C37.238 39 35 36.762 35 34C35 31.238 37.238 29 40 29C42.762 29 45 31.238 45 34C45 36.762 42.762 39 40 39Z" fill="#797979"/>
<path d="M39.9997 20.02C32.2877 20.02 26.0137 26.294 26.0137 34.006C26.0137 42.972 37.9497 57.54 38.4577 58.154L39.9997 60.024L41.5417 58.154C42.0497 57.538 53.9857 42.972 53.9857 34.006C53.9857 26.292 47.7117 20.02 39.9997 20.02ZM39.9997 53.654C36.2437 48.728 30.0137 39.424 30.0137 34.006C30.0137 28.5 34.4937 24.02 39.9997 24.02C45.5057 24.02 49.9857 28.5 49.9857 34.006C49.9857 39.416 43.7557 48.724 39.9997 53.654Z" fill="#797979"/>
</svg>
