<svg width="80" height="80" viewBox="0 0 80 80" fill="none" xmlns="http://www.w3.org/2000/svg">
<rect width="80" height="80" rx="16" fill="#E4E4E4"/>
<path opacity="0.3" d="M60 40V52H55.8C55.8 51.6 55.8 51.4 55.8 51C55.8 48.2 53.6 46 50.8 46C48 46 46 48.2 46 51C46 51.4 46 51.6 46 52H29.8C30 51.6 30 51.4 30 51C30 48.2 27.8 46 25 46C22.2 46 20 48.2 20 51C20 51.4 20 51.6 20 52H18V38H50L60 40Z" fill="#797979"/>
<path d="M40 32C39.4696 32 38.9609 32.2107 38.5858 32.5858C38.2107 32.9609 38 33.4696 38 34C38 34.5304 38.2107 35.0391 38.5858 35.4142C38.9609 35.7893 39.4696 36 40 36C40.5304 36 41.0391 35.7893 41.4142 35.4142C41.7893 35.0391 42 34.5304 42 34C42 33.4696 41.7893 32.9609 41.4142 32.5858C41.0391 32.2107 40.5304 32 40 32ZM28 32C27.4696 32 26.9609 32.2107 26.5858 32.5858C26.2107 32.9609 26 33.4696 26 34C26 34.5304 26.2107 35.0391 26.5858 35.4142C26.9609 35.7893 27.4696 36 28 36C28.5304 36 29.0391 35.7893 29.4142 35.4142C29.7893 35.0391 30 34.5304 30 34C30 33.4696 29.7893 32.9609 29.4142 32.5858C29.0391 32.2107 28.5304 32 28 32ZM32 28H36V36H32V28ZM25 58C21.2 58 18 54.8 18 51C18 47.2 21.2 44 25 44C28.8 44 32 47.2 32 51C32 54.8 28.8 58 25 58ZM25 48C23.4 48 22 49.4 22 51C22 52.6 23.4 54 25 54C26.6 54 28 52.6 28 51C28 49.4 26.6 48 25 48ZM51 58C47.2 58 44 54.8 44 51C44 47.2 47.2 44 51 44C54.8 44 58 47.2 58 51C58 54.8 54.8 58 51 58ZM51 48C49.4 48 48 49.4 48 51C48 52.6 49.4 54 51 54C52.6 54 54 52.6 54 51C54 49.4 52.6 48 51 48Z" fill="#797979"/>
<path d="M30 50H46V54H30V50Z" fill="#797979"/>
<path d="M20 54C17.8 54 16 52.2 16 50V38C16 37.6 16 37.4 16.2 37.2L21.6 26C22.4 24.6 23.8 24 25.2 24H43C44.4 24 45.8 24.8 46.4 26L51.4 36.2L58.8 37.6C60.6 38 62 39.6 62 41.6V50C62 50.8 61.6 51.4 60.8 51.8L56.8 53.8L55 50.2L57.8 48.8V41.6L49.6 40C49 39.8 48.4 39.4 48.2 39L42.8 28H25.2L20 38.4V54Z" fill="#797979"/>
<path d="M18 36H50V40H18V36Z" fill="#797979"/>
</svg>
