<svg width="80" height="80" viewBox="0 0 80 80" fill="none" xmlns="http://www.w3.org/2000/svg">
<rect width="80" height="80" rx="16" fill="#E4E4E4"/>
<path d="M40.051 40.6754C40.051 42.5788 40.051 44.3995 40.051 46.2202C40.051 46.303 40.0629 46.3976 40.051 46.4803C39.8855 47.7099 40.1338 48.5729 41.3752 49.3059C43.1131 50.3463 43.7397 52.4153 43.2668 54.1414C42.7348 56.0567 40.985 57.6646 39.0579 57.8537C37.119 58.0547 35.653 57.1444 34.5771 55.5956C33.5486 54.1059 33.454 52.5217 34.317 50.9138C34.8845 49.8734 35.7239 49.1168 36.7998 48.5966C36.989 48.502 37.2136 48.2537 37.2136 48.0646C37.2372 45.6291 37.2372 43.1936 37.2372 40.7109C34.4589 40.7109 31.7042 40.7109 28.8904 40.7109C28.8904 41.2547 28.8904 41.7985 28.8904 42.3306C28.8904 44.1394 28.9141 45.9483 28.8786 47.7453C28.8668 48.2419 28.9969 48.502 29.4698 48.7384C31.4205 49.7079 32.52 51.7059 32.2481 53.6921C31.988 55.6311 30.2501 57.4399 28.2047 57.8064C26.2303 58.1611 24.7289 57.2744 23.5821 55.7493C22.4707 54.2715 22.3052 52.6399 23.1801 50.9729C23.7358 49.9207 24.5634 49.1286 25.651 48.6439C26.0057 48.4902 26.1121 48.301 26.1121 47.9227C26.1003 42.5907 26.1003 37.2586 26.1121 31.9266C26.1121 31.501 25.9111 31.3828 25.6037 31.2409C23.5939 30.2833 22.4116 28.2379 22.6954 26.2399C22.9909 24.2064 24.7643 22.3857 26.9042 22.0783C28.8313 21.8064 30.2855 22.6931 31.385 24.1828C32.4727 25.6488 32.6264 27.2567 31.7752 28.9118C31.2313 29.9759 30.3919 30.7325 29.3279 31.2764C29.1387 31.371 28.9141 31.6311 28.9141 31.8202C28.8904 33.7591 28.9023 35.698 28.9023 37.6251C28.9023 37.6843 28.9377 37.7434 28.9732 37.8498C31.7042 37.8498 34.4235 37.8498 37.2491 37.8498C37.2491 37.3178 37.2491 36.7976 37.2491 36.2892C37.2491 34.9414 37.2254 33.5936 37.2609 32.2458C37.2727 31.7375 37.1545 31.4537 36.6461 31.2054C34.6363 30.2596 33.5131 28.1788 33.8205 26.169C34.1279 24.1828 35.9486 22.3739 38.0412 22.0902C39.9092 21.8301 41.3397 22.6931 42.4274 24.1237C43.5387 25.5779 43.7515 27.1739 42.9239 28.8409C42.4037 29.9049 41.5762 30.6852 40.5239 31.2527C40.3348 31.3473 40.0865 31.5483 40.0747 31.7138C40.0392 33.7591 40.051 35.7926 40.051 37.8734C43.7752 37.8734 47.4402 37.8734 51.1407 37.8734C51.1407 35.7217 51.1407 33.5936 51.1407 31.4537C49.6865 30.8153 48.5988 29.7867 48.0668 28.2616C47.3693 26.2636 48.2914 24.0054 50.2776 22.7759C52.1456 21.6054 54.321 21.8774 55.9525 23.4616C58.4707 25.9207 57.8087 29.704 54.5693 31.2527C54.0964 31.4774 53.9427 31.7138 53.9545 32.2222C54.0018 34.5512 53.99 36.8803 54.0018 39.2094C54.0018 40.1197 53.4106 40.699 52.4885 40.699C48.5988 40.699 44.6973 40.699 40.8077 40.699C40.5831 40.6754 40.3702 40.6754 40.051 40.6754ZM36.5397 53.0655C36.5397 54.3897 37.2727 55.1345 38.585 55.1227C39.8737 55.1109 40.5949 54.3897 40.6067 53.101C40.6185 51.7296 39.9092 51.032 38.5141 51.032C37.2491 51.0202 36.5515 51.7414 36.5397 53.0655ZM25.4382 53.0655C25.4501 54.4015 26.1831 55.1227 27.5072 55.1109C28.8195 55.099 29.5407 54.3542 29.517 53.0182C29.5052 51.6941 28.7722 51.0084 27.4126 51.0202C26.1358 51.0202 25.4264 51.7532 25.4382 53.0655ZM40.6185 26.8783C40.6303 25.5306 39.9328 24.8212 38.585 24.8212C37.2609 24.8212 36.5515 25.4951 36.5397 26.7956C36.5279 28.1434 37.2136 28.8764 38.4668 28.9C39.8737 28.9237 40.6067 28.2261 40.6185 26.8783ZM29.517 26.8429C29.5052 25.5069 28.784 24.8094 27.4363 24.8212C26.1358 24.833 25.4382 25.5424 25.4382 26.8547C25.4382 28.2261 26.1594 28.9237 27.5427 28.9C28.8313 28.8882 29.5289 28.1552 29.517 26.8429ZM50.6323 26.8783C50.6323 28.1788 51.3535 28.9118 52.6303 28.9118C54.0018 28.9118 54.7111 28.2025 54.7111 26.8192C54.7111 25.5306 53.99 24.8212 52.6776 24.8212C51.3417 24.8212 50.6205 25.5424 50.6323 26.8783Z" fill="#797979"/>
<path d="M51.1758 53.8932C51.1758 54.7326 51.1758 55.5601 51.1758 56.3759C51.1639 57.2508 50.5964 57.8892 49.8162 57.901C49.0004 57.9129 48.4093 57.2863 48.4093 56.3759C48.3974 53.4912 48.3974 50.5946 48.4093 47.7099C48.4093 46.705 48.9413 46.1848 49.9344 46.173C51.0694 46.1611 52.2043 46.0784 53.3157 46.1966C54.1078 46.2794 54.959 46.504 55.6329 46.9178C57.7728 48.2301 57.9738 50.8311 56.1531 52.569C55.9403 52.7818 55.692 52.9592 55.4083 53.1956C55.9994 54.0232 56.6024 54.8508 57.1817 55.6902C57.5836 56.2695 57.5364 56.9434 57.0989 57.4399C56.6733 57.9247 55.9876 58.0784 55.4437 57.7592C55.1955 57.6173 54.9708 57.369 54.7935 57.1326C54.1787 56.3168 53.5403 55.5129 53.0201 54.638C52.5945 53.8931 52.0625 53.6212 51.1758 53.8932ZM51.2112 50.9966C51.5068 50.9966 51.7432 50.9966 51.9797 50.9966C52.559 50.9848 53.1501 51.0202 53.7295 50.9611C54.3797 50.902 54.6162 50.5237 54.628 49.838C54.628 49.2232 54.2969 48.9867 53.7413 48.9867C52.9019 48.9749 52.0743 48.9867 51.2112 48.9867C51.2112 49.6843 51.2112 50.2991 51.2112 50.9966Z" fill="#797979"/>
</svg>
