<svg width="80" height="80" viewBox="0 0 80 80" fill="none" xmlns="http://www.w3.org/2000/svg">
<rect width="80" height="80" rx="16" fill="#554A25"/>
<path opacity="0.3" d="M56 26C56 26 52 26 49 29.8C44 36 44 39.2 39 43C33.6 47.2 29.2 46.6 26.2 49.4C25.6 49.8 24 52.4 24 52.4V53.6C24.8 54.2 26.8 56 30 56C49.6 56 58 43 58 36C58 30.6 56 28 56 26Z" fill="#FFCC17"/>
<path d="M30 58C26 58 23.4 55.8 22.6 55L22 54.4V51.8L22.4 51.4C23 50.4 24.2 48.6 24.8 48C26.6 46.4 28.6 45.8 30.6 45C32.8 44.2 35.2 43.6 37.8 41.4C40.4 39.4 41.4 37.6 43 35.2C44 33.4 45.4 31.4 47.4 28.6C49.8 25.6 52.8 24.6 54.6 24.2C55.4 22.8 57 21.6 59 20.4L61.2 23.8C60 24.6 58.2 25.8 58 26.2C58 26.6 58.2 27.2 58.6 28C59.2 29.8 60 32.2 60 36C60 43.6 51.2 58 30 58ZM26.2 52.8C27 53.4 28.2 54 30 54C48.4 54 56 42.2 56 36C56 33 55.4 30.8 54.8 29.2C54.6 28.8 54.6 28.6 54.4 28.2C53.2 28.6 51.8 29.4 50.4 31C48.4 33.4 47.4 35.4 46.4 37C44.8 39.6 43.4 42 40.2 44.4C37 46.8 34.2 47.8 31.8 48.6C30 49.2 28.6 49.6 27.4 50.6C27.4 51 26.8 51.8 26.2 52.8Z" fill="#FFCC17"/>
</svg>
