<svg width="80" height="80" viewBox="0 0 80 80" fill="none" xmlns="http://www.w3.org/2000/svg">
<rect width="80" height="80" rx="16" fill="#D4EFE3"/>
<path opacity="0.3" d="M55.9802 29.608C55.8382 28.686 54.9962 28 54.0002 28H26.0002C25.0042 28 24.1622 28.686 24.0202 29.608L22.0202 55.858C21.9382 56.396 22.1082 56.942 22.4882 57.352C22.8682 57.762 23.4202 58 24.0002 58H56.0002C56.5802 58 57.1302 57.764 57.5102 57.354C57.8902 56.944 58.0602 56.398 57.9782 55.86L55.9802 29.608Z" fill="#12B76A"/>
<path d="M56 60H24C22.864 60 21.776 59.53 21.02 58.71C20.226 57.854 19.868 56.704 20.044 55.556L22.026 29.456C22.338 27.39 24.002 26 26 26H54C55.998 26 57.662 27.39 57.958 29.304L57.976 29.456L59.974 55.706C60.132 56.704 59.774 57.854 58.976 58.714C58.222 59.53 57.136 60 56 60ZM25.996 30L24.014 56.012L56 56L54.006 30.01L25.996 30Z" fill="#12B76A"/>
<path d="M45.9996 28C44.8936 28 43.9996 27.106 43.9996 26C43.9996 23.794 42.2056 22 39.9996 22C37.7936 22 35.9996 23.794 35.9996 26C35.9996 27.106 35.1056 28 33.9996 28C32.8936 28 31.9996 27.106 31.9996 26C31.9996 21.588 35.5876 18 39.9996 18C44.4116 18 47.9996 21.588 47.9996 26C47.9996 27.106 47.1056 28 45.9996 28ZM33.5456 45.424L32.6216 46.348V49.338H29.3516V34.412H32.6236V42.336L32.9536 41.898L35.4196 38.83H39.3436L35.6636 43.152L39.5856 49.338H35.8376L33.5456 45.424ZM40.4996 44.006C40.4996 42.946 40.6756 42.006 41.0236 41.19C41.3756 40.376 41.8756 39.744 42.5296 39.302C43.1836 38.858 43.9456 38.636 44.8136 38.636C45.9076 38.636 46.7636 39.006 47.3756 39.744L47.4936 38.83H50.4656V48.94C50.4656 49.866 50.2516 50.67 49.8176 51.354C49.3876 52.036 48.7676 52.562 47.9496 52.926C47.1336 53.294 46.1876 53.474 45.1136 53.474C44.3436 53.474 43.5976 53.33 42.8756 53.036C42.1536 52.744 41.6016 52.366 41.2196 51.902L42.5896 49.978C43.1976 50.696 44.0016 51.056 44.9976 51.056C46.4476 51.056 47.1736 50.312 47.1736 48.824V48.492C46.5456 49.186 45.7516 49.532 44.7956 49.532C43.5136 49.532 42.4776 49.044 41.6856 48.062C40.8956 47.082 40.5016 45.77 40.5016 44.124V44.006H40.4996ZM43.7816 44.21C43.7816 45.07 43.9456 45.752 44.2696 46.252C44.5916 46.754 45.0456 47.006 45.6296 47.006C46.3336 47.006 46.8476 46.768 47.1716 46.296V41.878C46.8556 41.4 46.3476 41.16 45.6476 41.16C45.0636 41.16 44.6076 41.422 44.2756 41.942C43.9476 42.464 43.7816 43.218 43.7816 44.21Z" fill="#12B76A"/>
</svg>
