<svg width="80" height="80" viewBox="0 0 80 80" fill="none" xmlns="http://www.w3.org/2000/svg">
<rect width="80" height="80" rx="16" fill="#E4E4E4"/>
<path d="M58 28H51.984C50.08 24.44 46.216 22 41.75 22C41.344 22 27.25 22 27.25 22V28H22V31.5H27.25V34.5H22V38H27.25V58H32V44C32 44 41.218 44 41.75 44C46.216 44 50.08 41.56 51.984 38H58V34.5H53.13C53.2 34.008 53.25 33.51 53.25 33C53.25 32.49 53.202 31.992 53.13 31.5H58V28ZM32 26H41.5C43.404 26 45.126 26.766 46.388 28H32V26ZM41.5 40H32V38H46.388C45.126 39.234 43.404 40 41.5 40ZM48.33 34.5H32V31.5H48.33C48.436 31.984 48.5 32.484 48.5 33C48.5 33.516 48.436 34.016 48.33 34.5Z" fill="#797979"/>
</svg>
