<svg width="80" height="80" viewBox="0 0 80 80" fill="none" xmlns="http://www.w3.org/2000/svg">
<rect width="80" height="80" rx="16" fill="#E4E4E4"/>
<path d="M50 26H30C27.6 26 24 24.4 24 20H28C28 21.6 29 22 30 22H50C51 22 52 21.6 52 20H56C56 24.4 52.4 26 50 26ZM52 60H28C25.8 60 24 58.2 24 56V46.2C24 37.4 31 30.2 39.8 30H40C48.8 30.2 55.8 37.4 55.8 46.2V56C56 58.2 54.2 60 52 60ZM40 34C33.4 34 28 39.4 28 46.2V56H52V46.2C52 39.4 46.6 34 40 34Z" fill="#797979"/>
<path opacity="0.3" d="M39.8 32C47.6 32 54 38.4 54 46.2V56C54 57.2 53.2 58 52 58H28C26.8 58 26 57.2 26 56V46.2C26 38.4 32.4 32 40.2 32H39.8Z" fill="#797979"/>
<path d="M38 24H42V32H38V24ZM41.4 47.4C41 47.8 40.6 48 40 48C39.4 48 39 47.8 38.6 47.4C37.8 46.6 37.8 45.4 38.6 44.6L44 39.2C42.8 38.4 41.4 38 40 38C35.6 38 32 41.6 32 46C32 50.4 35.6 54 40 54C44.4 54 48 50.4 48 46C48 44.6 47.6 43.2 46.8 42L41.4 47.4Z" fill="#797979"/>
</svg>
