<svg width="80" height="80" viewBox="0 0 80 80" fill="none" xmlns="http://www.w3.org/2000/svg">
<rect width="80" height="80" rx="16" fill="#E4E4E4"/>
<path opacity="0.13" d="M38 32H58V56H38V32Z" fill="#797979"/>
<path d="M20 22V58H40V22H20ZM28 30H24V26H28V30ZM36 30H32V26H36V30ZM28 38H24V34H28V38ZM36 38H32V34H36V38ZM28 46H24V42H28V46ZM36 46H32V42H36V46ZM28 54H24V50H28V54ZM36 54H32V50H36V54ZM40 30V34H56V54H40V58H60V30H40Z" fill="#797979"/>
<path d="M38 38H44V42H38V38ZM38 46H44V50H38V46ZM48 38H52V42H48V38ZM48 46H52V50H48V46Z" fill="#797979"/>
</svg>
