<svg width="80" height="80" viewBox="0 0 80 80" fill="none" xmlns="http://www.w3.org/2000/svg">
<rect width="80" height="80" rx="16" fill="#E4E4E4"/>
<path opacity="0.3" d="M24 24H56V36H24V24Z" fill="#797979"/>
<path d="M54 58H26C23.8 58 22 56.2 22 54V26C22 23.8 23.8 22 26 22H54C56.2 22 58 23.8 58 26V54C58 56.2 56.2 58 54 58ZM26 26V54H54V26H26Z" fill="#797979"/>
<path d="M24 34H56V38H24V34ZM30 28C29.4696 28 28.9609 28.2107 28.5858 28.5858C28.2107 28.9609 28 29.4696 28 30C28 30.5304 28.2107 31.0391 28.5858 31.4142C28.9609 31.7893 29.4696 32 30 32C30.5304 32 31.0391 31.7893 31.4142 31.4142C31.7893 31.0391 32 30.5304 32 30C32 29.4696 31.7893 28.9609 31.4142 28.5858C31.0391 28.2107 30.5304 28 30 28ZM36 28C35.4696 28 34.9609 28.2107 34.5858 28.5858C34.2107 28.9609 34 29.4696 34 30C34 30.5304 34.2107 31.0391 34.5858 31.4142C34.9609 31.7893 35.4696 32 36 32C36.5304 32 37.0391 31.7893 37.4142 31.4142C37.7893 31.0391 38 30.5304 38 30C38 29.4696 37.7893 28.9609 37.4142 28.5858C37.0391 28.2107 36.5304 28 36 28ZM42 48H50V52H42V48ZM42 42H50V46H42V42ZM42 28H50V32H42V28ZM33 40C32.2044 40 31.4413 40.3161 30.8787 40.8787C30.3161 41.4413 30 42.2044 30 43C30 43.7956 30.3161 44.5587 30.8787 45.1213C31.4413 45.6839 32.2044 46 33 46C33.7956 46 34.5587 45.6839 35.1213 45.1213C35.6839 44.5587 36 43.7956 36 43C36 42.2044 35.6839 41.4413 35.1213 40.8787C34.5587 40.3161 33.7956 40 33 40ZM28 50.6C28 48.8 31.4 48 33 48C34.6 48 38 48.8 38 50.6V52H28V50.6Z" fill="#797979"/>
</svg>
