<svg width="80" height="80" viewBox="0 0 80 80" fill="none" xmlns="http://www.w3.org/2000/svg">
<rect width="80" height="80" rx="16" fill="#FFF1DB"/>
<path d="M43.8927 16.1074C43.6059 16.096 43.3219 16.1672 43.0743 16.3124C41.4224 17.2497 40.0681 18.6425 39.1759 20.3222C39.0764 20.5096 39.0179 20.716 39.004 20.9277C38.6172 20.942 38.227 20.9694 37.8341 21.0175C31.6735 21.7728 26.7838 26.8224 26.1896 32.996C25.9317 35.6836 26.4823 38.2424 27.6193 40.4375C28.3197 41.7892 28.9047 43.1199 29.2072 44.4687C29.534 45.9262 29.7339 47.4179 29.8126 48.916C29.844 49.5286 29.8572 50.14 29.8478 50.746V50.748C29.7851 55.2176 33.4552 59.0476 38.1114 59.0839H38.1173H38.2013C42.5911 59.0839 46.5049 56.6251 49.2306 52.8808C51.9562 49.1366 53.5822 44.0766 53.5822 38.5156C53.5822 35.7497 53.1472 33.1347 52.4142 30.7382C52.3427 30.4774 52.2563 30.1747 52.131 29.8457C50.5786 25.4568 46.7919 22.1295 42.1622 21.1914C42.7715 20.2597 43.5848 19.4722 44.5548 18.9218C44.8425 18.7641 45.0705 18.5165 45.204 18.2169C45.3375 17.9173 45.3691 17.5821 45.294 17.2628C45.2189 16.9435 45.0412 16.6576 44.7881 16.4489C44.535 16.2403 44.2205 16.1203 43.8927 16.1074ZM39.1505 23.9199C43.8636 23.7557 47.8435 26.7054 49.3068 30.8496L49.3146 30.873L49.3224 30.8945C49.3887 31.0648 49.4552 31.289 49.5275 31.5527L49.5333 31.5761L49.5392 31.5976C50.1944 33.7335 50.5822 36.0574 50.5822 38.5156C50.5822 43.4865 49.1031 47.9579 46.8048 51.1152C44.5065 54.2724 41.4775 56.0839 38.2013 56.0839H38.1349C35.1039 56.0603 32.8095 53.5985 32.8478 50.7929V50.791C32.8583 50.1103 32.8432 49.4317 32.8087 48.7597V48.7578C32.7214 47.098 32.5001 45.4409 32.1349 43.8125C31.7453 42.0753 31.0369 40.5128 30.2833 39.0585C29.4003 37.3536 28.9738 35.3896 29.1759 33.2832C29.6337 28.5268 33.462 24.5748 38.1993 23.9941C38.5195 23.9549 38.8363 23.9308 39.1505 23.9199Z" fill="#F7AB14"/>
<path d="M39.151 23.9201C43.8641 23.7559 47.844 26.7056 49.3073 30.8498L49.3151 30.8732L49.3229 30.8947C49.3892 31.0651 49.4557 31.2892 49.528 31.5529L49.5339 31.5764L49.5397 31.5978C50.1949 33.7338 50.5827 36.0577 50.5827 38.5158C50.5827 43.4868 49.1037 47.9582 46.8053 51.1154C44.507 54.2727 41.478 56.0842 38.2018 56.0842H38.1354C35.1044 56.0605 32.8101 53.5988 32.8483 50.7931V50.7912C32.8588 50.1106 32.8437 49.432 32.8092 48.7599V48.758C32.7219 47.0982 32.5006 45.4412 32.1354 43.8127C31.7459 42.0755 31.0374 40.5131 30.2839 39.0588C29.4008 37.3539 28.9743 35.3899 29.1764 33.2834C29.6342 28.5271 33.4625 24.5751 38.1999 23.9943C38.5201 23.9551 38.8368 23.931 39.151 23.9201Z" fill="#FDDBA0"/>
</svg>
