<svg width="80" height="80" viewBox="0 0 80 80" fill="none" xmlns="http://www.w3.org/2000/svg">
<rect width="80" height="80" rx="16" fill="#FFF1DB"/>
<path d="M60 28H53.984C52.08 24.44 48.216 22 43.75 22C43.344 22 29.25 22 29.25 22V28H24V31.5H29.25V34.5H24V38H29.25V58H34V44C34 44 43.218 44 43.75 44C48.216 44 52.08 41.56 53.984 38H60V34.5H55.13C55.2 34.008 55.25 33.51 55.25 33C55.25 32.49 55.202 31.992 55.13 31.5H60V28ZM34 26H43.5C45.404 26 47.126 26.766 48.388 28H34V26ZM43.5 40H34V38H48.388C47.126 39.234 45.404 40 43.5 40ZM50.33 34.5H34V31.5H50.33C50.436 31.984 50.5 32.484 50.5 33C50.5 33.516 50.436 34.016 50.33 34.5Z" fill="#F7AB14"/>
</svg>
