<svg width="80" height="80" viewBox="0 0 80 80" fill="none" xmlns="http://www.w3.org/2000/svg">
<rect width="80" height="80" rx="16" fill="#E4E4E4"/>
<path d="M20 36V54H24V50H56V54H60V36C60 33.79 58.21 32 56 32H24C21.79 32 20 33.79 20 36ZM56 46H24V36H56V46Z" fill="#797979"/>
<path d="M38 34H28V31C28 28.238 30.238 26 33 26C35.762 26 38 28.238 38 31V34ZM52 34H42V31C42 28.238 44.238 26 47 26C49.762 26 52 28.238 52 31V34Z" fill="#797979"/>
<path d="M26 34V24H54V34H58V24C58 21.79 56.21 20 54 20H26C23.79 20 22 21.79 22 24V34H26Z" fill="#797979"/>
<path opacity="0.3" d="M58 48H22V36L24 34V22H56V34L58 36V48Z" fill="#797979"/>
</svg>
