<svg width="80" height="80" viewBox="0 0 80 80" fill="none" xmlns="http://www.w3.org/2000/svg">
<rect width="80" height="80" rx="16" fill="#E4E4E4"/>
<path d="M40.0231 22.0295C33.095 28.2719 18.9551 41.0049 18.9551 41.0049H19.6408C19.6408 41.0049 22.9748 41.0049 24.7955 41.0049C24.7955 46.7744 24.7955 52.331 24.7955 57.8995C35.0221 57.8995 45.0713 57.8995 55.2743 57.8995C55.2743 52.201 55.2743 46.6325 55.2743 40.8867C57.095 40.8867 58.7856 40.8867 60.9492 40.8867C53.7728 34.4079 46.9393 28.2601 40.0231 22.0295ZM51.3846 53.8916C51.3846 53.9034 51.3846 53.9153 51.3846 53.9271C50.1669 53.9271 49.1029 53.9271 47.8142 53.9271C47.8142 53.9153 47.8142 53.9034 47.8142 53.8916H41.8674H28.5787V49.6591C28.5787 46.999 28.5669 44.3389 28.5787 41.667V37.5054L29.7019 36.5005L39.9758 27.3024L39.9994 27.3261C40.0112 27.3143 40.0112 27.3143 40.0231 27.3024C43.3689 30.3054 46.5728 33.1783 49.7531 36.0512L50.2497 36.5005L51.3728 37.5054V53.8916H51.3846Z" fill="#797979"/>
<path d="M41.8672 42.802C41.8672 46.4907 41.8672 50.1202 41.8672 53.8917H47.814C47.814 50.2385 47.814 46.5734 47.814 42.802C45.745 42.802 43.9007 42.802 41.8672 42.802Z" fill="#797979"/>
<path d="M38.2135 42.7073H32.3613V48.5595H38.2135V42.7073Z" fill="#797979"/>
</svg>
