<svg width="80" height="80" viewBox="0 0 80 80" fill="none" xmlns="http://www.w3.org/2000/svg">
<rect width="80" height="80" rx="16" fill="#E4E4E4"/>
<path d="M33.7475 22.0295L22.0431 22.0414L22.0312 33.7458L26.4293 29.3478L33.5938 36.5123L36.5258 33.5803L29.3613 26.4157L33.7475 22.0295ZM46.1968 22.0295L50.4529 26.5576L43.4184 33.5921L46.3505 36.5241L53.2904 29.5842L57.2155 33.7576L57.9012 22.0532L46.1968 22.0295ZM33.5938 43.4286L26.4293 50.5931L22.0312 46.1951L22.0431 57.8995H33.7475L29.3613 53.5133L36.5258 46.3488L33.5938 43.4286ZM46.3505 43.4286L43.4184 46.3606L50.583 53.5251L46.1968 57.9113H57.9012V46.2069L53.515 50.5931L46.3505 43.4286Z" fill="#797979"/>
</svg>
