<svg width="80" height="80" viewBox="0 0 80 80" fill="none" xmlns="http://www.w3.org/2000/svg">
<rect width="80" height="80" rx="16" fill="#E4E4E4"/>
<path opacity="0.3" d="M52 34C52 40.628 40 56 40 56C40 56 28 40.628 28 34C28 27.372 33.372 22 40 22C46.628 22 52 27.372 52 34Z" fill="#797979"/>
<path d="M40 39C37.238 39 35 36.762 35 34C35 31.238 37.238 29 40 29C42.762 29 45 31.238 45 34C45 36.762 42.762 39 40 39Z" fill="#797979"/>
<path d="M39.9997 20.0195C32.2877 20.0195 26.0137 26.2935 26.0137 34.0055C26.0137 42.9715 37.9497 57.5395 38.4577 58.1535L39.9997 60.0235L41.5417 58.1535C42.0497 57.5375 53.9857 42.9715 53.9857 34.0055C53.9857 26.2915 47.7117 20.0195 39.9997 20.0195ZM39.9997 53.6535C36.2437 48.7275 30.0137 39.4235 30.0137 34.0055C30.0137 28.4995 34.4937 24.0195 39.9997 24.0195C45.5057 24.0195 49.9857 28.4995 49.9857 34.0055C49.9857 39.4155 43.7557 48.7235 39.9997 53.6535Z" fill="#797979"/>
</svg>
