<svg width="80" height="80" viewBox="0 0 80 80" fill="none" xmlns="http://www.w3.org/2000/svg">
<rect width="80" height="80" rx="16" fill="#E4E4E4"/>
<path d="M60.4542 42.5353C57.2886 49.4236 51.4601 53.1734 44.7077 55.7955C42.1535 56.7873 39.5313 56.8145 36.9092 56.0401C31.3796 54.4097 26.5429 51.611 22.6436 47.3313C18.4998 42.7663 18.5949 38.8127 22.9289 34.4651C27.1271 30.2669 32.2627 27.6584 37.9825 26.3677C39.8167 25.9601 41.9497 26.1231 43.7974 26.585C48.8379 27.8486 53.2263 30.4707 56.8674 34.1662C58.3076 35.6199 59.2586 37.5492 60.4406 39.2746C60.4542 40.3615 60.4542 41.4484 60.4542 42.5353ZM47.9548 41.6658C45.5636 40.2121 43.5121 38.935 41.3927 37.7258C40.9987 37.5084 40.3058 37.3997 39.9525 37.6035C37.7515 38.8399 35.6049 40.1713 33.1322 41.6522C35.6321 43.0516 37.7923 44.2879 39.9797 45.4428C40.3058 45.6194 40.9036 45.5651 41.2568 45.3748C43.4034 44.2336 45.5093 43.0244 47.9548 41.6658ZM23.9886 36.5438C26.2847 37.8345 28.1053 38.8806 29.953 39.8317C30.2791 40.0083 30.8905 39.9403 31.2301 39.7501C33.4311 38.4866 35.6049 37.1552 38.0368 35.6878C35.8087 34.3428 33.8659 33.1336 31.8823 31.9924C31.5562 31.8022 30.9041 31.7886 30.6052 31.9788C28.4857 33.3918 26.407 34.8727 23.9886 36.5438ZM43.0366 35.7014C45.4685 37.1687 47.588 38.4866 49.7618 39.723C50.1558 39.9403 50.8351 39.9947 51.2155 39.8045C52.8459 38.9893 54.4083 38.0654 56.4598 36.9242C54.2045 35.2123 52.2345 33.6907 50.2237 32.2505C49.9248 32.0331 49.2727 31.9924 48.9466 32.1826C47.031 33.2423 45.1425 34.4243 43.0366 35.7014ZM37.9146 47.2633C35.5777 45.9591 33.6077 44.7906 31.5562 43.7581C31.0671 43.5135 30.2383 43.4999 29.7492 43.7445C28.2547 44.5053 26.8553 45.4428 25.062 46.5297C27.0591 47.9562 28.8254 49.2741 30.6595 50.4833C31.0127 50.7143 31.7328 50.6735 32.1268 50.4697C33.9746 49.5187 35.7679 48.4589 37.9146 47.2633ZM55.4137 46.1629C53.8105 45.1982 52.5742 44.3695 51.2699 43.7037C50.8351 43.4864 50.0743 43.4864 49.6395 43.7037C47.5337 44.7771 45.4821 45.9726 43.186 47.2633C45.1425 48.3638 46.8951 49.3828 48.6885 50.2931C49.0689 50.4833 49.789 50.4697 50.115 50.2387C51.8677 48.9888 53.5252 47.6302 55.4137 46.1629ZM46.7321 30.4707C42.4388 28.0659 38.4852 28.1339 34.2191 30.362C36.2299 31.5848 37.9961 32.6989 39.8167 33.7178C40.1971 33.9352 40.9036 33.9352 41.284 33.7178C43.0502 32.7396 44.7756 31.6527 46.7321 30.4707ZM46.637 52.1408C44.7213 51.0675 43.023 50.0893 41.2976 49.1654C40.9851 49.0024 40.4688 48.8665 40.1971 49.0024C38.2678 49.9942 36.3929 51.0675 34.2327 52.2631C38.5803 54.5184 42.4796 54.5728 46.637 52.1408ZM28.0238 41.7337C26.0538 40.6468 24.4777 39.7773 22.8066 38.8534C21.6926 40.9457 22.2768 42.6168 23.5811 44.3831C24.9669 43.5543 26.3255 42.7391 28.0238 41.7337ZM53.0904 41.7473C54.5578 42.6033 55.6718 43.2554 57.2614 44.1928C57.506 42.3451 57.6962 40.9321 57.9407 39.0301C56.0658 40.0762 54.7751 40.7963 53.0904 41.7473Z" fill="#797979"/>
</svg>
