<svg width="80" height="80" viewBox="0 0 80 80" fill="none" xmlns="http://www.w3.org/2000/svg">
<rect width="80" height="80" rx="16" fill="#D6DEFF"/>
<path opacity="0.3" d="M48 58C52.4 58 58 52 58 48H22C22 56 30 58 30 58H48Z" fill="#2150F8"/>
<path d="M48 59.9999H30C29.8 59.9999 29.6 59.9999 29.6 59.9999C26.2 59.1999 20 55.5999 20 47.9999C20 47.3999 20.2 46.9999 20.6 46.5999C21 46.1999 21.4 45.9999 22 45.9999H58C59.2 45.9999 60 46.7999 60 47.9999C60 53.3999 53.4 59.9999 48 59.9999ZM30.2 55.9999H48C50.6 55.9999 54.2 52.7999 55.4 49.9999H24.2C25.2 54.1999 29.2 55.5999 30.2 55.9999ZM42 41.9999C41.6 41.9999 41 41.7999 40.8 41.5999C40.2 41.1999 40 40.5999 40 39.9999V39.7999C40 39.3999 40.2 38.7999 40.4 38.3999C40.8 37.9999 42 35.7999 42 32.9999C42 29.3999 40.2 25.1999 40.2 25.1999C40 24.9999 40 24.5999 40 24.3999V23.9999C40 23.3999 40.4 22.7999 40.8 22.3999C41.4 21.9999 42 21.9999 42.6 22.1999C43.2 22.3999 56 27.3999 56 37.9999C56 38.9999 55.2 39.7999 54.4 39.9999L42.4 41.9999C42.2 41.9999 42.2 41.9999 42 41.9999ZM45.4 27.9999C45.6 29.5999 46 31.3999 46 32.9999C46 34.5999 45.6 36.1999 45.2 37.3999L51.8 36.3999C51.2 32.5999 48 29.7999 45.4 27.9999ZM24 41.9999C23.4 41.9999 23 41.7999 22.6 41.3999C22.2 40.9999 22 40.3999 22 39.7999V39.5999C22 39.1999 22.2 38.7999 22.4 38.3999C22.4 38.1999 23.8 36.1999 23.8 30.9999C23.8 26.5999 22.6 23.7999 22.2 23.1999C22 22.9999 22 22.5999 22 22.3999V21.9999C22 20.9999 22.8 19.9999 23.8 19.9999C24 19.9999 30 19.5999 34.8 23.9999C38.2 27.1999 40 31.9999 40 38.1999C40 39.1999 39.2 39.9999 38.2 40.1999L24.2 41.9999H24ZM26.8 24.1999C27.2 25.7999 27.8 28.1999 27.8 30.9999C27.8 33.5999 27.6 35.7999 27 37.5999L36 36.3999C35.6 32.1999 34.4 28.9999 32.2 26.7999C30.4 25.3999 28.4 24.5999 26.8 24.1999Z" fill="#2150F8"/>
</svg>
