<svg width="80" height="80" viewBox="0 0 80 80" fill="none" xmlns="http://www.w3.org/2000/svg">
<rect width="80" height="80" rx="16" fill="#D6DEFF"/>
<path d="M30.1126 55.4694C30.1126 56.3282 30.1126 57.1757 30.1126 58.0346C30.1126 58.4753 30.1126 58.9047 30.1126 59.3454C30.1126 59.82 29.8753 60.1138 29.5024 60.1025C29.1521 60.0912 28.9261 59.82 28.9261 59.368C28.9261 58.2267 28.9261 57.0853 28.9261 55.944C28.9261 55.7858 28.9261 55.6389 28.9261 55.4581C25.6603 55.153 23.0951 53.6726 21.3436 50.9041C20.1118 48.9491 19.6711 46.7908 19.9875 44.5081C20.6656 39.6716 24.9258 35.9877 30.0787 36.2476C30.203 35.8069 30.3273 35.3436 30.4516 34.8916C31.1748 32.462 32.124 30.1342 33.7513 28.1453C33.7965 28.0888 33.8304 28.0323 33.8869 27.9871C34.7909 27.2187 35.2881 26.2017 35.8192 25.1734C36.9041 23.0489 38.407 21.2974 40.5766 20.1786C41.5937 19.6588 42.0118 19.9413 41.9553 21.0149C41.8988 22.1562 41.944 23.2975 41.944 24.4275C42.6672 24.5405 43.3904 24.6083 44.0797 24.7778C46.4867 25.3429 48.5094 26.6198 50.2949 28.2922C50.9503 28.9137 51.2328 29.7274 51.2441 30.6201C51.2554 31.0382 51.4023 31.3094 51.7187 31.5806C54.1709 33.6599 56.6117 35.7504 59.0526 37.8523C60.2843 38.9145 60.4651 40.2592 59.5498 41.6153C59.3464 41.9204 59.143 42.2255 58.917 42.5193C57.8548 43.8866 56.0919 44.4855 54.4195 44.0109C53.199 43.6606 52.0012 43.2538 50.7808 42.9035C50.4757 42.8131 50.1141 42.8018 49.7977 42.8583C48.7015 43.0617 47.628 43.4007 46.498 43.2312C45.6957 43.1069 44.8933 42.9261 44.0571 42.7566C44.1023 43.7058 44.3057 44.5985 44.5995 45.4912C45.2211 47.3558 46.3511 48.87 47.7636 50.2148C48.8936 51.2996 50.0237 52.3957 51.0181 53.5822C52.3967 55.2208 53.086 57.1757 53.2894 59.3115C53.3346 59.8087 53.1538 60.0912 52.7809 60.1364C52.4193 60.1703 52.1594 59.9217 52.1142 59.4245C51.8882 56.848 50.7243 54.7349 48.9049 52.9381C48.0009 52.0454 47.0517 51.1979 46.1816 50.2826C44.0458 48.0451 42.9271 45.3782 42.8593 42.282C42.848 41.5249 43.1079 41.3214 43.8537 41.4797C44.5882 41.6379 45.3228 41.7735 46.046 41.9543C47.1082 42.2142 48.1591 42.0447 49.1761 41.7622C49.9785 41.5362 50.7356 41.5701 51.5153 41.8639C52.4984 42.2368 53.5268 42.508 54.5325 42.8131C55.9789 43.2538 57.301 42.7905 58.1599 41.5475C58.3068 41.3327 58.465 41.1067 58.6119 40.8807C59.1204 40.101 59.0187 39.3891 58.3068 38.7789C55.9111 36.7222 53.5268 34.643 51.0972 32.6315C50.3966 32.0552 50.0124 31.445 50.0463 30.5297C50.0689 29.976 49.8429 29.4675 49.4248 29.0945C47.7071 27.5351 45.7974 26.3147 43.4921 25.8627C42.8932 25.7497 42.2604 25.7158 41.6502 25.6932C40.9269 25.6706 40.7574 25.5237 40.7574 24.7891C40.7574 23.693 40.7574 22.5969 40.6557 21.4217C40.1585 21.8172 39.6274 22.1788 39.1641 22.6082C37.8081 23.8625 36.8815 25.422 36.1921 27.1283C36.113 27.3204 36.0226 27.5351 35.8757 27.6594C34.2259 29.0832 33.1637 30.8913 32.3952 32.8801C31.9884 33.9424 31.6833 35.0498 31.333 36.1346C31.3104 36.2137 31.3104 36.2928 31.2878 36.3719C36.1243 37.3324 39.1528 41.6153 39.1189 45.9998C39.1189 50.034 35.8757 55.0852 30.1126 55.4694ZM37.9437 45.8303C37.9889 41.2423 34.192 37.4342 29.5702 37.4002C24.9484 37.3663 21.1176 41.1293 21.0837 45.7286C21.0385 50.4295 24.8015 54.2264 29.525 54.2716C34.1242 54.3055 37.9098 50.5086 37.9437 45.8303Z" fill="#2150F8"/>
<path d="M52.7473 61.1196C52.3857 61.1196 52.0354 60.9953 51.7642 60.7693C51.5155 60.5659 51.1991 60.1703 51.1313 59.481C50.9392 57.2775 49.9787 55.3677 48.2159 53.6388C47.8882 53.3224 47.5605 53.006 47.2327 52.6896C46.6451 52.1358 46.0462 51.5595 45.4699 50.9606C43.1533 48.5311 41.9329 45.6156 41.8651 42.282C41.8651 42.0221 41.8425 41.2311 42.4414 40.7452C42.9838 40.3045 43.6393 40.3723 44.0913 40.474C44.3173 40.5192 44.5433 40.5644 44.7693 40.6096C45.2778 40.7113 45.7976 40.8243 46.3061 40.9486C47.0293 41.1294 47.8091 41.0729 48.9278 40.7678C49.9448 40.4853 50.9166 40.5305 51.8885 40.8921C52.623 41.1633 53.3801 41.3893 54.1711 41.6266C54.3971 41.6944 54.6231 41.7622 54.8491 41.83C55.8662 42.1351 56.7363 41.8413 57.3465 40.9486C57.5047 40.7226 57.6403 40.5192 57.7759 40.3045C58.0019 39.9542 57.9793 39.8072 57.6629 39.536C57.0188 38.9823 56.3747 38.4286 55.7306 37.8749C54.0129 36.3946 52.2388 34.869 50.4759 33.4113C49.8431 32.8915 49.0069 32.0101 49.0521 30.4958C49.0634 30.1794 48.9052 29.9647 48.7696 29.8404C46.9276 28.168 45.1987 27.2187 43.3228 26.8571C42.7917 26.7554 42.2041 26.7215 41.6391 26.7102C40.3622 26.665 39.7633 26.0661 39.7633 24.7892V24.7553C39.7633 24.3146 39.7633 23.8965 39.752 23.467C38.6897 24.4841 37.8309 25.8175 37.1529 27.5125C37.0286 27.8177 36.8591 28.168 36.554 28.4392C35.198 29.6144 34.1809 31.1399 33.356 33.2644C33.0848 33.9763 32.8588 34.6995 32.6215 35.4679C32.5989 35.5357 32.5876 35.5922 32.565 35.66C37.0512 37.0387 40.1814 41.2311 40.1588 46.0224C40.1475 48.3842 39.1982 50.8476 37.5597 52.7913C35.8986 54.7575 33.6385 56.0231 31.1299 56.4074V58.464C31.1299 58.7691 31.1299 59.0855 31.1299 59.3906C31.1186 60.0799 30.8473 60.4981 30.61 60.7241C30.3162 61.0066 29.9094 61.1648 29.48 61.1535C28.5647 61.1309 27.9093 60.4076 27.9093 59.4019C27.9093 58.5996 27.9093 57.786 27.9093 56.9837V56.3848C24.7113 55.8536 22.2139 54.2151 20.485 51.4804C19.129 49.2882 18.6204 46.9038 18.9821 44.35C19.7166 39.1292 24.0785 35.321 29.3105 35.1967C29.367 34.9933 29.4235 34.7899 29.4913 34.5865C30.4066 31.5241 31.4802 29.3319 32.9831 27.4899L32.9944 27.4673C33.0396 27.3995 33.1187 27.2978 33.243 27.1848C33.9662 26.5633 34.4182 25.6819 34.8928 24.744L34.9267 24.6875C36.2037 22.1788 37.8987 20.3934 40.1249 19.2407C40.4413 19.0825 41.4018 18.574 42.238 19.1051C43.0629 19.6363 43.0064 20.6872 42.9951 21.0262C42.9612 21.7946 42.9725 22.5856 42.9725 23.354C42.9725 23.4105 42.9725 23.467 42.9725 23.5235C43.4133 23.5801 43.8766 23.6592 44.3286 23.7609C46.7129 24.3146 48.8939 25.5463 51.007 27.5238C51.8207 28.281 52.2614 29.3319 52.284 30.5749C52.284 30.6653 52.284 30.6879 52.397 30.7783C54.7474 32.7672 57.1205 34.8125 59.4144 36.7788L59.7309 37.05C61.3581 38.4512 61.618 40.361 60.4089 42.1464L60.3072 42.3046C60.1377 42.5645 59.9569 42.8357 59.7422 43.1069C58.42 44.8133 56.2278 45.5365 54.1598 44.9489C53.527 44.7681 52.8942 44.5647 52.284 44.3726C51.7077 44.1918 51.1087 43.9996 50.5324 43.8414C50.3855 43.7962 50.1821 43.7849 50.0126 43.8188C49.7866 43.864 49.5606 43.9092 49.312 43.9544C48.4306 44.1466 47.4361 44.35 46.3739 44.1918C46.0123 44.1353 45.6394 44.0675 45.2891 43.9996C45.3682 44.3613 45.4699 44.7342 45.6055 45.1297C46.114 46.6665 47.0293 48.0338 48.4984 49.4464C49.6736 50.5764 50.8149 51.6838 51.832 52.893C53.2671 54.588 54.1033 56.7125 54.3406 59.1759C54.4536 60.3964 53.7078 61.0179 52.9281 61.1083C52.8603 61.1083 52.8038 61.1196 52.7473 61.1196ZM29.5139 38.4173C25.4571 38.4173 22.1348 41.6944 22.1009 45.7286C22.0783 47.7287 22.8467 49.6159 24.2367 51.0284C25.6379 52.441 27.5138 53.232 29.5365 53.2433C29.5591 53.2433 29.5817 53.2433 29.593 53.2433C33.6046 53.2433 36.893 49.921 36.9269 45.819C36.9382 43.8866 36.1924 42.0447 34.8024 40.6435C33.4012 39.2196 31.5367 38.4286 29.5591 38.4173C29.5478 38.4173 29.5252 38.4173 29.5139 38.4173Z" fill="#2150F8"/>
<path d="M45.0174 34.6217L45.0174 34.6217L45.0188 34.6228C45.491 34.9921 46.1015 35.2848 46.706 35.3888L46.706 35.3889L46.7104 35.3896C46.9479 35.4258 47.1763 35.3943 47.3632 35.2819C47.5523 35.168 47.6771 34.984 47.7243 34.7603C47.7775 34.5361 47.747 34.3074 47.6207 34.1207C47.4933 33.9324 47.2861 33.8126 47.0358 33.7744L47.0357 33.7744C46.459 33.6866 46.0407 33.3836 45.6299 32.9614C45.4474 32.7643 45.2405 32.5905 45.0518 32.4321C45.028 32.4121 45.0045 32.3923 44.9813 32.3728C44.7982 32.2184 44.5904 32.1214 44.3738 32.1156C44.1525 32.1097 43.9514 32.2001 43.7935 32.3649C43.6265 32.532 43.5421 32.7495 43.5589 32.9778C43.5755 33.2046 43.6898 33.4192 43.8769 33.5933C43.9541 33.6654 44.0316 33.7387 44.1097 33.8125C44.3984 34.0854 44.695 34.3657 45.0174 34.6217Z" fill="#2150F8" stroke="#2150F8" stroke-width="0.472906"/>
<path d="M28.5199 47.5592C27.8193 47.5592 27.1413 47.5592 26.4746 47.5592C26.1808 47.5592 25.8756 47.6044 25.5931 47.5479C25.3671 47.5027 25.0733 47.3897 24.9829 47.2202C24.8925 47.0507 24.9603 46.7117 25.0846 46.5422C25.853 45.4348 26.6554 44.3386 27.4464 43.2425C28.3843 41.943 29.3335 40.6434 30.2715 39.3326C30.4862 39.0388 30.7235 38.8015 31.1077 38.9823C31.4919 39.1631 31.4919 39.4795 31.4015 39.8411C31.119 41.1068 30.8478 42.3724 30.5879 43.638C30.554 43.7736 30.5427 43.9092 30.5088 44.1126C30.7009 44.1126 30.8478 44.1126 30.9947 44.1126C31.797 44.1126 32.5993 44.09 33.4016 44.1239C33.6389 44.1352 33.9666 44.2708 34.057 44.4403C34.1475 44.6211 34.0683 44.9715 33.9327 45.1636C32.7801 46.8021 31.6049 48.418 30.4297 50.034C29.8759 50.8024 29.3222 51.5595 28.7685 52.3279C28.5538 52.6217 28.3278 52.8703 27.9323 52.6782C27.5481 52.4974 27.5481 52.181 27.6272 51.8194C27.921 50.5312 28.1809 49.2317 28.4634 47.9434C28.486 47.8417 28.4973 47.7287 28.5199 47.5592ZM32.3959 45.2879C31.5597 45.2879 30.8139 45.2879 30.0794 45.2879C29.2544 45.2879 29.0736 45.0506 29.2431 44.2482C29.3787 43.6041 29.5143 42.9713 29.6499 42.3272C29.6273 42.3159 29.6047 42.3046 29.5821 42.3046C28.6216 43.638 27.6611 44.9715 26.6441 46.3727C27.5368 46.3727 28.3052 46.3727 29.0849 46.3727C29.7742 46.3727 29.9776 46.6439 29.8307 47.2993C29.6838 47.9886 29.5369 48.6666 29.39 49.356C29.4126 49.3673 29.4239 49.3786 29.4465 49.3899C30.4071 48.0564 31.3676 46.7117 32.3959 45.2879Z" fill="#2150F8"/>
<path d="M32.396 45.2878C31.3676 46.7117 30.4071 48.0451 29.4353 49.3898C29.4127 49.3785 29.4014 49.3672 29.3788 49.3559C29.5257 48.6666 29.6726 47.9886 29.8195 47.2993C29.9664 46.6326 29.763 46.3727 29.0737 46.3727C28.3053 46.3614 27.5255 46.3727 26.6328 46.3727C27.6498 44.9601 28.6104 43.638 29.5709 42.3046C29.5935 42.3159 29.6161 42.3272 29.6387 42.3272C29.5031 42.9713 29.3675 43.6041 29.2319 44.2482C29.0624 45.0505 29.2432 45.2878 30.0681 45.2878C30.8139 45.2991 31.5597 45.2878 32.396 45.2878Z" fill="#2150F8"/>
</svg>
